<?xml version="1.0" encoding="utf-8"?>
<svg width="736" height="520" xmlns="http://www.w3.org/2000/svg">
  <path style="fill:#8abc65; stroke:none;" d="M278 29L278 30L281 30L278 29z"/>
  <path style="fill:#33c3b7; stroke:none;" d="M216 118C224.581 113.401 223.628 102.162 226.929 94C232.276 80.7788 244.171 69.7989 258 66.1559C263.528 64.6997 269.322 64.8664 275 65.0146C329.687 66.4424 334.352 141.995 328.579 181C327.148 190.666 325.683 200.472 323.5 210C322.45 214.582 319.731 220.23 320.684 225C322.233 232.748 332.459 241.646 337.115 248C348.15 263.062 359.594 279.813 367 297L369 297C377.328 281.136 386.688 265.555 397.155 251C402.373 243.744 411.67 235.524 414.436 227C418.803 213.543 413.294 191.73 411.272 178C403.448 124.889 383.344 65.4413 332 39.4391C287.297 16.8 221.243 33.2798 213.3 89C211.86 99.1049 213.754 108.292 216 118z"/>
  <path style="fill:#8abc65; stroke:none;" d="M298.667 29.3333L299.333 29.6667L298.667 29.3333M271 30L271 31L275 31L271 30M304 30L304 31L307 31L304 30M267.667 31.3333L268.333 31.6667L267.667 31.3333M309.667 31.3333L310.333 31.6667L309.667 31.3333M263.667 32.3333L264.333 32.6667L263.667 32.3333M314 32L315 33L314 32M261 33L262 34L261 33M317 33L318 34L317 33M258 34L259 35L258 34M320 34L321 35L320 34M255 35L256 36L255 35M323 35L324 36L323 35M253 36L254 37L253 36M325 36L326 37L325 36M251 37L252 38L251 37M327 37L328 38L327 37M249 38L250 39L249 38M330 38L331 39L330 38M247 39L248 40L247 39M332 39L333 40L332 39M333 40L334 41L333 40M244 41L245 42L244 41M242 42L243 43L242 42M337 42L338 43L337 42M241 43L242 44L241 43M338 43L339 44L338 43M239 44L240 45L239 44M340 44L341 45L340 44M238 45L239 46L238 45M342 45L343 46L342 45M343 46L344 47L343 46M346 48L347 49L346 48M347 49L348 50L347 49M232 50L233 51L232 50M231 51L232 52L231 51M230 52L231 53L230 52M351 52L352 53L351 52M226 57L227 58L226 57M225 58L226 59L225 58M358 58L359 59L358 58M359 59L360 60L359 59M360 60L361 61L360 60M223 61L224 62L223 61M361 61L362 62L361 61M362 62L363 63L362 62M363 63L364 64L363 63M221 64L222 65L221 64M364 64L365 65L364 64M260.667 65.3333L261.333 65.6667L260.667 65.3333M279.667 65.3333L280.333 65.6667L279.667 65.3333M365 65L366 66L365 65M220 66L221 67L220 66M256.667 66.3333L257.333 66.6667L256.667 66.3333M283 66L284 67L283 66M253 67L254 68L253 67M287 67L288 68L287 67M219 68L220 69L219 68M250.667 68.3333L251.333 68.6667L250.667 68.3333M290 68L291 69L290 68M249 69L250 70L249 69M292 69L293 70L292 69M218 70L219 71L218 70M247 70L248 71L247 70M294 70L295 71L294 70M369 70L370 71L369 70M245 71L246 72L245 71M296 71L297 72L296 71M370 71L371 72L370 71M217.333 72.6667L217.667 73.3333L217.333 72.6667M242 73L243 74L242 73M299 73L300 74L299 73M241 74L242 75L241 74M216 75L217 76L216 75M373 75L374 76L373 75M303 76L304 77L303 76M374 76L375 77L374 76M237 77L238 78L237 77M304 77L305 78L304 77M215 78L216 79L215 78M375 78L376 79L375 78M376 79L377 80L376 79M214 81L214 84L215 84L214 81M308 81L309 82L308 81M233 82L234 83L233 82M378 82L379 83L378 82M232 83L233 84L232 83M310 83L311 84L310 83M379 83L380 84L379 83M311 84L312 85L311 84M213 85L213 88L214 88L213 85M231 85L232 86L231 85M380 85L381 86L380 85M313 87L314 88L313 87M381 87L382 88L381 87M229 88L230 89L229 88M314 88L315 89L314 88M382 88L383 89L382 88M228 90L229 91L228 90M315 90L316 91L315 90M227 92L228 93L227 92M384 92L385 93L384 92M212 93L212 105L213 105L212 93M317 93L318 94L317 93M385 93L386 94L385 93M226.333 94.6667L226.667 95.3333L226.333 94.6667M318 95L319 96L318 95M319 97L320 98L319 97M387 97L388 98L387 97M225 98L226 99L225 98M320.333 98.6667L320.667 99.3333L320.333 98.6667M388 99L389 100L388 99M224 101L225 102L224 101M321 101L322 102L321 101M389 101L390 102L389 101z"/>
  <path style="fill:#ffbb03; stroke:none;" d="M239 103L239 104L249 104L239 103z"/>
  <path style="fill:#8abc65; stroke:none;" d="M322 103L323 104L322 103M390 103L391 104L390 103z"/>
  <path style="fill:#ffbb03; stroke:none;" d="M235.667 104.333L236.333 104.667L235.667 104.333z"/>
  <path style="fill:#e33e3e; stroke:none;" d="M237 104.468C200.292 111.405 212.401 168.969 249 162.384C287.712 155.42 275.818 97.1318 237 104.468z"/>
  <path style="fill:#ffbb03; stroke:none;" d="M251.667 104.333L252.333 104.667L251.667 104.333z"/>
  <path style="fill:#8abc65; stroke:none;" d="M223 105L223 112L224 112L223 105z"/>
  <path style="fill:#ffbb03; stroke:none;" d="M232 105L233 106L232 105M254 105L255 106L254 105z"/>
  <path style="fill:#8abc65; stroke:none;" d="M323.333 105.667L323.667 106.333L323.333 105.667M391 105L392 106L391 105z"/>
  <path style="fill:#ffbb03; stroke:none;" d="M230 106L231 107L230 106M257 106L258 107L257 106M228 107L229 108L228 107z"/>
  <path style="fill:#8abc65; stroke:none;" d="M392 107L393 108L392 107z"/>
  <path style="fill:#ffbb03; stroke:none;" d="M227 108L228 109L227 108M260 108L261 109L260 108z"/>
  <path style="fill:#8abc65; stroke:none;" d="M324.333 108.667L324.667 109.333L324.333 108.667M213.333 109.667L213.667 110.333L213.333 109.667z"/>
  <path style="fill:#ffbb03; stroke:none;" d="M225 109L226 110L225 109M224 110L225 111L224 110M263 110L264 111L263 110z"/>
  <path style="fill:#8abc65; stroke:none;" d="M393 110L394 111L393 110z"/>
  <path style="fill:#ffbb03; stroke:none;" d="M264 111L265 112L264 111z"/>
  <path style="fill:#8abc65; stroke:none;" d="M214.333 112.667L214.667 113.333L214.333 112.667M222 112L223 113L222 112z"/>
  <path style="fill:#ffbb03; stroke:none;" d="M265 112L266 113L265 112z"/>
  <path style="fill:#8abc65; stroke:none;" d="M325 112L326 113L325 112M394 112L395 113L394 112M221 113L222 114L221 113z"/>
  <path style="fill:#ffbb03; stroke:none;" d="M266 113L267 114L266 113z"/>
  <path style="fill:#8abc65; stroke:none;" d="M220 114L221 115L220 114z"/>
  <path style="fill:#ffbb03; stroke:none;" d="M267 114L268 115L267 114z"/>
  <path style="fill:#8abc65; stroke:none;" d="M326.333 114.667L326.667 115.333L326.333 114.667M215 115L216 116L215 115M219 115L220 116L219 115z"/>
  <path style="fill:#ffbb03; stroke:none;" d="M268 116L269 117L268 116z"/>
  <path style="fill:#8abc65; stroke:none;" d="M218 117L219 118L218 117M396.333 117.667L396.667 118.333L396.333 117.667M217.333 118.667L217.667 119.333L217.333 118.667z"/>
  <path style="fill:#ffbb03; stroke:none;" d="M270 119L271 120L270 119z"/>
  <path style="fill:#8abc65; stroke:none;" d="M327.333 119.667L327.667 120.333L327.333 119.667z"/>
  <path style="fill:#ffbb03; stroke:none;" d="M235.015 120.956C227.366 122.773 230.534 134.49 237.985 132.164C245.284 129.884 242.011 119.295 235.015 120.956z"/>
  <path style="fill:#8abc65; stroke:none;" d="M397 120L398 121L397 120z"/>
  <path style="fill:#ffbb03; stroke:none;" d="M216 121L217 122L216 121z"/>
  <path style="fill:#8abc65; stroke:none;" d="M398 123L399 124L398 123z"/>
  <path style="fill:#ffbb03; stroke:none;" d="M215 124L216 125L215 124M272.333 124.667L272.667 125.333L272.333 124.667z"/>
  <path style="fill:#8abc65; stroke:none;" d="M328.333 124.667L328.667 125.333L328.333 124.667z"/>
  <path style="fill:#ffbb03; stroke:none;" d="M214 126L214 130L215 130L214 126z"/>
  <path style="fill:#8abc65; stroke:none;" d="M399 126L400 127L399 126z"/>
  <path style="fill:#ffbb03; stroke:none;" d="M273 128L273 132L274 132L273 128z"/>
  <path style="fill:#8abc65; stroke:none;" d="M400 128L401 129L400 128M329 129L329 132L330 132L329 129M401 132L402 133L401 132z"/>
  <path style="fill:#ffbb03; stroke:none;" d="M273 134L273 139L274 139L273 134z"/>
  <path style="fill:#8abc65; stroke:none;" d="M402.333 135.667L402.667 136.333L402.333 135.667z"/>
  <path style="fill:#ffbb03; stroke:none;" d="M214 137L214 140L215 140L214 137z"/>
  <path style="fill:#8abc65; stroke:none;" d="M403 138L404 139L403 138z"/>
  <path style="fill:#ffbb03; stroke:none;" d="M272 141L273 142L272 141M215 142L216 143L215 142z"/>
  <path style="fill:#8abc65; stroke:none;" d="M404.333 142.667L404.667 143.333L404.333 142.667z"/>
  <path style="fill:#ffbb03; stroke:none;" d="M271 144L272 145L271 144z"/>
  <path style="fill:#8abc65; stroke:none;" d="M330 144L330 161L331 161L330 144z"/>
  <path style="fill:#ffbb03; stroke:none;" d="M216 145L217 146L216 145M270 146L271 147L270 146z"/>
  <path style="fill:#8abc65; stroke:none;" d="M405 146L405 149L406 149L405 146z"/>
  <path style="fill:#ffbb03; stroke:none;" d="M217 147L218 148L217 147M269 148L270 149L269 148M219 150L220 151L219 150z"/>
  <path style="fill:#8abc65; stroke:none;" d="M406 150L407 151L406 150z"/>
  <path style="fill:#ffbb03; stroke:none;" d="M220 151L221 152L220 151M267 151L268 152L267 151M266 152L267 153L266 152M265 153L266 154L265 153z"/>
  <path style="fill:#8abc65; stroke:none;" d="M407.333 154.667L407.667 155.333L407.333 154.667z"/>
  <path style="fill:#ffbb03; stroke:none;" d="M225 156L226 157L225 156M262 156L263 157L262 156M538 156L538 157L555 157L538 156M95 372L103 365C89.8933 340.374 82.2895 314.878 89.9205 287C101.092 246.187 147.671 217.244 188 237.981C203.013 245.701 213.225 260.507 220.996 275C239.054 308.678 248.368 351.983 250 390C261.067 393.502 270.905 400.803 282 404.656C306.962 413.323 332.753 416 359 416C368.212 416 386.563 419.103 394.49 413.682C401.168 409.115 401.275 390.186 400.961 383C399.637 352.727 380.233 320.73 365.654 295C323.527 220.651 254.45 136.69 158 160.374C143.603 163.91 129.813 169.239 117 176.731C99.6792 186.858 84.3495 201.498 74.3372 219C55.4495 252.016 53.1004 291.856 67.4522 327C71.84 337.745 78.2804 348.4 86.0756 356.999C90.095 361.433 96.7557 365.504 95 372M226 157L227 158L226 157M261 157L262 158L261 157M529 157L529 158L533 158L529 157z"/>
  <path style="fill:#e33e3e; stroke:none;" d="M250 390L250 445C250 449.713 247.852 461.625 251.028 465.357C253.537 468.305 263.607 465.602 267 465.13C281.382 463.132 296.488 461.37 311 461.015C367.537 459.63 427.19 454.172 482 472C485.124 447.277 483.387 421.861 485.09 397C488.267 350.603 497.558 294.812 526.503 257.001C549.627 226.795 594.343 222.554 623 248.174C641.33 264.561 650.581 289.691 649.985 314C649.755 323.394 647.885 346.251 639.582 352.303C636.011 354.906 625.644 351.712 621 352.093C606.939 353.247 596.498 366.408 596.043 380C595.219 404.642 624.358 420.168 643.996 404.61C653.324 397.219 657.28 384.509 654.236 373C653.2 369.083 647.402 362.578 649.03 358.715C653.067 349.138 662.05 340.698 666.742 331C677.933 307.867 680.423 281.092 675.739 256C658.844 165.492 548.47 134.52 475 176.287C438.511 197.03 408.951 230.296 387.4 266C382.414 274.261 368.354 290.079 369.028 300C369.539 307.525 377.403 318.131 380.755 325C389.867 343.668 400.992 364.729 400.992 386C400.992 392.912 400.207 408.361 394.49 413.142C387.465 419.016 368.629 416 360 416C335.25 416 310.67 413.819 287 405.999C274.617 401.908 262.541 392.418 250 390z"/>
  <path style="fill:#ffbb03; stroke:none;" d="M559 157L559 158L563 158L559 157M522 158L522 159L525 159L522 158M568 158L568 159L571 159L568 158M229 159L230 160L229 159M258 159L259 160L258 159z"/>
  <path style="fill:#8abc65; stroke:none;" d="M408 159L408 162L409 162L408 159z"/>
  <path style="fill:#ffbb03; stroke:none;" d="M517 159L517 160L520 160L517 159M573 159L573 160L576 160L573 159M231 160L232 161L231 160M256 160L257 161L256 160M513.667 160.333L514.333 160.667L513.667 160.333M578 160L579 161L578 160M234 161L235 162L234 161M253 161L254 162L253 161M509.667 161.333L510.333 161.667L509.667 161.333M582.667 161.333L583.333 161.667L582.667 161.333M236 162L236 163L240 163L236 162M248 162L248 163L251 163L248 162M506.667 162.333L507.333 162.667L506.667 162.333M585.667 162.333L586.333 162.667L585.667 162.333M503 163L504 164L503 163M588.667 163.333L589.333 163.667L588.667 163.333M500 164L501 165L500 164M591.667 164.333L592.333 164.667L591.667 164.333z"/>
  <path style="fill:#8abc65; stroke:none;" d="M409 165L410 166L409 165z"/>
  <path style="fill:#ffbb03; stroke:none;" d="M497.667 165.333L498.333 165.667L497.667 165.333M594.667 165.333L595.333 165.667L594.667 165.333M495 166L496 167L495 166M598 166L599 167L598 166M492 167L493 168L492 167M600 167L601 168L600 167M490 168L491 169L490 168M602 168L603 169L602 168M488 169L489 170L488 169M604 169L605 170L604 169z"/>
  <path style="fill:#8abc65; stroke:none;" d="M329 170L329 175L330 175L329 170M410 170L410 173L411 173L410 170z"/>
  <path style="fill:#ffbb03; stroke:none;" d="M485.667 170.333L486.333 170.667L485.667 170.333M606.667 170.333L607.333 170.667L606.667 170.333M483.667 171.333L484.333 171.667L483.667 171.333M608.667 171.333L609.333 171.667L608.667 171.333M481.667 172.333L482.333 172.667L481.667 172.333M611 172L612 173L611 172M479 173L480 174L479 173M613 173L614 174L613 173M477.667 174.333L478.333 174.667L477.667 174.333M615 174L616 175L615 174M476 175L477 176L476 175z"/>
  <path style="fill:#8abc65; stroke:none;" d="M411 176L411 180L412 180L411 176z"/>
  <path style="fill:#ffbb03; stroke:none;" d="M474 176L475 177L474 176M618 176L619 177L618 176M472 177L473 178L472 177M620 177L621 178L620 177z"/>
  <path style="fill:#8abc65; stroke:none;" d="M328 178L328 182L329 182L328 178z"/>
  <path style="fill:#ffbb03; stroke:none;" d="M471 178L472 179L471 178M469 179L470 180L469 179M623 179L624 180L623 179M467.667 180.333L468.333 180.667L467.667 180.333M624.667 180.333L625.333 180.667L624.667 180.333M466 181L467 182L466 181M626 181L627 182L626 181M464 182L465 183L464 182M463 183L464 184L463 183M629 183L630 184L629 183M461 184L462 185L461 184M630 184L631 185L630 184z"/>
  <path style="fill:#8abc65; stroke:none;" d="M412 185L413 186L412 185z"/>
  <path style="fill:#ffbb03; stroke:none;" d="M460 185L461 186L460 185z"/>
  <path style="fill:#8abc65; stroke:none;" d="M327 186L327 189L328 189L327 186z"/>
  <path style="fill:#ffbb03; stroke:none;" d="M458 186L459 187L458 186M633 186L634 187L633 186M457 187L458 188L457 187M634 187L635 188L634 187M635 188L636 189L635 188M454 189L455 190L454 189M636 189L637 190L636 189M453 190L454 191L453 190M452 191L453 192L452 191z"/>
  <path style="fill:#8abc65; stroke:none;" d="M413 192L413 197L414 197L413 192M326.333 193.667L326.667 194.333L326.333 193.667z"/>
  <path style="fill:#ffbb03; stroke:none;" d="M449 193L450 194L449 193M641 193L642 194L641 193M448 194L449 195L448 194M642 194L643 195L642 194M447 195L448 196L447 195M643 195L644 196L643 195M644 196L645 197L644 196M645 197L646 198L645 197z"/>
  <path style="fill:#8abc65; stroke:none;" d="M325 198L326 199L325 198z"/>
  <path style="fill:#ffbb03; stroke:none;" d="M443 198L444 199L443 198M646 198L647 199L646 198M442 199L443 200L442 199M647 199L648 200L647 199M441 200L442 201L441 200M648 200L649 201L648 200M440 201L441 202L440 201z"/>
  <path style="fill:#8abc65; stroke:none;" d="M414 202L414 211L415 211L414 202z"/>
  <path style="fill:#ffbb03; stroke:none;" d="M439 202L440 203L439 202z"/>
  <path style="fill:#8abc65; stroke:none;" d="M324.333 203.667L324.667 204.333L324.333 203.667z"/>
  <path style="fill:#ffbb03; stroke:none;" d="M438 203L439 204L438 203M650 203L651 204L650 203M651 204L652 205L651 204M652 205L653 206L652 205z"/>
  <path style="fill:#8abc65; stroke:none;" d="M323 208L323 211L324 211L323 208z"/>
  <path style="fill:#ffbb03; stroke:none;" d="M654 208L655 209L654 208M655 209L656 210L655 209z"/>
  <path style="fill:#8abc65; stroke:none;" d="M322.333 212.667L322.667 213.333L322.333 212.667z"/>
  <path style="fill:#ffbb03; stroke:none;" d="M657 212L658 213L657 212M658 213L659 214L658 213M659 215L660 216L659 215z"/>
  <path style="fill:#8abc65; stroke:none;" d="M321 217L322 218L321 217z"/>
  <path style="fill:#ffbb03; stroke:none;" d="M423 218L424 219L423 218M661 218L662 219L661 218M422 219L423 220L422 219z"/>
  <path style="fill:#8abc65; stroke:none;" d="M415 220L415 228L416 228L415 220z"/>
  <path style="fill:#ffbb03; stroke:none;" d="M421 220L422 221L421 220M662 220L663 221L662 220z"/>
  <path style="fill:#8abc65; stroke:none;" d="M320.333 221.667L320.667 222.333L320.333 221.667z"/>
  <path style="fill:#ffbb03; stroke:none;" d="M420 221L421 222L420 221M419 222L420 223L419 222M663 222L664 223L663 222M664.333 223.667L664.667 224.333L664.333 223.667z"/>
  <path style="fill:#8abc65; stroke:none;" d="M319 225L322 229L319 225z"/>
  <path style="fill:#ffbb03; stroke:none;" d="M417 225L418 226L417 225M665 225L666 226L665 225M416 226L417 227L416 226M666 227L667 228L666 227z"/>
  <path style="fill:#8abc65; stroke:none;" d="M414 228L415 229L414 228M322 229L323 230L322 229M413 229L414 230L413 229z"/>
  <path style="fill:#ffbb03; stroke:none;" d="M667.333 229.667L667.667 230.333L667.333 229.667z"/>
  <path style="fill:#8abc65; stroke:none;" d="M323 230L327 235L323 230M412.333 230.667L412.667 231.333L412.333 230.667z"/>
  <path style="fill:#ffbb03; stroke:none;" d="M571 231L571 232L582 232L571 231z"/>
  <path style="fill:#8abc65; stroke:none;" d="M411 232L412 233L411 232z"/>
  <path style="fill:#ffbb03; stroke:none;" d="M563.667 232.333L564.333 232.667L563.667 232.333M587 232L587 233L591 233L587 232M668 232L669 233L668 232z"/>
  <path style="fill:#8abc65; stroke:none;" d="M410 233L411 234L410 233z"/>
  <path style="fill:#ffbb03; stroke:none;" d="M559.667 233.333L560.333 233.667L559.667 233.333M593.667 233.333L594.333 233.667L593.667 233.333z"/>
  <path style="fill:#8abc65; stroke:none;" d="M409 234L410 235L409 234z"/>
  <path style="fill:#ffbb03; stroke:none;" d="M555.667 234.333L556.333 234.667L555.667 234.333M598 234L599 235L598 234z"/>
  <path style="fill:#8abc65; stroke:none;" d="M669 234L670 235L669 234M327 235L328 236L327 235M408.333 235.667L408.667 236.333L408.333 235.667z"/>
  <path style="fill:#ffbb03; stroke:none;" d="M552.667 235.333L553.333 235.667L552.667 235.333M601 235L602 236L601 235z"/>
  <path style="fill:#8abc65; stroke:none;" d="M328 236L330 239L328 236z"/>
  <path style="fill:#ffbb03; stroke:none;" d="M551 236L552 237L551 236M603 236L604 237L603 236z"/>
  <path style="fill:#8abc65; stroke:none;" d="M407 237L408 238L407 237z"/>
  <path style="fill:#ffbb03; stroke:none;" d="M548 237L549 238L548 237M606 237L607 238L606 237M670 237L671 238L670 237z"/>
  <path style="fill:#8abc65; stroke:none;" d="M406 238L407 239L406 238z"/>
  <path style="fill:#ffbb03; stroke:none;" d="M546 238L547 239L546 238M608 238L609 239L608 238z"/>
  <path style="fill:#8abc65; stroke:none;" d="M330 239L331 240L330 239M405 239L406 240L405 239z"/>
  <path style="fill:#ffbb03; stroke:none;" d="M545 239L546 240L545 239M610 239L611 240L610 239M671.333 239.667L671.667 240.333L671.333 239.667z"/>
  <path style="fill:#8abc65; stroke:none;" d="M331 240L333 243L331 240z"/>
  <path style="fill:#ffbb03; stroke:none;" d="M543 240L544 241L543 240M612 240L613 241L612 240M614 241L615 242L614 241z"/>
  <path style="fill:#8abc65; stroke:none;" d="M403 242L404 243L403 242z"/>
  <path style="fill:#ffbb03; stroke:none;" d="M540 242L541 243L540 242M615 242L616 243L615 242M672.333 242.667L672.667 243.333L672.333 242.667z"/>
  <path style="fill:#8abc65; stroke:none;" d="M333 243L334 244L333 243M402 243L403 244L402 243z"/>
  <path style="fill:#ffbb03; stroke:none;" d="M539 243L540 244L539 243M617 243L618 244L617 243z"/>
  <path style="fill:#8abc65; stroke:none;" d="M334 244L336 247L334 244z"/>
  <path style="fill:#ffbb03; stroke:none;" d="M538 244L539 245L538 244M618 244L619 245L618 244z"/>
  <path style="fill:#8abc65; stroke:none;" d="M401 245L402 246L401 245z"/>
  <path style="fill:#ffbb03; stroke:none;" d="M619 245L620 246L619 245M673.333 245.667L673.667 246.333L673.333 245.667z"/>
  <path style="fill:#8abc65; stroke:none;" d="M400 246L401 247L400 246z"/>
  <path style="fill:#ffbb03; stroke:none;" d="M621 246L622 247L621 246z"/>
  <path style="fill:#8abc65; stroke:none;" d="M336 247L337 248L336 247M399 247L400 248L399 247z"/>
  <path style="fill:#ffbb03; stroke:none;" d="M534 247L535 248L534 247M622 247L623 248L622 247z"/>
  <path style="fill:#8abc65; stroke:none;" d="M337 248L339 251L337 248z"/>
  <path style="fill:#ffbb03; stroke:none;" d="M533 248L534 249L533 248M623 248L624 249L623 248z"/>
  <path style="fill:#8abc65; stroke:none;" d="M398 249L399 250L398 249z"/>
  <path style="fill:#ffbb03; stroke:none;" d="M624 249L625 250L624 249M674.333 249.667L674.667 250.333L674.333 249.667z"/>
  <path style="fill:#8abc65; stroke:none;" d="M397 250L398 251L397 250z"/>
  <path style="fill:#ffbb03; stroke:none;" d="M531 250L532 251L531 250M625 250L626 251L625 250z"/>
  <path style="fill:#8abc65; stroke:none;" d="M339 251L340 252L339 251M396.333 251.667L396.667 252.333L396.333 251.667z"/>
  <path style="fill:#ffbb03; stroke:none;" d="M626 251L627 252L626 251z"/>
  <path style="fill:#8abc65; stroke:none;" d="M340.333 252.667L340.667 253.333L340.333 252.667z"/>
  <path style="fill:#ffbb03; stroke:none;" d="M627 252L628 253L627 252z"/>
  <path style="fill:#8abc65; stroke:none;" d="M395 253L396 254L395 253z"/>
  <path style="fill:#ffbb03; stroke:none;" d="M529 253L530 254L529 253M628 253L629 254L628 253M675.333 253.667L675.667 254.333L675.333 253.667z"/>
  <path style="fill:#8abc65; stroke:none;" d="M341.333 254.667L341.667 255.333L341.333 254.667M394.333 254.667L394.667 255.333L394.333 254.667z"/>
  <path style="fill:#ffbb03; stroke:none;" d="M528 254L529 255L528 254M629 254L630 255L629 254M527 255L528 256L527 255M630 255L631 256L630 255z"/>
  <path style="fill:#8abc65; stroke:none;" d="M342 256L343 257L342 256M393 256L394 257L393 256z"/>
  <path style="fill:#ffbb03; stroke:none;" d="M526 256L527 257L526 256z"/>
  <path style="fill:#8abc65; stroke:none;" d="M343 257L345 260L343 257M392 258L393 259L392 258z"/>
  <path style="fill:#ffbb03; stroke:none;" d="M525 258L526 259L525 258M632 258L633 259L632 258M676 258L676 261L677 261L676 258z"/>
  <path style="fill:#8abc65; stroke:none;" d="M391 259L392 260L391 259z"/>
  <path style="fill:#ffbb03; stroke:none;" d="M524 259L525 260L524 259M633 259L634 260L633 259z"/>
  <path style="fill:#8abc65; stroke:none;" d="M345 260L346 261L345 260M390 260L391 261L390 260M346.333 261.667L346.667 262.333L346.333 261.667M389 262L390 263L389 262z"/>
  <path style="fill:#ffbb03; stroke:none;" d="M522 262L523 263L522 262M635 262L636 263L635 262z"/>
  <path style="fill:#8abc65; stroke:none;" d="M347.333 263.667L347.667 264.333L347.333 263.667M388.333 263.667L388.667 264.333L388.333 263.667z"/>
  <path style="fill:#ffbb03; stroke:none;" d="M636 263L637 264L636 263M677 264L677 269L678 269L677 264z"/>
  <path style="fill:#8abc65; stroke:none;" d="M348 265L349 266L348 265M387 265L388 266L387 265z"/>
  <path style="fill:#ffbb03; stroke:none;" d="M520 265L521 266L520 265M637 265L638 266L637 265z"/>
  <path style="fill:#8abc65; stroke:none;" d="M349 266L351 269L349 266M386 267L387 268L386 267z"/>
  <path style="fill:#ffbb03; stroke:none;" d="M519 267L520 268L519 267M638 267L639 268L638 267z"/>
  <path style="fill:#8abc65; stroke:none;" d="M385 268L384 271L385 268z"/>
  <path style="fill:#ffbb03; stroke:none;" d="M518 268L519 269L518 268z"/>
  <path style="fill:#8abc65; stroke:none;" d="M351.333 269.667L351.667 270.333L351.333 269.667z"/>
  <path style="fill:#ffbb03; stroke:none;" d="M639 269L640 270L639 269M517 270L518 271L517 270z"/>
  <path style="fill:#8abc65; stroke:none;" d="M352 271L354 274L352 271M383.333 271.667L383.667 272.333L383.333 271.667z"/>
  <path style="fill:#ffbb03; stroke:none;" d="M640 271L641 272L640 271M516 272L517 273L516 272z"/>
  <path style="fill:#8abc65; stroke:none;" d="M382.333 273.667L382.667 274.333L382.333 273.667z"/>
  <path style="fill:#ffbb03; stroke:none;" d="M641 273L642 274L641 273z"/>
  <path style="fill:#8abc65; stroke:none;" d="M354 274L356 279L357 279L354 274z"/>
  <path style="fill:#ffbb03; stroke:none;" d="M515 274L516 275L515 274z"/>
  <path style="fill:#8abc65; stroke:none;" d="M381 275L382 276L381 275z"/>
  <path style="fill:#ffbb03; stroke:none;" d="M642 275L643 276L642 275z"/>
  <path style="fill:#8abc65; stroke:none;" d="M380 276L379 279L380 276z"/>
  <path style="fill:#ffbb03; stroke:none;" d="M514 276L515 277L514 276M643.333 277.667L643.667 278.333L643.333 277.667M513 278L514 279L513 278z"/>
  <path style="fill:#8abc65; stroke:none;" d="M357 279L359 284L360 284L357 279M378.333 279.667L378.667 280.333L378.333 279.667z"/>
  <path style="fill:#ffbb03; stroke:none;" d="M512 280L513 281L512 280M644 280L645 281L644 280z"/>
  <path style="fill:#8abc65; stroke:none;" d="M377 282L378 283L377 282z"/>
  <path style="fill:#ffbb03; stroke:none;" d="M511 282L512 283L511 282M645.333 282.667L645.667 283.333L645.333 282.667z"/>
  <path style="fill:#8abc65; stroke:none;" d="M376.333 283.667L376.667 284.333L376.333 283.667z"/>
  <path style="fill:#ffbb03; stroke:none;" d="M510 284L511 285L510 284z"/>
  <path style="fill:#8abc65; stroke:none;" d="M360 285L361 286L360 285M375 285L376 286L375 285M361.333 286.667L361.667 287.333L361.333 286.667z"/>
  <path style="fill:#ffbb03; stroke:none;" d="M509 286L510 287L509 286M646.333 286.667L646.667 287.333L646.333 286.667z"/>
  <path style="fill:#8abc65; stroke:none;" d="M374 287L375 288L374 287M362.333 288.667L362.667 289.333L362.333 288.667M373.333 288.667L373.667 289.333L373.333 288.667z"/>
  <path style="fill:#ffbb03; stroke:none;" d="M508 289L509 290L508 289z"/>
  <path style="fill:#8abc65; stroke:none;" d="M363 290L364 291L363 290M372 290L373 291L372 290z"/>
  <path style="fill:#ffbb03; stroke:none;" d="M647.333 290.667L647.667 291.333L647.333 290.667M677 290L677 295L678 295L677 290z"/>
  <path style="fill:#8abc65; stroke:none;" d="M364 291L365 295L366 295L364 291z"/>
  <path style="fill:#ffbb03; stroke:none;" d="M507.333 291.667L507.667 292.333L507.333 291.667z"/>
  <path style="fill:#8abc65; stroke:none;" d="M371 292L372 293L371 292M370.333 293.667L370.667 294.333L370.333 293.667z"/>
  <path style="fill:#ffbb03; stroke:none;" d="M506 294L507 295L506 294z"/>
  <path style="fill:#8abc65; stroke:none;" d="M366.333 295.667L366.667 296.333L366.333 295.667z"/>
  <path style="fill:#ffbb03; stroke:none;" d="M648 295L648 298L649 298L648 295z"/>
  <path style="fill:#8abc65; stroke:none;" d="M369 296L370 297L369 296z"/>
  <path style="fill:#ffbb03; stroke:none;" d="M505.333 296.667L505.667 297.333L505.333 296.667z"/>
  <path style="fill:#8abc65; stroke:none;" d="M367 297L367 299L369 299L369 297L367 297z"/>
  <path style="fill:#ffbb03; stroke:none;" d="M504.333 299.667L504.667 300.333L504.333 299.667M676 299L676 302L677 302L676 299M503.333 302.667L503.667 303.333L503.333 302.667M649 302L649 320L650 320L649 302M675 304L675 307L676 307L675 304M502.333 305.667L502.667 306.333L502.333 305.667M501.333 308.667L501.667 309.333L501.333 308.667M674.333 309.667L674.667 310.333L674.333 309.667M500 312L501 313L500 312M673 313L674 314L673 313M499.333 315.667L499.667 316.333L499.333 315.667M672 316L673 317L672 316M498.333 318.667L498.667 319.333L498.333 318.667M671.333 319.667L671.667 320.333L671.333 319.667M497.333 322.667L497.667 323.333L497.333 322.667M670 322L671 323L670 322M648 324L648 328L649 328L648 324M669.333 324.667L669.667 325.333L669.333 324.667M496.333 326.667L496.667 327.333L496.333 326.667M668 327L669 328L668 327M667 329L668 330L667 329M495.333 330.667L495.667 331.333L495.333 330.667M647 331L648 332L647 331M666 331L667 332L666 331M665 333L666 334L665 333M494.333 335.667L494.667 336.333L494.333 335.667M646.333 335.667L646.667 336.333L646.333 335.667M664 335L665 336L664 335M663 337L664 338L663 337M645.333 338.667L645.667 339.333L645.333 338.667M493 339L493 342L494 342L493 339M662 339L663 340L662 339M661 341L662 342L661 341M644 342L645 343L644 342M660 342L661 343L660 342M492 343L492 347L493 347L492 343M643.333 344.667L643.667 345.333L643.333 344.667M659 344L660 345L659 344M658 345L659 346L658 345M642 347L643 348L642 347M657 347L658 348L657 347M656 348L657 349L656 348M641.333 349.667L641.667 350.333L641.333 349.667M491.333 350.667L491.667 351.333L491.333 350.667M655 350L656 351L655 350M621 351L621 352L631 352L621 351M654 351L655 352L654 351M616.667 352.333L617.333 352.667L616.667 352.333M633.667 352.333L634.333 352.667L633.667 352.333M640 352L641 353L640 352M653 352L654 353L653 352M614 353L615 354L614 353M636.667 353.333L637.333 353.667L636.667 353.333M639 353L640 354L639 353M612 354L613 355L612 354M490 355L490 358L491 358L490 355M610 355L611 356L610 355M651 355L652 356L651 355M608 356L609 357L608 356M650 356L651 357L650 356M607 357L608 358L607 357M649 357L650 358L649 357M648 358L649 359L648 358M113 359L113 360L117 360L113 359z"/>
  <path style="fill:#e33e3e; stroke:none;" d="M117 359.432C79.4992 364.373 84.3885 422.672 122 418.696C160.545 414.621 155.28 354.389 117 359.432z"/>
  <path style="fill:#ffbb03; stroke:none;" d="M123 359L123 360L127 360L123 359M605 359L606 360L605 359M110 360L111 361L110 360M129 360L130 361L129 360M489 360L489 364L490 364L489 360M647 360L648 361L647 360M107 361L108 362L107 361M131 361L132 362L131 361M105.667 362.333L106.333 362.667L105.667 362.333M133 362L134 363L133 362M602 362L603 363L602 362M104 363L105 364L104 363M135 363L136 364L135 363M601 363L602 364L601 363M650 364L651 365L650 364M138 365L139 366L138 365M139 366L140 367L139 366M599 366L600 367L599 366M651 366L652 367L651 366M140 367L141 368L140 367M652 367L653 368L652 367M141 368L142 369L141 368M488 368L488 371L489 371L488 368M598 368L599 369L598 368M142 369L143 370L142 369M615.151 370.028C608.923 373.668 614.537 383.215 620.772 379.781C627.267 376.203 621.949 366.054 615.151 370.028M143 370L144 371L143 370M653 370L654 371L653 370M597 371L598 372L597 371M654.333 372.667L654.667 373.333L654.333 372.667M94 373L95 374L94 373M145 373L146 374L145 373M93 374L94 375L93 374M596.333 374.667L596.667 375.333L596.333 374.667M146 375L147 376L146 375M487 375L487 379L488 379L487 375M92 376L93 377L92 376M111.043 376.681C103.311 378.134 106.667 389.862 113.907 387.917C121.188 385.962 118.18 375.341 111.043 376.681M147 377L148 378L147 377M655 377L655 386L656 386L655 377M91.3333 379.667L91.6667 380.333L91.3333 379.667M148 380L149 381L148 380M90 382L90 385L91 385L90 382M486 383L486 388L487 388L486 383M149 384L149 394L150 394L149 384M596 386L596 389L597 389L596 386M654.333 388.667L654.667 389.333L654.333 388.667M597 390L598 391L597 390M653 391L654 392L653 391M90.3333 393.667L90.6667 394.333L90.3333 393.667M485 393L485 402L486 402L485 393M598 393L599 394L598 393M652 394L653 395L652 394M599 395L600 396L599 395M148.333 396.667L148.667 397.333L148.333 396.667M651 396L652 397L651 396M91.3333 397.667L91.6667 398.333L91.3333 397.667M600 397L601 398L600 397M650 397L651 398L650 397M601 398L602 399L601 398M649 399L650 400L649 399M92 400L93 401L92 400M147 400L148 401L147 400M648 400L649 401L648 400M647 401L648 402L647 401M93 402L94 403L93 402M146 402L147 403L146 402M646 402L647 403L646 402M605 403L606 404L605 403M645 403L646 404L645 403M94 404L95 405L94 404M145 404L146 405L145 404M644 404L645 405L644 404M608 405L609 406L608 405M95 406L96 407L95 406M609 406L610 407L609 406M641 406L642 407L641 406M96 407L97 408L96 407M143 407L144 408L143 407M611 407L612 408L611 407M639 407L640 408L639 407M97 408L98 409L97 408M142 408L143 409L142 408M613 408L614 409L613 408M637 408L638 409L637 408M98 409L99 410L98 409M141 409L142 410L141 409M615.667 409.333L616.333 409.667L615.667 409.333M634.667 409.333L635.333 409.667L634.667 409.333M99 410L100 411L99 410M140 410L141 411L140 410M619.667 410.333L620.333 410.667L619.667 410.333M630 410L630 411L633 411L630 410M100 411L101 412L100 411M139 411L140 412L139 411M101 412L102 413L101 412M138 412L139 413L138 412M104 414L105 415L104 414M135 414L136 415L135 414M106 415L107 416L106 415M133 415L134 416L133 415M108 416L109 417L108 416M131 416L132 417L131 416M111 417L112 418L111 417M128 417L129 418L128 417M484 417L484 427L485 427L484 417M114 418L114 419L117 419L114 418M123 418L123 419L126 419L123 418M483 439L483 453L484 453L483 439M342 459L342 460L396 460L378 459L342 459M323 460L323 461L337 461L323 460M399 460L399 461L402 461L399 460z"/>
  <path style="fill:#8abc65; stroke:none;" d="M305.667 461.333L306.333 461.667L305.667 461.333z"/>
  <path style="fill:#ffbb03; stroke:none;" d="M307 461L307 462L310 462L307 461M425 461L425 462L428 462L425 461z"/>
  <path style="fill:#8abc65; stroke:none;" d="M428 461L429 462L428 461z"/>
  <path style="fill:#ffbb03; stroke:none;" d="M293 462L293 463L299 463L293 462M433 462L433 463L437 463L433 462M282 463L282 464L286 464L282 463M441 463L441 464L444 464L441 463M271 464L271 465L275 465L271 464M449.667 464.333L450.333 464.667L449.667 464.333M264 465L264 466L267 466L264 465M454.667 465.333L455.333 465.667L454.667 465.333z"/>
  <path style="fill:#8abc65; stroke:none;" d="M250 466L251 467L250 466z"/>
  <path style="fill:#ffbb03; stroke:none;" d="M254 466L254 467L258 467L254 466M459 466L459 467L462 467L459 466M465.667 467.333L466.333 467.667L465.667 467.333M469 468L470 469L469 468M482 468L482 472L483 472L482 468M473.667 469.333L474.333 469.667L473.667 469.333M477 470L478 471L477 470M480 471L481 472L480 471z"/>
</svg>