<?xml version="1.0" encoding="iso-8859-1"?>
<!-- Generator: Adobe Illustrator 19.0.0, SVG Export Plug-In . SVG Version: 6.00 Build 0)  -->
<svg version="1.1" id="Layer_1" xmlns="http://www.w3.org/2000/svg" xmlns:xlink="http://www.w3.org/1999/xlink" x="0px" y="0px"
	 viewBox="0 0 475 475" style="enable-background:new 0 0 475 475;" xml:space="preserve">
<g>
	<path style="fill:#00479B;" d="M87.232,196.604V22.139C39.055,22.139,0,61.195,0,109.372C0,157.549,39.055,196.604,87.232,196.604z
		"/>
	<path style="fill:#003068;" d="M87.232,196.604c28.605,0,53.994-13.768,69.902-35.04c10.884-14.554,17.33-32.621,17.33-52.193
		s-6.446-37.638-17.33-52.192c-15.908-21.271-41.297-35.04-69.902-35.04V196.604z"/>
	<path style="fill:#00479B;" d="M261.697,22.139c9.033,0,17.746,1.373,25.94,3.922C279.443,23.512,270.73,22.139,261.697,22.139z"/>
	<path style="fill:#00479B;" d="M261.697,196.604c9.033,0,17.746-1.373,25.94-3.922C279.443,195.231,270.73,196.604,261.697,196.604
		z"/>
	<path style="fill:#00479B;" d="M261.697,196.604V22.139c-48.177,0-87.232,39.055-87.232,87.232
		C174.465,157.549,213.52,196.604,261.697,196.604z"/>
	<path style="fill:#00479B;" d="M287.637,26.061c4.097,1.274,8.065,2.843,11.878,4.68C295.702,28.904,291.734,27.336,287.637,26.061
		z"/>
	<path style="fill:#00479B;" d="M299.516,188.002c-3.813,1.838-7.781,3.406-11.878,4.68
		C291.734,191.408,295.702,189.839,299.516,188.002z"/>
	<path style="fill:#003068;" d="M261.697,196.604c9.033,0,17.746-1.373,25.94-3.922c4.097-1.274,8.065-2.843,11.878-4.68
		c7.627-3.675,14.638-8.427,20.834-14.059c1.033-0.939,2.043-1.902,3.03-2.888s1.95-1.997,2.888-3.029
		c1.877-2.065,3.657-4.221,5.331-6.461c10.885-14.554,17.33-32.621,17.33-52.193s-6.446-37.638-17.33-52.192
		c-1.674-2.239-3.454-4.395-5.331-6.461c-0.939-1.033-1.902-2.043-2.888-3.03c-0.987-0.987-1.997-1.95-3.03-2.888
		c-6.197-5.632-13.207-10.384-20.834-14.059c-3.813-1.838-7.781-3.406-11.878-4.68c-8.195-2.549-16.907-3.922-25.94-3.922V196.604z"
		/>
	<polygon style="fill:#003068;" points="114.465,412.861 0,412.861 0,452.861 154.465,452.861 154.465,382.861 114.465,382.861 	"/>
	<polygon style="fill:#00479B;" points="431.813,175.023 334.298,223.089 334.298,356.376 431.813,404.442 475,404.442 475,175.023 
			"/>
	<rect x="14.631" y="196.604" style="fill:#2488FF;" width="159.833" height="186.257"/>
	<rect x="174.464" y="196.604" style="fill:#005ECE;" width="159.833" height="186.257"/>
</g>
<g>
</g>
<g>
</g>
<g>
</g>
<g>
</g>
<g>
</g>
<g>
</g>
<g>
</g>
<g>
</g>
<g>
</g>
<g>
</g>
<g>
</g>
<g>
</g>
<g>
</g>
<g>
</g>
<g>
</g>
</svg>
