<svg id="svg" version="1.1" xmlns="http://www.w3.org/2000/svg" xmlns:xlink="http://www.w3.org/1999/xlink" width="400" height="245.3238325486703" viewBox="0, 0, 400,245.3238325486703"><g id="svgg"><path id="path0" d="M245.417 29.168 C 239.955 29.997,235.814 33.440,231.892 40.417 C 231.273 41.517,230.603 42.642,230.402 42.917 C 230.201 43.192,229.774 43.982,229.453 44.673 C 228.195 47.382,226.900 50.258,226.341 51.583 C 226.264 51.767,226.090 52.179,225.954 52.500 C 225.702 53.097,224.605 56.062,223.920 58.000 C 223.709 58.596,223.296 59.871,223.002 60.833 C 222.708 61.796,222.405 62.771,222.329 63.000 C 222.196 63.403,221.651 65.308,221.328 66.500 C 220.944 67.918,220.344 70.382,220.010 71.917 C 219.811 72.833,219.578 73.883,219.494 74.250 C 219.409 74.617,219.256 75.367,219.153 75.917 C 219.050 76.467,218.896 77.292,218.809 77.750 C 218.325 80.312,217.793 84.044,217.503 86.917 C 217.411 87.833,217.262 89.296,217.173 90.167 C 216.460 97.139,216.666 107.124,217.695 115.417 C 217.888 116.975,218.066 118.662,218.090 119.167 C 218.140 120.207,218.389 121.837,218.777 123.667 C 218.923 124.354,219.141 125.404,219.263 126.000 C 219.814 128.709,220.013 129.545,220.669 131.917 C 220.746 132.192,220.891 132.717,220.992 133.083 C 221.094 133.450,221.294 134.162,221.437 134.667 C 221.738 135.727,223.446 140.922,223.656 141.417 C 223.734 141.600,223.928 142.125,224.088 142.583 C 224.247 143.042,224.442 143.488,224.522 143.575 C 224.602 143.662,224.667 143.835,224.667 143.959 C 224.667 144.083,224.821 144.537,225.009 144.967 C 225.440 145.953,225.495 146.078,226.339 148.000 C 227.648 150.984,227.588 150.858,229.804 155.250 C 229.943 155.525,230.522 156.575,231.091 157.583 C 231.661 158.592,232.275 159.679,232.455 160.000 C 233.472 161.805,237.520 168.103,237.811 168.333 C 237.869 168.379,238.215 168.792,238.581 169.250 C 241.048 172.347,245.080 175.983,247.917 177.669 C 248.283 177.887,248.621 178.107,248.667 178.158 C 248.913 178.430,253.969 181.000,254.258 181.000 C 254.318 181.000,254.603 181.103,254.891 181.230 C 255.871 181.658,256.951 182.005,259.083 182.574 C 264.715 184.078,272.868 184.009,279.500 182.401 C 281.224 181.982,281.765 181.833,283.083 181.411 C 283.450 181.294,284.200 181.067,284.750 180.906 C 285.300 180.746,285.821 180.551,285.908 180.474 C 285.995 180.397,286.167 180.333,286.289 180.333 C 287.386 180.333,296.555 176.032,300.355 173.734 C 300.871 173.422,301.378 173.167,301.480 173.167 C 301.583 173.167,301.667 173.092,301.667 173.000 C 301.667 172.908,301.779 172.833,301.917 172.833 C 302.054 172.833,302.167 172.758,302.167 172.667 C 302.167 172.575,302.274 172.500,302.405 172.500 C 302.536 172.500,302.742 172.402,302.863 172.282 C 302.984 172.163,303.196 172.012,303.333 171.947 C 303.471 171.883,303.786 171.699,304.034 171.540 C 304.282 171.380,304.957 170.953,305.534 170.591 C 306.111 170.228,306.658 169.867,306.750 169.789 C 306.842 169.711,307.554 169.206,308.333 168.667 C 309.112 168.128,309.825 167.625,309.917 167.549 C 310.008 167.473,310.833 166.855,311.750 166.176 C 312.667 165.496,313.454 164.897,313.500 164.845 C 313.546 164.793,314.371 164.117,315.333 163.343 C 319.217 160.220,323.604 156.102,327.506 151.915 C 330.962 148.206,336.528 141.028,340.169 135.583 C 341.027 134.300,341.781 133.212,341.845 133.167 C 342.045 133.023,344.000 129.852,344.000 129.671 C 344.000 129.577,344.075 129.500,344.167 129.500 C 344.258 129.500,344.333 129.405,344.333 129.289 C 344.333 129.172,344.515 128.810,344.737 128.484 C 344.958 128.158,345.360 127.484,345.630 126.987 C 345.900 126.490,346.463 125.464,346.883 124.708 C 347.692 123.247,350.887 116.818,351.500 115.417 C 351.701 114.958,352.053 114.171,352.283 113.667 C 352.513 113.162,352.765 112.600,352.842 112.417 C 352.919 112.233,353.124 111.746,353.298 111.333 C 353.472 110.921,353.713 110.321,353.833 110.000 C 353.954 109.679,354.183 109.117,354.343 108.750 C 355.448 106.217,359.149 95.725,359.674 93.639 C 362.329 83.080,361.468 74.860,357.232 70.331 C 355.874 68.879,352.742 66.848,351.833 66.830 C 351.696 66.827,351.021 66.637,350.333 66.409 C 346.459 65.119,342.815 64.762,334.167 64.823 C 316.602 64.947,310.926 64.918,309.333 64.696 C 304.308 63.994,302.759 63.678,300.138 62.819 C 299.618 62.649,298.980 62.472,298.721 62.426 C 296.961 62.114,290.883 59.202,286.583 56.611 C 280.410 52.890,279.430 52.071,270.403 43.083 C 263.919 36.629,263.111 35.869,261.000 34.248 C 260.404 33.791,259.879 33.374,259.833 33.322 C 257.584 30.776,249.731 28.513,245.417 29.168 M239.038 79.726 C 248.059 85.468,263.137 88.938,273.223 87.593 C 274.400 87.436,275.391 87.335,275.425 87.369 C 275.459 87.403,274.584 88.425,273.482 89.639 C 258.769 105.836,245.644 102.732,238.576 81.384 C 237.754 78.899,237.752 78.907,239.038 79.726 M303.978 101.228 C 312.250 108.976,322.464 114.961,331.638 117.434 C 332.532 117.675,332.342 117.853,329.836 119.122 C 318.198 125.014,308.698 124.964,303.859 118.983 C 300.937 115.372,299.673 110.322,299.672 102.250 C 299.671 96.565,299.579 96.801,301.151 98.443 C 301.847 99.170,303.119 100.424,303.978 101.228 M269.833 123.647 C 285.137 126.342,294.525 136.493,296.938 152.954 C 297.217 154.864,297.476 165.167,297.244 165.167 C 297.176 165.167,296.400 164.579,295.519 163.860 C 288.447 158.094,278.589 152.286,269.167 148.332 C 254.959 142.371,244.153 139.406,235.250 139.024 L 232.750 138.917 235.583 136.078 C 245.550 126.093,258.021 121.567,269.833 123.647 " stroke="none" fill="#04acf4" fill-rule="evenodd"></path><path id="path1" d="M238.000 79.405 C 238.000 80.245,240.142 85.826,241.436 88.357 C 248.290 101.762,258.032 103.600,269.427 93.638 C 271.271 92.026,275.579 87.523,275.425 87.369 C 275.391 87.335,274.400 87.436,273.223 87.593 C 263.137 88.938,248.059 85.468,239.038 79.726 C 238.041 79.091,238.000 79.078,238.000 79.405 M299.778 97.518 C 299.097 100.062,299.891 109.839,301.088 113.667 C 304.472 124.479,315.226 126.519,329.836 119.122 C 332.342 117.853,332.532 117.675,331.638 117.434 C 321.339 114.658,309.778 107.456,301.151 98.443 C 299.963 97.202,299.878 97.145,299.778 97.518 M207.162 101.061 C 207.114 101.109,206.403 101.232,205.582 101.333 C 204.086 101.519,201.677 102.088,201.477 102.302 C 201.418 102.365,201.246 102.867,201.094 103.417 C 197.110 117.855,189.224 132.864,181.524 140.664 L 179.464 142.750 179.832 143.833 C 180.034 144.429,180.349 145.254,180.532 145.667 C 181.592 148.060,182.524 150.024,182.667 150.167 C 182.713 150.212,182.938 150.622,183.167 151.078 C 183.851 152.436,187.452 158.291,187.835 158.667 C 187.882 158.712,188.137 159.087,188.403 159.500 C 188.887 160.252,192.641 165.343,192.827 165.500 C 192.881 165.546,193.184 165.921,193.500 166.333 C 193.816 166.746,194.114 167.121,194.162 167.167 C 194.211 167.212,194.719 167.825,195.292 168.528 C 196.108 169.529,200.477 173.949,207.061 180.436 C 208.441 181.795,210.988 184.575,212.758 186.653 C 217.681 192.433,218.932 197.116,216.746 201.582 C 215.001 205.147,210.074 206.870,205.000 205.690 C 204.496 205.573,203.596 205.363,203.000 205.224 C 200.685 204.684,199.297 204.212,196.167 202.897 C 193.065 201.595,185.874 197.683,185.333 197.004 C 185.287 196.946,184.950 196.720,184.583 196.502 C 184.217 196.284,183.721 195.950,183.482 195.761 C 183.242 195.572,182.877 195.304,182.669 195.167 C 182.462 195.029,182.208 194.842,182.105 194.750 C 182.001 194.658,181.279 194.096,180.500 193.501 C 178.646 192.086,178.166 191.679,175.875 189.584 C 174.725 188.532,172.027 185.735,170.917 184.444 C 170.248 183.666,168.790 181.773,168.329 181.083 C 168.023 180.625,167.725 180.213,167.667 180.167 C 167.498 180.032,165.585 176.801,165.324 176.208 C 164.983 175.434,164.798 175.529,164.340 176.708 C 163.985 177.625,163.461 178.878,162.999 179.917 C 162.918 180.100,162.689 180.662,162.492 181.167 C 162.056 182.278,161.967 182.490,161.435 183.693 C 161.206 184.212,160.666 185.524,160.236 186.610 C 159.805 187.695,159.401 188.658,159.338 188.750 C 159.275 188.842,159.089 189.292,158.924 189.750 C 158.759 190.208,158.526 190.808,158.407 191.083 C 156.781 194.817,156.810 194.521,157.924 196.012 C 160.908 200.008,167.630 206.602,170.750 208.595 C 171.309 208.952,171.378 209.003,172.083 209.588 C 172.358 209.816,172.715 210.044,172.875 210.096 C 173.035 210.147,173.167 210.242,173.167 210.306 C 173.167 210.371,173.504 210.608,173.917 210.833 C 174.329 211.059,174.667 211.301,174.667 211.372 C 174.667 211.442,174.768 211.500,174.891 211.500 C 175.014 211.500,175.323 211.678,175.576 211.897 C 175.830 212.115,176.348 212.454,176.727 212.650 C 177.106 212.846,177.792 213.229,178.250 213.502 C 179.003 213.950,184.106 216.507,184.917 216.843 C 185.100 216.919,185.663 217.163,186.167 217.386 C 187.016 217.761,190.467 218.956,192.417 219.550 C 193.728 219.950,196.667 220.634,197.583 220.752 C 198.042 220.812,198.642 220.925,198.917 221.005 C 201.946 221.882,211.820 221.586,215.417 220.510 C 215.692 220.428,216.179 220.311,216.500 220.249 C 225.318 218.564,232.455 212.097,234.609 203.843 C 235.169 201.696,235.203 195.847,234.667 193.835 C 234.581 193.513,234.389 192.725,234.240 192.083 C 233.570 189.194,231.659 184.609,230.280 182.579 C 230.034 182.218,229.833 181.828,229.833 181.711 C 229.833 181.595,229.758 181.500,229.667 181.500 C 229.575 181.500,229.500 181.429,229.500 181.342 C 229.500 181.079,227.372 178.029,226.250 176.684 C 225.414 175.681,223.290 173.289,222.717 172.704 C 220.599 170.545,212.966 162.678,212.640 162.321 C 212.426 162.084,211.600 161.184,210.805 160.321 C 209.233 158.613,208.943 158.285,208.026 157.188 C 207.691 156.787,207.244 156.262,207.032 156.021 C 206.821 155.780,205.864 154.533,204.906 153.250 C 203.948 151.967,203.106 150.842,203.036 150.750 C 202.778 150.414,200.833 147.212,200.833 147.124 C 200.833 147.073,200.589 146.594,200.291 146.058 C 195.222 136.960,196.835 127.594,204.500 121.612 C 207.037 119.632,212.518 118.720,217.311 119.481 L 218.205 119.623 218.117 118.936 C 217.346 112.951,217.091 109.939,216.898 104.550 C 216.801 101.854,216.741 101.330,216.517 101.225 C 216.213 101.083,207.296 100.926,207.162 101.061 M261.000 123.275 C 251.823 124.166,243.075 128.573,235.583 136.078 L 232.750 138.917 235.250 139.024 C 244.153 139.406,254.959 142.371,269.167 148.332 C 278.589 152.286,288.447 158.094,295.519 163.860 C 296.400 164.579,297.176 165.167,297.244 165.167 C 297.476 165.167,297.217 154.864,296.938 152.954 C 294.259 134.675,282.242 123.559,264.833 123.256 C 263.137 123.227,261.412 123.235,261.000 123.275 M341.252 133.959 C 339.260 137.127,334.811 143.193,331.932 146.667 C 330.036 148.954,330.086 148.711,331.458 148.968 C 332.077 149.083,333.033 149.282,333.583 149.410 C 334.133 149.537,335.333 149.807,336.250 150.010 C 339.580 150.748,344.804 152.181,347.250 153.029 C 359.446 157.255,362.113 162.059,355.173 167.301 C 354.482 167.823,353.879 168.292,353.833 168.344 C 353.449 168.779,346.968 172.240,345.150 172.981 C 343.987 173.456,336.678 177.107,334.750 178.177 C 331.389 180.042,331.140 180.185,329.333 181.294 C 311.557 192.208,304.086 203.946,307.777 215.161 C 308.597 217.652,310.777 221.697,312.200 223.366 C 312.411 223.613,312.771 224.063,313.000 224.366 C 314.602 226.486,319.185 230.582,322.500 232.856 C 324.963 234.545,331.502 238.167,332.089 238.167 C 332.150 238.167,332.436 238.276,332.725 238.409 C 335.268 239.581,341.559 241.627,345.500 242.564 C 349.940 243.620,350.911 243.818,353.833 244.263 C 363.710 245.764,375.530 245.386,382.750 243.337 C 383.117 243.233,383.698 243.077,384.042 242.990 C 384.804 242.797,387.623 241.881,388.083 241.677 C 388.267 241.595,388.998 241.295,389.709 241.009 C 390.811 240.566,392.560 239.710,394.375 238.724 C 394.633 238.584,394.875 238.281,394.930 238.030 C 394.983 237.784,395.093 237.396,395.173 237.167 C 395.254 236.938,395.516 235.963,395.757 235.000 C 395.997 234.037,396.256 233.025,396.334 232.750 C 396.411 232.475,396.698 231.387,396.973 230.333 C 397.466 228.437,398.129 225.941,398.609 224.167 C 398.950 222.909,399.280 221.576,399.498 220.583 C 399.598 220.125,399.752 219.620,399.840 219.461 C 399.928 219.301,400.000 218.905,400.000 218.579 L 400.000 217.987 398.769 218.897 C 394.830 221.811,389.476 224.497,384.750 225.931 C 384.017 226.154,383.192 226.405,382.917 226.489 C 374.600 229.041,361.050 229.342,351.583 227.185 C 351.217 227.102,350.542 226.956,350.083 226.862 C 348.672 226.571,345.269 225.654,345.088 225.515 C 344.994 225.443,344.322 225.140,343.595 224.841 C 342.868 224.543,342.156 224.238,342.012 224.165 C 341.868 224.091,341.000 223.669,340.083 223.227 C 339.167 222.785,338.379 222.384,338.333 222.337 C 338.287 222.289,337.912 222.071,337.500 221.852 C 334.015 220.002,330.985 217.428,329.231 214.830 C 327.602 212.415,326.770 209.163,327.222 206.977 C 328.057 202.938,331.423 198.996,337.638 194.781 C 338.676 194.076,339.595 193.500,339.679 193.500 C 339.764 193.500,339.833 193.433,339.833 193.351 C 339.833 193.270,340.021 193.156,340.250 193.098 C 340.479 193.041,340.667 192.920,340.667 192.830 C 340.667 192.740,340.743 192.667,340.837 192.667 C 340.930 192.667,341.305 192.478,341.669 192.248 C 342.034 192.018,342.764 191.597,343.291 191.312 C 343.818 191.028,344.631 190.583,345.097 190.325 C 346.223 189.699,350.037 187.790,351.083 187.328 C 354.381 185.869,359.102 183.510,362.583 181.581 C 364.845 180.327,368.422 178.016,370.007 176.783 C 370.148 176.673,370.748 176.208,371.340 175.750 C 374.311 173.449,378.500 168.830,378.500 167.853 C 378.500 167.751,378.557 167.667,378.626 167.667 C 378.695 167.667,378.855 167.423,378.980 167.125 C 379.106 166.827,379.315 166.358,379.446 166.083 C 380.627 163.596,380.607 159.265,379.401 156.558 C 379.272 156.269,379.167 155.987,379.167 155.930 C 379.167 154.987,375.245 150.294,372.835 148.353 C 372.423 148.021,371.899 147.581,371.670 147.375 C 371.441 147.169,371.202 147.000,371.139 147.000 C 371.075 147.000,370.909 146.885,370.769 146.745 C 370.420 146.397,367.838 144.667,367.666 144.667 C 367.590 144.667,367.503 144.606,367.472 144.533 C 367.334 144.200,364.085 142.399,360.167 140.482 C 356.188 138.536,356.027 138.462,354.250 137.750 C 353.425 137.419,352.432 137.003,352.043 136.824 C 351.655 136.646,351.291 136.500,351.235 136.500 C 351.179 136.500,350.897 136.397,350.609 136.272 C 349.848 135.941,346.598 134.746,345.333 134.331 C 344.738 134.136,344.100 133.913,343.917 133.836 C 343.592 133.700,341.906 133.166,341.802 133.167 C 341.773 133.167,341.526 133.523,341.252 133.959 " stroke="none" fill="#044c84" fill-rule="evenodd"></path><path id="path2" d="M180.167 3.581 C 177.635 4.073,176.204 4.458,175.461 4.848 C 175.301 4.932,175.100 5.000,175.014 5.000 C 174.701 5.000,171.224 6.656,169.167 7.784 C 167.068 8.936,160.291 13.164,160.000 13.504 C 159.954 13.557,159.617 13.781,159.250 14.000 C 158.883 14.219,158.546 14.442,158.500 14.494 C 158.184 14.856,147.152 22.000,146.909 22.000 C 146.864 22.000,146.279 22.333,145.608 22.740 C 144.486 23.422,140.481 25.442,139.191 25.978 C 135.735 27.413,131.611 28.451,127.185 29.002 C 126.416 29.097,125.735 29.208,125.672 29.247 C 124.963 29.685,111.863 29.614,109.250 29.158 C 108.700 29.062,107.837 28.915,107.333 28.831 C 105.843 28.582,102.802 28.005,102.083 27.834 C 101.231 27.632,98.578 27.005,95.500 26.278 C 91.706 25.383,90.008 25.017,88.763 24.827 C 88.129 24.730,87.562 24.622,87.505 24.586 C 87.447 24.550,86.166 24.437,84.658 24.335 C 78.639 23.926,74.538 24.814,70.694 27.360 C 69.510 28.144,67.167 30.340,67.167 30.665 C 67.167 30.745,67.049 30.927,66.906 31.070 C 64.405 33.571,63.307 41.333,64.322 49.333 C 64.409 50.021,64.597 51.521,64.740 52.667 C 65.106 55.611,65.693 59.317,66.000 60.625 C 66.092 61.015,66.240 61.652,66.329 62.042 C 66.894 64.503,67.701 67.813,67.823 68.167 C 67.901 68.396,68.089 69.033,68.240 69.583 C 69.683 74.855,72.228 81.967,74.503 87.083 C 74.666 87.450,75.046 88.313,75.348 89.000 C 75.649 89.688,75.982 90.362,76.089 90.500 C 76.195 90.638,77.108 92.362,78.117 94.333 C 80.069 98.145,81.776 101.172,83.669 104.182 C 84.309 105.200,84.833 106.070,84.833 106.116 C 84.833 106.204,87.256 109.918,87.518 110.232 C 87.603 110.333,88.138 111.054,88.707 111.833 C 89.911 113.481,89.839 113.385,90.540 114.260 C 90.839 114.632,91.308 115.226,91.583 115.579 C 92.771 117.104,94.955 119.654,97.000 121.904 C 98.446 123.495,102.601 127.598,104.334 129.147 C 105.296 130.006,106.346 130.946,106.667 131.235 C 106.987 131.523,107.586 132.020,107.997 132.338 C 108.408 132.656,108.865 133.029,109.014 133.167 C 109.743 133.843,114.563 137.460,115.583 138.097 C 115.858 138.269,116.121 138.451,116.167 138.502 C 116.258 138.605,120.083 141.123,121.431 141.968 C 121.898 142.261,122.366 142.500,122.473 142.500 C 122.579 142.500,122.667 142.575,122.667 142.667 C 122.667 142.758,122.741 142.833,122.831 142.833 C 122.921 142.833,123.352 143.051,123.789 143.317 C 125.330 144.256,126.796 145.027,131.250 147.241 C 136.634 149.918,138.333 150.583,143.000 151.840 C 147.499 153.052,157.050 153.318,160.831 152.338 C 161.153 152.254,161.979 152.061,162.667 151.908 C 167.503 150.831,173.204 147.950,177.825 144.250 C 178.574 143.650,182.651 139.504,183.929 138.042 C 189.948 131.157,196.593 117.933,200.593 104.881 C 200.992 103.578,201.425 102.303,201.555 102.048 C 201.685 101.792,202.027 100.608,202.315 99.417 C 202.603 98.225,202.910 96.987,202.997 96.667 C 203.085 96.346,203.242 95.671,203.347 95.167 C 203.451 94.662,203.605 93.950,203.688 93.583 C 203.929 92.520,204.320 90.374,204.570 88.750 C 204.697 87.925,204.846 87.063,204.902 86.833 C 204.957 86.604,205.079 85.779,205.172 85.000 C 205.266 84.221,205.417 83.058,205.506 82.417 C 206.525 75.107,206.599 59.906,205.661 50.500 C 205.473 48.621,205.246 46.146,205.156 45.000 C 205.066 43.854,204.959 42.804,204.917 42.667 C 204.875 42.529,204.725 41.629,204.584 40.667 C 204.339 38.999,203.993 36.962,203.679 35.333 C 203.599 34.921,203.450 34.133,203.347 33.583 C 203.244 33.033,203.091 32.283,203.006 31.917 C 202.922 31.550,202.694 30.500,202.501 29.583 C 202.168 28.000,202.048 27.492,201.670 26.042 C 201.581 25.698,201.347 24.742,201.151 23.917 C 200.746 22.214,200.305 20.772,199.943 19.967 C 199.807 19.664,199.495 18.892,199.248 18.250 C 195.124 7.514,188.023 2.055,180.167 3.581 M173.917 52.672 C 178.455 53.603,184.052 56.393,189.083 60.233 L 190.417 61.250 189.667 61.304 C 189.254 61.333,187.379 61.275,185.500 61.175 C 175.522 60.643,172.992 60.825,169.320 62.339 C 165.981 63.716,161.542 68.129,156.585 75.000 C 155.957 75.871,155.372 76.658,155.285 76.750 C 155.185 76.855,155.167 76.304,155.237 75.250 C 156.376 57.984,162.679 50.366,173.917 52.672 M113.229 65.169 C 117.930 66.354,122.372 70.472,126.617 77.583 C 127.715 79.422,129.196 82.193,129.121 82.268 C 129.095 82.294,128.138 81.787,126.995 81.141 C 113.523 73.522,109.111 73.126,98.500 78.583 C 93.746 81.028,90.999 82.361,90.835 82.303 C 90.634 82.232,92.481 78.992,93.956 76.829 C 100.227 67.628,106.920 63.579,113.229 65.169 M185.333 90.566 C 185.333 108.702,173.718 124.010,155.953 129.288 C 153.939 129.886,145.510 129.986,142.667 129.446 C 129.659 126.973,118.246 119.571,109.523 107.949 C 108.064 106.005,108.046 106.055,110.017 106.573 C 117.356 108.503,131.790 108.565,147.417 106.736 C 156.557 105.666,168.491 101.025,177.917 94.875 C 180.250 93.353,184.217 90.431,184.734 89.854 C 185.231 89.300,185.333 89.421,185.333 90.566 " stroke="none" fill="#fcd404" fill-rule="evenodd"></path><path id="path3" d="M275.917 0.091 C 275.825 0.126,274.925 0.270,273.917 0.409 C 270.967 0.818,270.062 0.990,267.250 1.670 C 266.883 1.758,265.721 2.063,264.667 2.346 C 261.445 3.212,256.416 4.972,253.750 6.166 C 253.567 6.248,253.042 6.478,252.583 6.677 C 245.299 9.837,234.174 16.772,228.404 21.750 C 228.191 21.933,227.775 22.271,227.479 22.500 C 227.183 22.729,226.830 23.029,226.693 23.167 C 226.557 23.304,226.244 23.567,225.999 23.750 C 225.614 24.038,224.365 25.114,222.846 26.466 C 219.726 29.245,213.432 35.605,210.679 38.762 C 210.364 39.122,209.839 39.717,209.512 40.084 C 209.185 40.452,208.579 41.155,208.167 41.648 C 207.754 42.141,207.340 42.628,207.247 42.730 C 207.153 42.833,206.778 43.291,206.413 43.748 C 206.048 44.206,205.612 44.731,205.442 44.915 C 205.186 45.195,205.152 45.415,205.239 46.250 C 206.170 55.154,206.393 59.547,206.301 67.208 C 206.263 70.394,206.248 73.000,206.268 73.000 C 206.288 73.000,206.960 71.969,207.762 70.708 C 209.064 68.659,210.000 67.248,210.382 66.754 C 210.455 66.660,211.068 65.796,211.746 64.833 C 212.423 63.871,213.041 63.008,213.118 62.917 C 213.196 62.825,213.705 62.150,214.250 61.417 C 214.795 60.683,215.282 60.046,215.332 60.000 C 215.382 59.954,216.133 59.017,217.000 57.917 C 217.867 56.817,218.623 55.879,218.680 55.833 C 218.737 55.788,219.250 55.188,219.821 54.500 C 222.112 51.739,224.972 48.581,228.033 45.432 C 230.028 43.379,230.434 42.863,231.261 41.333 C 235.450 33.583,239.900 29.782,245.616 29.073 C 246.391 28.977,246.765 28.814,247.500 28.255 C 249.729 26.559,256.066 22.500,256.483 22.500 C 256.569 22.500,256.664 22.441,256.694 22.368 C 256.750 22.235,260.304 20.452,262.361 19.524 C 263.865 18.847,267.632 17.588,269.167 17.251 C 269.854 17.100,270.754 16.889,271.167 16.782 C 272.451 16.449,277.850 16.525,279.333 16.897 C 285.696 18.494,287.140 22.720,284.609 32.333 C 284.136 34.133,281.206 42.179,280.089 44.750 C 279.805 45.403,278.220 49.649,278.095 50.093 C 277.977 50.509,278.292 50.817,280.583 52.533 C 285.509 56.221,292.242 59.975,297.444 61.933 C 298.836 62.457,298.866 62.446,298.082 61.694 C 293.733 57.521,293.198 51.973,296.189 42.083 C 296.466 41.167,296.756 40.267,296.834 40.083 C 296.911 39.900,297.099 39.375,297.252 38.917 C 297.405 38.458,297.598 37.953,297.681 37.794 C 297.765 37.635,297.836 37.410,297.839 37.294 C 297.842 37.178,297.990 36.783,298.167 36.417 C 298.344 36.050,298.491 35.655,298.494 35.539 C 298.497 35.424,298.567 35.199,298.650 35.039 C 298.732 34.880,298.928 34.412,299.086 34.000 C 299.244 33.587,299.431 33.100,299.501 32.917 C 300.140 31.254,301.541 27.351,301.834 26.417 C 302.036 25.775,302.261 25.100,302.336 24.917 C 302.411 24.733,302.546 24.283,302.637 23.917 C 302.729 23.550,302.915 22.837,303.051 22.333 C 304.257 17.873,304.234 13.415,302.991 10.710 C 302.813 10.322,302.667 9.956,302.667 9.899 C 302.667 9.744,301.480 7.818,301.088 7.335 C 298.055 3.604,292.890 1.180,286.007 0.256 C 284.274 0.024,276.423 -0.105,275.917 0.091 M353.494 33.597 C 353.314 34.017,353.164 34.411,353.161 34.472 C 353.158 34.533,353.010 34.883,352.833 35.250 C 352.656 35.617,352.509 35.969,352.506 36.032 C 352.503 36.095,352.073 37.033,351.551 38.115 C 350.735 39.808,350.101 40.981,348.486 43.789 C 343.815 51.906,335.329 60.174,327.667 64.073 C 326.979 64.423,326.400 64.722,326.380 64.739 C 326.360 64.755,329.922 64.766,334.297 64.763 C 343.734 64.756,346.204 65.006,350.654 66.420 L 352.058 66.866 353.654 65.221 C 354.532 64.316,355.850 62.904,356.583 62.083 C 357.317 61.262,358.155 60.327,358.445 60.004 C 358.736 59.681,359.135 59.229,359.331 59.000 C 359.527 58.771,359.821 58.427,359.985 58.236 C 362.035 55.847,363.667 53.332,363.667 52.560 C 363.667 52.266,357.137 38.797,354.447 33.542 C 353.990 32.651,353.897 32.656,353.494 33.597 M168.532 52.337 C 161.279 53.335,156.982 59.698,155.592 71.500 C 155.238 74.507,155.095 76.950,155.285 76.750 C 155.372 76.658,155.957 75.871,156.585 75.000 C 161.542 68.129,165.981 63.716,169.320 62.339 C 172.992 60.825,175.522 60.643,185.500 61.175 C 187.379 61.275,189.254 61.333,189.667 61.304 L 190.417 61.250 189.083 60.233 C 181.819 54.689,173.808 51.612,168.532 52.337 M108.167 65.071 C 103.290 66.155,98.569 70.061,93.956 76.829 C 92.481 78.992,90.634 82.232,90.835 82.303 C 90.999 82.361,93.746 81.028,98.500 78.583 C 109.111 73.126,113.523 73.522,126.995 81.141 C 128.138 81.787,129.095 82.294,129.121 82.268 C 129.283 82.106,126.212 76.768,124.699 74.583 C 119.552 67.146,113.778 63.824,108.167 65.071 M184.734 89.854 C 184.217 90.431,180.250 93.353,177.917 94.875 C 168.491 101.025,156.557 105.666,147.417 106.736 C 131.790 108.565,117.356 108.503,110.017 106.573 C 108.046 106.055,108.064 106.005,109.523 107.949 C 118.246 119.571,129.659 126.973,142.667 129.446 C 145.510 129.986,153.939 129.886,155.953 129.288 C 172.995 124.225,183.336 111.504,185.160 93.357 C 185.499 89.988,185.393 89.119,184.734 89.854 M75.000 90.842 C 74.679 90.917,73.892 91.092,73.250 91.231 C 72.608 91.369,71.821 91.565,71.500 91.664 C 71.179 91.764,70.429 91.959,69.833 92.098 C 67.118 92.732,63.237 93.776,62.167 94.159 C 61.938 94.241,61.188 94.471,60.500 94.670 C 59.136 95.065,52.667 97.204,51.895 97.515 C 51.072 97.847,50.797 97.950,49.000 98.596 C 48.038 98.942,46.837 99.405,46.333 99.625 C 44.893 100.253,44.459 100.434,43.833 100.667 C 43.512 100.786,42.776 101.097,42.197 101.359 C 41.617 101.620,41.113 101.833,41.076 101.833 C 40.841 101.833,30.654 106.831,29.417 107.553 C 29.050 107.767,28.337 108.169,27.833 108.447 C 23.906 110.607,18.964 113.753,17.567 114.982 C 13.056 118.953,10.740 121.275,8.075 124.500 C 6.917 125.901,4.667 128.916,4.667 129.066 C 4.667 129.108,4.378 129.580,4.025 130.113 C 3.396 131.064,1.968 133.862,1.528 135.006 C 1.405 135.323,1.242 135.733,1.165 135.917 C -0.298 139.379,-0.442 144.761,0.833 148.265 C 1.276 149.481,2.538 151.744,3.010 152.167 C 3.061 152.212,3.215 152.414,3.352 152.615 C 3.489 152.816,4.122 153.555,4.759 154.257 C 5.735 155.334,6.366 155.912,8.104 157.322 C 8.494 157.638,11.457 159.297,11.845 159.416 C 12.068 159.485,12.325 159.594,12.417 159.660 C 12.508 159.725,13.071 159.949,13.667 160.156 C 14.262 160.363,14.900 160.590,15.083 160.660 C 18.732 162.053,25.816 162.855,31.417 162.507 C 36.218 162.210,40.967 161.623,43.625 161.000 C 44.944 160.690,45.746 160.506,47.250 160.167 C 50.387 159.460,52.411 158.872,56.417 157.506 C 60.114 156.244,65.129 154.817,67.583 154.328 C 78.697 152.112,86.037 152.147,92.828 154.446 C 94.626 155.055,97.570 156.628,98.466 157.458 C 98.589 157.573,98.746 157.667,98.814 157.667 C 99.383 157.667,102.692 161.567,103.410 163.084 C 104.490 165.367,104.315 170.682,103.070 173.442 C 102.940 173.731,102.833 174.072,102.833 174.200 C 102.833 174.328,102.769 174.505,102.691 174.592 C 102.612 174.679,102.191 175.425,101.755 176.250 C 101.319 177.075,100.910 177.787,100.847 177.833 C 100.784 177.879,100.573 178.179,100.377 178.500 C 100.182 178.821,99.883 179.233,99.714 179.417 C 99.544 179.600,99.276 179.935,99.119 180.162 C 98.707 180.756,95.384 184.103,94.500 184.813 C 94.087 185.145,93.712 185.457,93.667 185.506 C 92.503 186.749,86.134 190.684,82.178 192.603 C 80.568 193.384,79.130 194.087,78.984 194.164 C 78.837 194.241,78.050 194.578,77.234 194.911 C 76.418 195.245,75.525 195.620,75.250 195.745 C 74.975 195.871,73.700 196.361,72.417 196.834 C 71.133 197.307,69.594 197.876,68.996 198.097 C 68.399 198.319,67.817 198.500,67.705 198.500 C 67.279 198.500,67.526 198.934,68.209 199.385 C 68.801 199.777,69.845 200.547,70.591 201.144 C 70.687 201.220,71.962 202.167,73.424 203.248 C 75.793 204.998,77.597 206.339,78.083 206.712 C 78.175 206.782,78.475 207.026,78.750 207.253 C 79.025 207.480,79.295 207.666,79.349 207.666 C 79.404 207.667,79.666 207.856,79.932 208.086 C 80.199 208.317,80.717 208.711,81.083 208.961 C 81.450 209.211,81.787 209.457,81.833 209.507 C 81.879 209.557,82.554 210.062,83.333 210.629 C 84.112 211.197,84.841 211.737,84.951 211.830 C 85.256 212.087,85.591 212.038,86.459 211.611 C 87.542 211.079,89.453 210.032,90.205 209.558 C 90.547 209.343,90.903 209.167,90.997 209.167 C 91.090 209.167,91.167 209.110,91.167 209.041 C 91.167 208.971,91.373 208.821,91.625 208.708 C 92.000 208.538,95.224 206.500,96.167 205.836 C 96.676 205.477,98.611 204.142,99.480 203.550 C 104.834 199.901,111.868 193.161,115.624 188.079 C 118.372 184.362,120.731 179.515,121.665 175.667 C 121.743 175.346,121.886 174.782,121.982 174.415 C 124.647 164.211,117.868 150.091,106.953 143.113 C 99.054 138.064,86.678 136.438,73.000 138.654 C 67.580 139.532,63.566 140.297,60.667 141.006 C 60.346 141.084,59.558 141.262,58.917 141.402 C 58.275 141.542,56.550 141.963,55.083 142.339 C 53.617 142.714,51.929 143.128,51.333 143.259 C 50.737 143.389,49.762 143.610,49.167 143.749 C 48.571 143.889,47.521 144.115,46.833 144.251 C 46.146 144.388,45.246 144.576,44.833 144.668 C 41.396 145.442,36.171 146.104,32.250 146.262 C 15.757 146.928,13.058 137.608,26.833 127.557 C 31.702 124.005,40.504 119.023,45.917 116.757 C 46.283 116.603,46.733 116.410,46.917 116.327 C 48.385 115.662,54.685 113.451,57.333 112.671 C 58.021 112.468,58.996 112.164,59.500 111.996 C 60.681 111.601,65.303 110.355,68.083 109.682 C 69.275 109.394,70.512 109.089,70.833 109.004 C 71.154 108.919,72.167 108.692,73.083 108.499 C 75.138 108.066,75.872 107.906,76.833 107.682 C 78.124 107.381,81.593 106.748,83.458 106.475 C 85.110 106.232,85.093 106.446,83.643 104.142 C 81.808 101.226,79.693 97.463,77.890 93.906 C 76.124 90.423,76.244 90.550,75.000 90.842 " stroke="none" fill="#ec0444" fill-rule="evenodd"></path><path id="path4" d="M236.575 33.708 L 235.917 34.417 236.625 33.758 C 237.015 33.395,237.333 33.077,237.333 33.050 C 237.333 32.923,237.188 33.050,236.575 33.708 M330.955 64.787 C 331.250 64.824,331.775 64.824,332.121 64.788 C 332.467 64.752,332.225 64.722,331.583 64.721 C 330.942 64.721,330.659 64.750,330.955 64.787 M338.877 64.786 C 339.131 64.825,339.506 64.824,339.711 64.784 C 339.916 64.744,339.708 64.713,339.250 64.714 C 338.792 64.716,338.624 64.748,338.877 64.786 " stroke="none" fill="#b8709c" fill-rule="evenodd"></path></g></svg>