<?xml version="1.0" encoding="utf-8"?>
<svg width="614" height="519" xmlns="http://www.w3.org/2000/svg">
  <path style="fill:#fea844; stroke:none;" d="M514.667 13.3333L515.333 13.6667L514.667 13.3333z"/>
  <path style="fill:#07a789; stroke:none;" d="M516 13L517 14L516 13z"/>
  <path style="fill:#025cae; stroke:none;" d="M313 129C312.151 170.137 306.492 212.249 300.715 253C298.498 268.635 293.279 284.337 292 300C301.248 296.15 316.171 290.045 322.142 281.675C325.458 277.026 325.354 268.52 326.13 263C328.038 249.432 329.724 235.299 333 222L334 222L334 274C342.322 269.846 347.549 274.876 345.471 284C343.595 292.234 335.913 298.041 334.279 306C330.758 323.147 333.413 342.546 332.985 360C332.259 389.655 330.713 419.323 329.985 449C329.688 461.151 326.995 473.869 328.17 486C328.646 490.914 329.346 496.9 334.105 499.543C350.724 508.773 361.523 484.681 365.33 473C377.309 436.25 375.57 395.01 380.576 357C381.883 347.072 382.078 336.969 383.166 327C383.515 323.797 383.834 317.699 388.039 317.176C392.536 316.616 393.665 322.833 394.335 326C396.56 336.519 397.03 347.383 398.424 358C402.65 390.164 403.229 423.609 404 456C404.235 465.864 405.012 486.518 415.043 491.821C421.599 495.287 427.925 490.085 431.557 484.985C439.254 474.179 441.497 458.894 442.95 446C447.502 405.589 442.196 365.415 442.001 325C441.941 312.617 441 300.384 441 288C441 282.962 442.523 274.92 440.397 270.275C438.042 265.131 425.839 262.812 421 260.398C411.447 255.633 393.106 246.092 389.984 234.91C389.008 231.414 391.22 227.622 391 224L398.733 219.103L413 224.884L440 235C440 212.04 436.635 183.913 444.439 162C457.283 125.938 491.594 102.909 512.329 72C519.97 60.6101 543.114 26.5424 524.895 15.0895C518.459 11.0438 510.43 14.9621 505 18.9275C491.924 28.4763 482.654 45.5493 472.385 58C445.109 91.0699 412.695 116.961 370 125.551C351.06 129.362 332.216 129 313 129z"/>
  <path style="fill:#07a789; stroke:none;" d="M521 13L522 14L521 13z"/>
  <path style="fill:#fea844; stroke:none;" d="M522 13L523 14L522 13z"/>
  <path style="fill:#07a789; stroke:none;" d="M512 14L513 15L512 14z"/>
  <path style="fill:#fea844; stroke:none;" d="M524 14L525 15L524 14z"/>
  <path style="fill:#07a789; stroke:none;" d="M510 15L511 16L510 15z"/>
  <path style="fill:#fea844; stroke:none;" d="M359 16L359 17L368 17L359 16M508 16L509 17L508 16z"/>
  <path style="fill:#07a789; stroke:none;" d="M355 17L356 18L355 17z"/>
  <path style="fill:#025cae; stroke:none;" d="M356 17.4676C306.271 26.7853 309.61 120.651 365 110.576C382.856 107.328 399.423 96.064 404.791 78C413.944 47.1951 390.251 11.05 356 17.4676z"/>
  <path style="fill:#07a789; stroke:none;" d="M372 17L373 18L372 17M351 18L352 19L351 18z"/>
  <path style="fill:#fea844; stroke:none;" d="M376 18L377 19L376 18M505 18L506 19L505 18M528 18L529 19L528 18M348 19L349 20L348 19z"/>
  <path style="fill:#07a789; stroke:none;" d="M349 19L350 20L349 19M378 19L379 20L378 19z"/>
  <path style="fill:#fea844; stroke:none;" d="M379 19L380 20L379 19z"/>
  <path style="fill:#07a789; stroke:none;" d="M504 19L505 20L504 19z"/>
  <path style="fill:#fea844; stroke:none;" d="M346 20L347 21L346 20M381 20L382 21L381 20z"/>
  <path style="fill:#07a789; stroke:none;" d="M529 20L530 21L529 20z"/>
  <path style="fill:#fea844; stroke:none;" d="M344 21L345 22L344 21z"/>
  <path style="fill:#07a789; stroke:none;" d="M343 22L344 23L343 22M384 22L385 23L384 22z"/>
  <path style="fill:#fea844; stroke:none;" d="M500 22L501 23L500 22z"/>
  <path style="fill:#07a789; stroke:none;" d="M530 22L531 23L530 22M341 23L342 24L341 23M386 23L387 24L386 23z"/>
  <path style="fill:#fea844; stroke:none;" d="M499 23L500 24L499 23M531 24L532 25L531 24M338 25L339 26L338 25M389 25L390 26L389 25z"/>
  <path style="fill:#07a789; stroke:none;" d="M531 25L531 28L532 28L531 25M337 26L338 27L337 26z"/>
  <path style="fill:#fea844; stroke:none;" d="M390 26L391 27L390 26z"/>
  <path style="fill:#07a789; stroke:none;" d="M336 27L337 28L336 27M391 27L392 28L391 27M496 27L497 28L496 27M335 28L336 29L335 28M392 28L393 29L392 28z"/>
  <path style="fill:#fea844; stroke:none;" d="M495 28L496 29L495 28z"/>
  <path style="fill:#07a789; stroke:none;" d="M334 29L335 30L334 29M393 29L394 30L393 29M531.333 29.6667L531.667 30.3333L531.333 29.6667M333 30L334 31L333 30M394 30L395 31L394 30M332 31L333 32L332 31z"/>
  <path style="fill:#fea844; stroke:none;" d="M395 31L396 32L395 31M493 31L494 32L493 31M531 31L532 32L531 31M331 32L332 33L331 32M396 32L397 33L396 32M492 32L493 33L492 32M28 33L28 34L32 34L28 33M25 34L26 35L25 34z"/>
  <path style="fill:#f76d4e; stroke:none;" d="M83 249C77.2325 252.478 74.3676 261.862 72.1798 268C65.9375 285.514 61.2454 304.4 59.9753 323C59.5748 328.865 56.5096 337.164 58.5648 342.816C61.6232 351.226 80.7484 353.537 80.338 362.04C79.9867 369.317 76.9018 376.686 76.1705 384C74.8188 397.519 75.8129 411.694 78.081 425C79.2884 432.083 81.9456 444.777 90.0031 447.199C100.575 450.377 102.049 423.28 103.424 417C105.887 405.754 107.155 394.193 109.745 383C110.37 380.298 110.341 373.604 113.318 372.407C118.051 370.503 128.805 376.3 134 377C131.965 402.787 132.568 428.27 141.079 453C143.204 459.176 149.626 476.609 158.867 473.214C165.903 470.628 163.936 456.713 164.004 451C164.265 429.051 165 407.024 165 385L191 385C189.842 370.332 187.566 355.657 186.17 341C185.413 333.052 186.499 323.908 184.721 316.174C183.183 309.48 175.649 305.028 173.804 298C171.946 290.92 176.251 286.371 183 286L183 205C188.175 210.951 188.217 225.214 189.155 233C191.656 253.763 199.195 274.331 201 295L237 306C236.718 292.408 223.078 284.436 221.478 270C220.512 261.276 227.523 254.18 227.277 246C226.607 223.702 217.161 199.215 210.798 178C208.766 171.227 206.439 153.153 200.487 149.032C197.424 146.911 191.505 148.954 188 148.996C178.377 149.111 169.452 147.754 160 146.076C138.133 142.194 117.051 130.375 100 116.54C82.3441 102.214 67.4596 84.8011 54.7454 66C48.7341 57.1108 44.0959 43.3048 35.8148 36.4337C29.3333 31.0557 20.706 36.037 16.7029 42.0038C9.42399 52.8536 18.7123 69.0782 23.7562 79C33.6154 98.3943 48.0982 116.469 62.1343 133C70.3108 142.63 81.319 152.803 87.1898 164.039C94.6184 178.257 91.1924 195.964 90.0903 211C89.5173 218.816 90.1909 227.347 88.4051 235C87.2391 239.997 83.7709 244.15 83 249z"/>
  <path style="fill:#fea844; stroke:none;" d="M33 34L34 35L33 34M23 35L24 36L23 35M35 35L36 36L35 35z"/>
  <path style="fill:#07a789; stroke:none;" d="M329 35L330 36L329 35M398 35L399 36L398 35M490 35L491 36L490 35z"/>
  <path style="fill:#fea844; stroke:none;" d="M530 35L531 36L530 35M21 36L22 37L21 36M36 36L37 37L36 36M328 36L329 37L328 36M489 36L490 37L489 36M20 37L21 38L20 37M37 37L38 38L37 37M19 38L20 39L19 38M327 38L328 39L327 38z"/>
  <path style="fill:#07a789; stroke:none;" d="M400 38L401 39L400 38z"/>
  <path style="fill:#fea844; stroke:none;" d="M529 38L530 39L529 38M18 39L19 40L18 39M38 39L39 40L38 39z"/>
  <path style="fill:#07a789; stroke:none;" d="M487 39L488 40L487 39z"/>
  <path style="fill:#fea844; stroke:none;" d="M17 40L18 41L17 40M39 40L40 41L39 40z"/>
  <path style="fill:#07a789; stroke:none;" d="M326 40L327 41L326 40M401 40L402 41L401 40z"/>
  <path style="fill:#fea844; stroke:none;" d="M486 40L487 41L486 40M16 41L17 42L16 41M485 41L486 42L485 41M528 41L529 42L528 41M40 42L41 43L40 42z"/>
  <path style="fill:#07a789; stroke:none;" d="M325 42L326 43L325 42M402 42L403 43L402 42z"/>
  <path style="fill:#fea844; stroke:none;" d="M15 43L16 44L15 43z"/>
  <path style="fill:#07a789; stroke:none;" d="M484 43L485 44L484 43z"/>
  <path style="fill:#fea844; stroke:none;" d="M41 44L42 45L41 44M324 44L325 45L324 44M403 44L404 45L403 44M483 44L484 45L483 44M527 44L528 45L527 44M14.3333 45.6667L14.6667 46.3333L14.3333 45.6667z"/>
  <path style="fill:#07a789; stroke:none;" d="M324 45L325 46L324 45M403 45L404 46L403 45z"/>
  <path style="fill:#fea844; stroke:none;" d="M482 45L483 46L482 45M526 46L527 47L526 46z"/>
  <path style="fill:#07a789; stroke:none;" d="M323 47L324 48L323 47M404 47L405 48L404 47M480 48L481 49L480 48M525 48L526 49L525 48z"/>
  <path style="fill:#fea844; stroke:none;" d="M44 49L45 50L44 49M156 49L156 50L167 50L156 49z"/>
  <path style="fill:#07a789; stroke:none;" d="M479 49L480 50L479 49z"/>
  <path style="fill:#fea844; stroke:none;" d="M150.667 50.3333L151.333 50.6667L150.667 50.3333z"/>
  <path style="fill:#f76d4e; stroke:none;" d="M152 50.5178C98.1767 62.0009 127.167 142.706 175 132.482C191.222 129.015 198.066 112.815 200.13 98C204.136 69.2498 182.046 44.1076 152 50.5178z"/>
  <path style="fill:#fea844; stroke:none;" d="M171 50L172 51L171 50z"/>
  <path style="fill:#07a789; stroke:none;" d="M322.333 50.6667L322.667 51.3333L322.333 50.6667z"/>
  <path style="fill:#fea844; stroke:none;" d="M405 50L406 51L405 50z"/>
  <path style="fill:#07a789; stroke:none;" d="M478 50L479 51L478 50M524 50L525 51L524 50z"/>
  <path style="fill:#fea844; stroke:none;" d="M45 51L46 52L45 51M147.667 51.3333L148.333 51.6667L147.667 51.3333M174.667 51.3333L175.333 51.6667L174.667 51.3333z"/>
  <path style="fill:#07a789; stroke:none;" d="M405 51L406 52L405 51z"/>
  <path style="fill:#fea844; stroke:none;" d="M145 52L146 53L145 52M177 52L178 53L177 52z"/>
  <path style="fill:#07a789; stroke:none;" d="M523 52L524 53L523 52z"/>
  <path style="fill:#fea844; stroke:none;" d="M143 53L144 54L143 53M179 53L180 54L179 53M14 54L14 57L15 57L14 54M47 54L48 55L47 54M141 54L142 55L141 54M181 54L182 55L181 54M321 54L322 55L321 54M406 54L407 55L406 54z"/>
  <path style="fill:#07a789; stroke:none;" d="M475 54L476 55L475 54M522 54L523 55L522 54z"/>
  <path style="fill:#fea844; stroke:none;" d="M182 55L183 56L182 55z"/>
  <path style="fill:#07a789; stroke:none;" d="M321 55L321 58L322 58L321 55M406 55L406 59L407 59L406 55M474 55L475 56L474 55z"/>
  <path style="fill:#fea844; stroke:none;" d="M48 56L49 57L48 56M138 56L139 57L138 56M184 56L185 57L184 56M473 56L474 57L473 56z"/>
  <path style="fill:#07a789; stroke:none;" d="M521 56L522 57L521 56z"/>
  <path style="fill:#fea844; stroke:none;" d="M49 57L50 58L49 57M137 57L138 58L137 57M185 57L186 58L185 57M472 57L473 58L472 57M135 58L136 59L135 58M520 58L521 59L520 58M15.3333 59.6667L15.6667 60.3333L15.3333 59.6667M50 59L51 60L50 59M134 59L135 60L134 59z"/>
  <path style="fill:#07a789; stroke:none;" d="M471 59L472 60L471 59z"/>
  <path style="fill:#fea844; stroke:none;" d="M133 60L134 61L133 60M189 60L190 61L189 60z"/>
  <path style="fill:#07a789; stroke:none;" d="M470 60L471 61L470 60z"/>
  <path style="fill:#fea844; stroke:none;" d="M519 60L520 61L519 60M132 61L133 62L132 61z"/>
  <path style="fill:#07a789; stroke:none;" d="M469 61L470 62L469 61z"/>
  <path style="fill:#fea844; stroke:none;" d="M16.3333 62.6667L16.6667 63.3333L16.3333 62.6667M52 62L53 63L52 62M131 62L132 63L131 62M191 62L192 63L191 62z"/>
  <path style="fill:#07a789; stroke:none;" d="M468 62L469 63L468 62z"/>
  <path style="fill:#fea844; stroke:none;" d="M518 62L519 63L518 62M130 63L131 64L130 63z"/>
  <path style="fill:#07a789; stroke:none;" d="M467 63L468 64L467 63M517 63L518 64L517 63z"/>
  <path style="fill:#fea844; stroke:none;" d="M53 64L54 65L53 64M192 64L193 65L192 64M466 64L467 65L466 64M17 65L18 66L17 65M54 65L55 66L54 65M129 65L130 66L129 65M193 65L194 66L193 65z"/>
  <path style="fill:#07a789; stroke:none;" d="M516 65L517 66L516 65z"/>
  <path style="fill:#fea844; stroke:none;" d="M128 66L129 67L128 66M194 66L195 67L194 66M55 67L56 68L55 67M515 67L516 68L515 67M18 68L19 69L18 68M56 68L57 69L56 68M127 68L128 69L127 68M195 68L196 69L195 68z"/>
  <path style="fill:#07a789; stroke:none;" d="M514 68L515 69L514 68z"/>
  <path style="fill:#fea844; stroke:none;" d="M126 69L127 70L126 69z"/>
  <path style="fill:#07a789; stroke:none;" d="M406 69L406 73L407 73L406 69M462 69L463 70L462 69z"/>
  <path style="fill:#fea844; stroke:none;" d="M19 70L20 71L19 70M196 70L197 71L196 70z"/>
  <path style="fill:#07a789; stroke:none;" d="M461 70L462 71L461 70z"/>
  <path style="fill:#fea844; stroke:none;" d="M513 70L514 71L513 70M58 71L59 72L58 71M125.333 71.6667L125.667 72.3333L125.333 71.6667z"/>
  <path style="fill:#07a789; stroke:none;" d="M460 71L461 72L460 71M512 71L513 72L512 71z"/>
  <path style="fill:#fea844; stroke:none;" d="M20 72L21 73L20 72M59 72L60 73L59 72M197 72L198 73L197 72z"/>
  <path style="fill:#07a789; stroke:none;" d="M321 72L321 75L322 75L321 72M459 72L460 73L459 72z"/>
  <path style="fill:#fea844; stroke:none;" d="M124.333 73.6667L124.667 74.3333L124.333 73.6667z"/>
  <path style="fill:#07a789; stroke:none;" d="M458 73L459 74L458 73z"/>
  <path style="fill:#fea844; stroke:none;" d="M511 73L512 74L511 73M21.3333 74.6667L21.6667 75.3333L21.3333 74.6667M60 74L61 75L60 74M198 74L199 75L198 74z"/>
  <path style="fill:#07a789; stroke:none;" d="M457 74L458 75L457 74M510 74L511 75L510 74z"/>
  <path style="fill:#fea844; stroke:none;" d="M61 75L62 76L61 75M321.333 75.6667L321.667 76.3333L321.333 75.6667z"/>
  <path style="fill:#07a789; stroke:none;" d="M405.333 75.6667L405.667 76.3333L405.333 75.6667M456 75L457 76L456 75z"/>
  <path style="fill:#fea844; stroke:none;" d="M22 76L23 77L22 76M123.333 76.6667L123.667 77.3333L123.333 76.6667M455 76L456 77L455 76M509 76L510 77L509 76M199.333 77.6667L199.667 78.3333L199.333 77.6667z"/>
  <path style="fill:#07a789; stroke:none;" d="M454 77L455 78L454 77z"/>
  <path style="fill:#fea844; stroke:none;" d="M508 77L509 78L508 77M23 78L24 79L23 78M63 78L64 79L63 78z"/>
  <path style="fill:#07a789; stroke:none;" d="M453 78L454 79L453 78M507 78L508 79L507 78z"/>
  <path style="fill:#fea844; stroke:none;" d="M64 79L65 80L64 79M122 79L122 83L123 83L122 79z"/>
  <path style="fill:#07a789; stroke:none;" d="M404 79L405 80L404 79M452 79L453 80L452 79z"/>
  <path style="fill:#fea844; stroke:none;" d="M24 80L25 81L24 80M65 80L66 81L65 80M200 80L200 84L201 84L200 80z"/>
  <path style="fill:#07a789; stroke:none;" d="M322.333 80.6667L322.667 81.3333L322.333 80.6667M451 80L452 81L451 80M403.333 81.6667L403.667 82.3333L403.333 81.6667z"/>
  <path style="fill:#fea844; stroke:none;" d="M450 81L451 82L450 81M25 82L26 83L25 82z"/>
  <path style="fill:#07a789; stroke:none;" d="M449 82L450 83L449 82M504 82L505 83L504 82z"/>
  <path style="fill:#fea844; stroke:none;" d="M67 83L68 84L67 83z"/>
  <path style="fill:#07a789; stroke:none;" d="M448 83L449 84L448 83M503 83L504 84L503 83z"/>
  <path style="fill:#fea844; stroke:none;" d="M68 84L69 85L68 84z"/>
  <path style="fill:#07a789; stroke:none;" d="M402 84L403 85L402 84M447 84L448 85L447 84M502 84L503 85L502 84z"/>
  <path style="fill:#fea844; stroke:none;" d="M27 85L28 86L27 85M121 85L121 93L122 93L121 85z"/>
  <path style="fill:#07a789; stroke:none;" d="M323 85L324 86L323 85M446 85L447 86L446 85z"/>
  <path style="fill:#fea844; stroke:none;" d="M401 86L402 87L401 86z"/>
  <path style="fill:#07a789; stroke:none;" d="M445 86L446 87L445 86z"/>
  <path style="fill:#fea844; stroke:none;" d="M28 87L29 88L28 87M70 87L71 88L70 87z"/>
  <path style="fill:#07a789; stroke:none;" d="M400 87L401 88L400 87M444 87L445 88L444 87z"/>
  <path style="fill:#fea844; stroke:none;" d="M71 88L72 89L71 88z"/>
  <path style="fill:#07a789; stroke:none;" d="M324 88L325 89L324 88M443 88L444 89L443 88z"/>
  <path style="fill:#fea844; stroke:none;" d="M499 88L500 89L499 88M72 89L73 90L72 89z"/>
  <path style="fill:#07a789; stroke:none;" d="M399 89L400 90L399 89M442 89L443 90L442 89M498 89L499 90L498 89z"/>
  <path style="fill:#fea844; stroke:none;" d="M30 90L31 91L30 90z"/>
  <path style="fill:#07a789; stroke:none;" d="M325.333 90.6667L325.667 91.3333L325.333 90.6667M398 90L399 91L398 90M497 90L498 91L497 90M496 91L497 92L496 91z"/>
  <path style="fill:#fea844; stroke:none;" d="M397 92L398 93L397 92M438 92L439 93L438 92z"/>
  <path style="fill:#07a789; stroke:none;" d="M495 92L496 93L495 92z"/>
  <path style="fill:#fea844; stroke:none;" d="M32 93L33 94L32 93M75 93L76 94L75 93z"/>
  <path style="fill:#07a789; stroke:none;" d="M326 93L327 94L326 93M396 93L397 94L396 93M437 93L438 94L437 93M494 93L495 94L494 93z"/>
  <path style="fill:#fea844; stroke:none;" d="M76 94L77 95L76 94M122 94L122 97L123 97L122 94z"/>
  <path style="fill:#07a789; stroke:none;" d="M395 94L396 95L395 94M436 94L437 95L436 94z"/>
  <path style="fill:#fea844; stroke:none;" d="M33 95L34 96L33 95M77 95L78 96L77 95M200 95L200 101L201 101L200 95z"/>
  <path style="fill:#07a789; stroke:none;" d="M327 95L328 96L327 95M394 95L395 96L394 95M435 95L436 96L435 95z"/>
  <path style="fill:#fea844; stroke:none;" d="M34 96L35 97L34 96M78 96L79 97L78 96z"/>
  <path style="fill:#07a789; stroke:none;" d="M393 96L394 97L393 96M434 96L435 97L434 96z"/>
  <path style="fill:#fea844; stroke:none;" d="M79 97L80 98L79 97z"/>
  <path style="fill:#07a789; stroke:none;" d="M328 97L329 98L328 97M392 97L393 98L392 97M432 97L433 98L432 97M491 97L492 98L491 97z"/>
  <path style="fill:#fea844; stroke:none;" d="M35 98L36 99L35 98M80 98L81 99L80 98z"/>
  <path style="fill:#07a789; stroke:none;" d="M329 98L330 99L329 98M391 98L392 99L391 98M431 98L432 99L431 98M490 98L491 99L490 98z"/>
  <path style="fill:#fea844; stroke:none;" d="M36 99L37 100L36 99M81 99L82 100L81 99M123.333 99.6667L123.667 100.333L123.333 99.6667z"/>
  <path style="fill:#07a789; stroke:none;" d="M390 99L391 100L390 99M430 99L431 100L430 99M489 99L490 100L489 99z"/>
  <path style="fill:#fea844; stroke:none;" d="M37 100L38 101L37 100M82 100L83 101L82 100M389 100L390 101L389 100z"/>
  <path style="fill:#07a789; stroke:none;" d="M488 100L489 101L488 100z"/>
  <path style="fill:#fea844; stroke:none;" d="M83 101L84 102L83 101M124.333 101.667L124.667 102.333L124.333 101.667z"/>
  <path style="fill:#07a789; stroke:none;" d="M331 101L332 102L331 101M387 101L388 102L387 101M427 101L428 102L427 101M487 101L488 102L487 101z"/>
  <path style="fill:#fea844; stroke:none;" d="M38 102L39 103L38 102M84 102L85 103L84 102M199 102L199 105L200 105L199 102z"/>
  <path style="fill:#07a789; stroke:none;" d="M332 102L333 103L332 102M386 102L387 103L386 102M426 102L427 103L426 102z"/>
  <path style="fill:#fea844; stroke:none;" d="M39 103L40 104L39 103M85 103L86 104L85 103z"/>
  <path style="fill:#07a789; stroke:none;" d="M333 103L334 104L333 103M384 103L385 104L384 103M424 103L425 104L424 103M485 103L486 104L485 103z"/>
  <path style="fill:#fea844; stroke:none;" d="M86 104L87 105L86 104M125 104L126 105L125 104z"/>
  <path style="fill:#07a789; stroke:none;" d="M334 104L335 105L334 104M382.667 104.333L383.333 104.667L382.667 104.333M423 104L424 105L423 104z"/>
  <path style="fill:#fea844; stroke:none;" d="M40 105L41 106L40 105M87 105L88 106L87 105z"/>
  <path style="fill:#07a789; stroke:none;" d="M335 105L336 106L335 105M381 105L382 106L381 105M421 105L422 106L421 105z"/>
  <path style="fill:#fea844; stroke:none;" d="M484 105L485 106L484 105M41 106L42 107L41 106M88 106L89 107L88 106M126 106L127 107L126 106M379 106L380 107L379 106M483 106L484 107L483 106M42 107L43 108L42 107M89 107L90 108L89 107M127.333 107.667L127.667 108.333L127.333 107.667M198.333 107.667L198.667 108.333L198.333 107.667z"/>
  <path style="fill:#07a789; stroke:none;" d="M338 107L339 108L338 107M376 107L377 108L376 107z"/>
  <path style="fill:#fea844; stroke:none;" d="M377 107L378 108L377 107z"/>
  <path style="fill:#07a789; stroke:none;" d="M418 107L419 108L418 107M482 107L483 108L482 107z"/>
  <path style="fill:#fea844; stroke:none;" d="M90 108L91 109L90 108z"/>
  <path style="fill:#07a789; stroke:none;" d="M340 108L341 109L340 108M373.667 108.333L374.333 108.667L373.667 108.333M416 108L417 109L416 108M481 108L482 109L481 108z"/>
  <path style="fill:#fea844; stroke:none;" d="M43 109L44 110L43 109M91 109L92 110L91 109M128 109L129 110L128 109z"/>
  <path style="fill:#07a789; stroke:none;" d="M342 109L343 110L342 109M370.667 109.333L371.333 109.667L370.667 109.333M414 109L415 110L414 109M480 109L481 110L480 109z"/>
  <path style="fill:#fea844; stroke:none;" d="M44 110L45 111L44 110M92 110L93 111L92 110M129.333 110.667L129.667 111.333L129.333 110.667M197.333 110.667L197.667 111.333L197.333 110.667z"/>
  <path style="fill:#07a789; stroke:none;" d="M344 110L344 111L347 111L344 110M365 110L365 111L369 111L365 110z"/>
  <path style="fill:#fea844; stroke:none;" d="M412 110L413 111L412 110z"/>
  <path style="fill:#07a789; stroke:none;" d="M413 110L414 111L413 110M479 110L480 111L479 110z"/>
  <path style="fill:#fea844; stroke:none;" d="M45 111L46 112L45 111M94 111L95 112L94 111M348 111L349 112L348 111z"/>
  <path style="fill:#07a789; stroke:none;" d="M349 111L349 112L352 112L349 111M359 111L359 112L363 112L359 111z"/>
  <path style="fill:#fea844; stroke:none;" d="M363 111L364 112L363 111z"/>
  <path style="fill:#07a789; stroke:none;" d="M411 111L412 112L411 111M478 111L479 112L478 111z"/>
  <path style="fill:#fea844; stroke:none;" d="M95 112L96 113L95 112M130 112L131 113L130 112M196.333 112.667L196.667 113.333L196.333 112.667z"/>
  <path style="fill:#07a789; stroke:none;" d="M408 112L409 113L408 112z"/>
  <path style="fill:#fea844; stroke:none;" d="M46 113L47 114L46 113M96 113L97 114L96 113M131 113L132 114L131 113M406 113L407 114L406 113z"/>
  <path style="fill:#07a789; stroke:none;" d="M407 113L408 114L407 113z"/>
  <path style="fill:#fea844; stroke:none;" d="M47 114L48 115L47 114M97 114L98 115L97 114M132 114L133 115L132 114z"/>
  <path style="fill:#07a789; stroke:none;" d="M404 114L405 115L404 114z"/>
  <path style="fill:#fea844; stroke:none;" d="M48 115L49 116L48 115M98 115L99 116L98 115M133 115L134 116L133 115M195 115L196 116L195 115z"/>
  <path style="fill:#07a789; stroke:none;" d="M402 115L403 116L402 115M475 115L476 116L475 115z"/>
  <path style="fill:#fea844; stroke:none;" d="M99.6667 116.333L100.333 116.667L99.6667 116.333M134 116L135 117L134 116M194.333 116.667L194.667 117.333L194.333 116.667M399 116L400 117L399 116z"/>
  <path style="fill:#07a789; stroke:none;" d="M400 116L401 117L400 116M474 116L475 117L474 116z"/>
  <path style="fill:#fea844; stroke:none;" d="M49 117L50 118L49 117M101 117L102 118L101 117M135 117L135 119L137 119L135 117z"/>
  <path style="fill:#07a789; stroke:none;" d="M397 117L398 118L397 117M473 117L474 118L473 117z"/>
  <path style="fill:#fea844; stroke:none;" d="M50 118L51 119L50 118M102 118L103 119L102 118M193.333 118.667L193.667 119.333L193.333 118.667z"/>
  <path style="fill:#07a789; stroke:none;" d="M394.667 118.333L395.333 118.667L394.667 118.333M472 118L473 119L472 118z"/>
  <path style="fill:#fea844; stroke:none;" d="M51 119L52 120L51 119M103 119L104 120L103 119M137 119L138 120L137 119M391 119L392 120L391 119z"/>
  <path style="fill:#07a789; stroke:none;" d="M392 119L393 120L392 119M471 119L472 120L471 119z"/>
  <path style="fill:#fea844; stroke:none;" d="M52 120L53 121L52 120M105 120L106 121L105 120M138 120L139 121L138 120M192 120L193 121L192 120z"/>
  <path style="fill:#07a789; stroke:none;" d="M388.667 120.333L389.333 120.667L388.667 120.333z"/>
  <path style="fill:#fea844; stroke:none;" d="M106 121L107 122L106 121M139 121L140 122L139 121M384 121L385 122L384 121z"/>
  <path style="fill:#07a789; stroke:none;" d="M385.667 121.333L386.333 121.667L385.667 121.333z"/>
  <path style="fill:#fea844; stroke:none;" d="M53 122L54 123L53 122M107 122L108 123L107 122M140 122L141 123L140 122M191 122L192 123L191 122M381 122L382 123L381 122z"/>
  <path style="fill:#07a789; stroke:none;" d="M382 122L383 123L382 122M469 122L470 123L469 122z"/>
  <path style="fill:#fea844; stroke:none;" d="M54 123L55 124L54 123M109 123L110 124L109 123M141.667 123.333L142.333 123.667L141.667 123.333M190 123L191 124L190 123z"/>
  <path style="fill:#07a789; stroke:none;" d="M377.667 123.333L378.333 123.667L377.667 123.333M468 123L469 124L468 123z"/>
  <path style="fill:#fea844; stroke:none;" d="M55 124L56 125L55 124M110.667 124.333L111.333 124.667L110.667 124.333M143 124L144 125L143 124M189 124L190 125L189 124M372 124L373 125L372 124z"/>
  <path style="fill:#07a789; stroke:none;" d="M373.667 124.333L374.333 124.667L373.667 124.333M467 124L468 125L467 124z"/>
  <path style="fill:#fea844; stroke:none;" d="M56.3333 125.667L56.6667 126.333L56.3333 125.667M112 125L113 126L112 125M144.667 125.333L145.333 125.667L144.667 125.333M188 125L189 126L188 125z"/>
  <path style="fill:#07a789; stroke:none;" d="M368 125L368 126L371 126L368 125z"/>
  <path style="fill:#fea844; stroke:none;" d="M113.667 126.333L114.333 126.667L113.667 126.333M146 126L147 127L146 126M187 126L188 127L187 126M361 126L362 127L361 126z"/>
  <path style="fill:#07a789; stroke:none;" d="M362 126L362 127L365 127L362 126z"/>
  <path style="fill:#fea844; stroke:none;" d="M57 127L58 128L57 127M115 127L116 128L115 127M147.667 127.333L148.333 127.667L147.667 127.333M184 129L187 127L184 129M353 127L354 128L353 127z"/>
  <path style="fill:#07a789; stroke:none;" d="M354 127L354 128L359 128L354 127M465 127L466 128L465 127z"/>
  <path style="fill:#fea844; stroke:none;" d="M58 128L59 129L58 128M116.667 128.333L117.333 128.667L116.667 128.333M149.667 128.333L150.333 128.667L149.667 128.333M312 128L313 129L312 128z"/>
  <path style="fill:#07a789; stroke:none;" d="M313 128L313 129L318 129L313 128z"/>
  <path style="fill:#fea844; stroke:none;" d="M318.667 128.333L319.333 128.667L318.667 128.333M343 128L344 129L343 128z"/>
  <path style="fill:#07a789; stroke:none;" d="M344 128L344 129L350 129L344 128M464 128L465 129L464 128z"/>
  <path style="fill:#fea844; stroke:none;" d="M59 129L60 130L59 129M118 129L121 131L118 129M151.667 129.333L152.333 129.667L151.667 129.333M183 129L184 130L183 129z"/>
  <path style="fill:#07a789; stroke:none;" d="M312 129L312 136L313 136L312 129M463 129L464 130L463 129z"/>
  <path style="fill:#fea844; stroke:none;" d="M153 130L153 131L156 131L153 130M181 130L182 131L181 130z"/>
  <path style="fill:#07a789; stroke:none;" d="M462 130L463 131L462 130z"/>
  <path style="fill:#fea844; stroke:none;" d="M60 131L61 132L60 131M121.667 131.333L122.333 131.667L121.667 131.333M156 131L156 132L163 133L156 131M178 131L178 132L181 132L178 131M462 131L463 132L462 131M61 132L62 133L61 132M123.667 132.333L124.333 132.667L123.667 132.333M175 132L175 133L178 133L175 132z"/>
  <path style="fill:#07a789; stroke:none;" d="M461 132L462 133L461 132z"/>
  <path style="fill:#fea844; stroke:none;" d="M62 133L63 134L62 133M125.667 133.333L126.333 133.667L125.667 133.333M164 133L164 134L174 134L164 133z"/>
  <path style="fill:#07a789; stroke:none;" d="M460 133L461 134L460 133z"/>
  <path style="fill:#fea844; stroke:none;" d="M63 134L64 135L63 134M127.667 134.333L128.333 134.667L127.667 134.333M64 135L66 138L64 135M129.667 135.333L130.333 135.667L129.667 135.333M459 135L460 136L459 135M131.667 136.333L132.333 136.667L131.667 136.333z"/>
  <path style="fill:#07a789; stroke:none;" d="M458 136L459 137L458 136z"/>
  <path style="fill:#fea844; stroke:none;" d="M133.667 137.333L134.333 137.667L133.667 137.333z"/>
  <path style="fill:#07a789; stroke:none;" d="M457 137L458 138L457 137z"/>
  <path style="fill:#fea844; stroke:none;" d="M66 138L67 139L66 138M136.667 138.333L137.333 138.667L136.667 138.333M67 139L68 140L67 139M138 139L138 140L141 140L138 139z"/>
  <path style="fill:#07a789; stroke:none;" d="M456 139L457 140L456 139z"/>
  <path style="fill:#fea844; stroke:none;" d="M68 140L69 141L68 140M141.667 140.333L142.333 140.667L141.667 140.333z"/>
  <path style="fill:#07a789; stroke:none;" d="M455 140L456 141L455 140z"/>
  <path style="fill:#fea844; stroke:none;" d="M69 141L71 144L69 141M144.667 141.333L145.333 141.667L144.667 141.333M146 142L146 143L149 143L146 142z"/>
  <path style="fill:#07a789; stroke:none;" d="M311 142L311 147L312 147L311 142M454 142L455 143L454 142z"/>
  <path style="fill:#fea844; stroke:none;" d="M150.667 143.333L151.333 143.667L150.667 143.333z"/>
  <path style="fill:#07a789; stroke:none;" d="M453 143L454 144L453 143z"/>
  <path style="fill:#fea844; stroke:none;" d="M71 144L72 145L71 144M153 144L153 145L156 145L153 144M453 144L454 145L453 144M72 145L73 146L72 145M156 145L156 146L161 146L156 145z"/>
  <path style="fill:#07a789; stroke:none;" d="M452 145L453 146L452 145z"/>
  <path style="fill:#fea844; stroke:none;" d="M73 146L75 149L73 146M162 146L162 147L166 147L162 146M168 147L168 148L173 148L168 147M196 147L196 148L202 149L196 147z"/>
  <path style="fill:#07a789; stroke:none;" d="M451 147L452 148L451 147z"/>
  <path style="fill:#fea844; stroke:none;" d="M173 148L173 149L195 149L173 148z"/>
  <path style="fill:#07a789; stroke:none;" d="M450 148L451 149L450 148z"/>
  <path style="fill:#fea844; stroke:none;" d="M75 149L76 150L75 149M450 149L451 150L450 149M76 150L77 151L76 150M202.333 150.667L202.667 151.333L202.333 150.667z"/>
  <path style="fill:#07a789; stroke:none;" d="M449 150L450 151L449 150z"/>
  <path style="fill:#fea844; stroke:none;" d="M77 151L78 152L77 151M78 152L79 153L78 152z"/>
  <path style="fill:#07a789; stroke:none;" d="M448 152L449 153L448 152z"/>
  <path style="fill:#fea844; stroke:none;" d="M203 153L203 156L204 156L203 153M79 154L81 156L81 154L79 154M310.333 154.667L310.667 155.333L310.333 154.667z"/>
  <path style="fill:#07a789; stroke:none;" d="M447 154L448 155L447 154z"/>
  <path style="fill:#fea844; stroke:none;" d="M581 154L582 155L581 154z"/>
  <path style="fill:#07a789; stroke:none;" d="M582 154L582 155L588 155L582 154z"/>
  <path style="fill:#fea844; stroke:none;" d="M588 154L589 155L588 154M447 155L448 156L447 155M579 155L580 156L579 155z"/>
  <path style="stroke: none; fill: rgb(7, 167, 137);" d="M587 196C589.567 191.586 591.939 186.863 593.539 182C594.828 178.084 595.879 174.135 595.985 170C596.217 161.007 590.882 150.522 580.004 156.028C574.717 158.704 571.78 164.968 569.248 170C567.841 172.796 564.545 177.389 565.708 180.687C566.541 183.046 570.054 183.694 572.001 184.799C577.505 187.922 581.56 192.952 587 196z"/>
  <path style="fill:#07a789; stroke:none;" d="M590 155L591 156L590 155z"/>
  <path style="fill:#fea844; stroke:none;" d="M591 155L592 156L591 155M81 156L82 157L81 156M204.333 156.667L204.667 157.333L204.333 156.667z"/>
  <path style="fill:#07a789; stroke:none;" d="M310 156L310 163L311 163L310 156M446.333 156.667L446.667 157.333L446.333 156.667M483 156L483 157L486 157L483 156z"/>
  <path style="stroke: none; fill: rgb(7, 167, 137);" d="M463 175L464 175C472.869 168.175 490.289 169.001 501 169C505.18 169 510.37 167.901 514 170L517 170C509.963 155.491 490.395 153.825 477 159.069C470.12 161.763 462.582 166.963 463 175z"/>
  <path style="fill:#07a789; stroke:none;" d="M496 156L496 157L499 157L496 156M578 156L579 157L578 156M592 156L593 157L592 156z"/>
  <path style="fill:#fea844; stroke:none;" d="M82 157L84 160L82 157M479 157L480 158L479 157z"/>
  <path style="fill:#07a789; stroke:none;" d="M480.667 157.333L481.333 157.667L480.667 157.333M500.667 157.333L501.333 157.667L500.667 157.333M577 157L578 158L577 157M593 157L594 158L593 157M477.667 158.333L478.333 158.667L477.667 158.333M503.667 158.333L504.333 158.667L503.667 158.333M576 158L577 159L576 158M594 158L595 159L594 158z"/>
  <path style="fill:#fea844; stroke:none;" d="M205.333 159.667L205.667 160.333L205.333 159.667z"/>
  <path style="fill:#07a789; stroke:none;" d="M445 159L446 160L445 159M475 159L476 160L475 159M506 159L507 160L506 159M575 159L576 160L575 159z"/>
  <path style="fill:#fea844; stroke:none;" d="M84 160L86 162L86 160L84 160z"/>
  <path style="fill:#07a789; stroke:none;" d="M473 160L474 161L473 160M508 160L509 161L508 160M595 160L596 161L595 160M444.333 161.667L444.667 162.333L444.333 161.667M471 161L472 162L471 161M509 161L510 162L509 161z"/>
  <path style="fill:#fea844; stroke:none;" d="M510 161L511 162L510 161M86.3333 162.667L86.6667 163.333L86.3333 162.667M206 162L206 165L207 165L206 162z"/>
  <path style="fill:#07a789; stroke:none;" d="M470 162L471 163L470 162M511 162L512 163L511 162M573 162L574 163L573 162M469 163L470 164L469 163M512 163L513 164L512 163z"/>
  <path style="fill:#fea844; stroke:none;" d="M572 163L573 164L572 163z"/>
  <path style="fill:#07a789; stroke:none;" d="M596 163L596 172L597 172L596 163z"/>
  <path style="fill:#fea844; stroke:none;" d="M87 164L88 165L87 164z"/>
  <path style="fill:#07a789; stroke:none;" d="M443.333 164.667L443.667 165.333L443.333 164.667M467 164L468 165L467 164M513 164L517 170L514 170C511.409 167.274 505.652 168.994 502 169C492.56 169.015 470.757 167.146 464 175L463 175L462 171L461 171C456.966 177.937 454.827 184.937 455.015 193C455.163 199.361 457.127 205.589 460.468 211C463.733 216.287 468.382 220.799 474 223.507C488.292 230.396 506.859 228.061 517.699 215.96C530.049 202.174 530.836 174.053 513 164z"/>
  <path style="fill:#fea844; stroke:none;" d="M514 164L515 165L514 164M207.333 165.667L207.667 166.333L207.333 165.667z"/>
  <path style="fill:#07a789; stroke:none;" d="M466 165L467 166L466 165M571 165L572 166L571 165z"/>
  <path style="fill:#fea844; stroke:none;" d="M88 166L88 169L89 169L88 166M443 166L444 167L443 166z"/>
  <path style="fill:#07a789; stroke:none;" d="M465 166L466 167L465 166z"/>
  <path style="fill:#fea844; stroke:none;" d="M309.333 167.667L309.667 168.333L309.333 167.667z"/>
  <path style="fill:#07a789; stroke:none;" d="M464 167L465 168L464 167z"/>
  <path style="fill:#fea844; stroke:none;" d="M517 167L518 168L517 167z"/>
  <path style="fill:#07a789; stroke:none;" d="M570 167L571 168L570 167M463.333 168.667L463.667 169.333L463.333 168.667z"/>
  <path style="fill:#fea844; stroke:none;" d="M89 169L89 173L90 173L89 169M208.333 169.667L208.667 170.333L208.333 169.667z"/>
  <path style="fill:#07a789; stroke:none;" d="M309 169L309 177L310 177L309 169M442 169L442 172L443 172L442 169M569 169L570 170L569 169M462 170L463 171L462 170M465.333 170.667L465.667 171.333L465.333 170.667z"/>
  <path style="fill:#fea844; stroke:none;" d="M568 170L569 171L568 170M209 171L209 175L210 175L209 171z"/>
  <path style="fill:#07a789; stroke:none;" d="M568 171L569 172L568 171M567.333 172.667L567.667 173.333L567.333 172.667z"/>
  <path style="fill:#fea844; stroke:none;" d="M522 174L523 175L522 174z"/>
  <path style="fill:#07a789; stroke:none;" d="M566.333 174.667L566.667 175.333L566.333 174.667z"/>
  <path style="fill:#fea844; stroke:none;" d="M90 175L90 208L91 208C92.1406 198.975 94.575 183.12 90 175M210.333 175.667L210.667 176.333L210.333 175.667z"/>
  <path style="fill:#07a789; stroke:none;" d="M441 175L441 183L442 183L441 175M595.333 175.667L595.667 176.333L595.333 175.667z"/>
  <path style="fill:#025cae; stroke:none;" d="M460.667 176.333L461.333 176.667L460.667 176.333z"/>
  <path style="fill:#07a789; stroke:none;" d="M565.333 176.667L565.667 177.333L565.333 176.667M564 178C559.901 186.78 554.652 195.301 548.764 203C520.934 239.386 481.982 237.764 441 236L441 196L440 196L440 235C424.554 231.459 404.394 212.664 391 224C391.037 227.999 388.462 231.88 389.894 235.83C396.019 252.725 424.585 263.539 440 268.819C446.591 271.077 459.825 271.408 463.566 278.214C466.191 282.989 464.811 289.782 465.039 295C465.578 307.304 466.248 319.705 467.09 332C469.909 373.166 476.149 414.758 477 456L478 456L479 447L502 453L503 453C505.323 423.564 499.22 388.991 510 361L512 361C518.236 383.856 517.247 406.803 521.08 430C522.212 436.85 522.914 449.663 531.015 452.164C537.059 454.03 542.716 447.677 545.175 443C551.267 431.414 551.843 414.844 551.996 402C552.397 368.286 551.396 334.652 550.996 301C550.833 287.287 547.278 271.492 550.927 258C557.286 234.494 579.723 217.736 588 195C582.3 194.273 567.292 182.918 564 178M594.333 178.667L594.667 179.333L594.333 178.667z"/>
  <path style="fill:#fea844; stroke:none;" d="M211.333 179.667L211.667 180.333L211.333 179.667z"/>
  <path style="fill:#07a789; stroke:none;" d="M308 179L308 184L309 184L308 179z"/>
  <path style="fill:#fea844; stroke:none;" d="M594 180L595 181L594 180M212 181L212 185L213 185L212 181z"/>
  <path style="fill:#07a789; stroke:none;" d="M593 182L594 183L593 182z"/>
  <path style="fill:#fea844; stroke:none;" d="M441 183L441 186L442 186L441 183M593 183L594 184L593 183M213.333 185.667L213.667 186.333L213.333 185.667z"/>
  <path style="fill:#07a789; stroke:none;" d="M592 185L593 186L592 185M591 186L591 189L592 189L591 186z"/>
  <path style="fill:#fea844; stroke:none;" d="M214 188L214 191L215 191L214 188M307.333 189.667L307.667 190.333L307.333 189.667z"/>
  <path style="fill:#07a789; stroke:none;" d="M590.333 189.667L590.667 190.333L590.333 189.667M307 191L307 196L308 196L307 191M589.333 191.667L589.667 192.333L589.333 191.667z"/>
  <path style="fill:#fea844; stroke:none;" d="M215 192L215 195L216 195L215 192z"/>
  <path style="fill:#07a789; stroke:none;" d="M588.333 193.667L588.667 194.333L588.333 193.667z"/>
  <path style="fill:#fea844; stroke:none;" d="M216 195L216 198L217 198L216 195M217 199L217 202L218 202L217 199M306.333 199.667L306.667 200.333L306.333 199.667z"/>
  <path style="fill:#07a789; stroke:none;" d="M306 201L306 207L307 207L306 201z"/>
  <path style="fill:#fea844; stroke:none;" d="M218 202L218 206L219 206L218 202M183 205L183 286C161.143 286.53 181.926 308.423 184.487 316.174C185.944 320.584 185 326.396 185 331L186 331L186 315L211 332.688L225.682 342.108L225.155 362L210 420C213.786 422.358 221.839 426.055 223.686 430.213C225.339 433.933 223.051 439.998 223.004 444C222.884 454.075 223.668 464.262 226.428 474C227.817 478.899 238.688 503.257 245.821 491.768C250.186 484.738 248.682 469.14 249.039 461C249.377 453.299 250 445.748 250 438C252.952 438.01 257.079 437.48 258.972 440.318C261.554 444.189 259.75 451.525 260.285 456C261.485 466.032 264.061 477.052 268.901 486C271.324 490.479 275.962 498.625 281.981 498.338C288.504 498.027 287 488.303 287 484C287 474.028 287.397 463.963 286.961 454C286.76 449.413 284.694 443.581 286.603 439.144C289.047 433.466 306.32 431.191 312 429C309.154 407.884 302.263 387.31 299.715 366C298.768 358.086 297.026 346.433 300.573 339C306.763 326.027 324.122 315.514 333.626 304.576C338.747 298.681 353.097 279.894 342.772 272.647C336.546 268.277 323.672 281.068 319 284.522C301.861 297.192 279.682 307.992 258 308C252.348 308.002 241.397 310.24 238 305C225.196 307.783 213.064 297.578 201 295L200 287L199 287L200 294L185.179 285.787L184 264L184 210L185 210L186 222L187 222C186.896 216.941 187.266 208.247 183 205M219 206L219 209L220 209L219 206z"/>
  <path style="fill:#fefefe; stroke:none;" d="M184 210L184 265L185.179 286.61L200 294L190.424 246L184 210z"/>
  <path style="fill:#07a789; stroke:none;" d="M305 210L305 214L306 214L305 210z"/>
  <path style="fill:#fea844; stroke:none;" d="M89 211L87 238L88 238C89.707 230.83 91.8895 217.886 89 211M220.333 211.667L220.667 212.333L220.333 211.667M221 214L222 221L223 221L221 214M304 218L305 219L304 218z"/>
  <path style="fill:#07a789; stroke:none;" d="M304 219L304 223L305 223L304 219M333 222L332 226L333 222z"/>
  <path style="fill:#fea844; stroke:none;" d="M187 223L188 235L189 235L187 223M223 223L223 226L224 226L223 223M303 226L304 227L303 226z"/>
  <path style="fill:#fefefe; stroke:none;" d="M332 226L324 281C327.197 279.218 331.151 277.256 332.972 273.907C334.918 270.329 334 264.932 334 261C334 250.488 336.64 235.655 332 226z"/>
  <path style="fill:#fea844; stroke:none;" d="M333 226L333 231L334 231L333 226M224 227L224 232L225 232L224 227z"/>
  <path style="fill:#07a789; stroke:none;" d="M303 227L303 233L304 233L303 227M331 229L331 232L332 232L331 229z"/>
  <path style="fill:#fea844; stroke:none;" d="M225 232L225 235L226 235L225 232M331 232L332 233L331 232M236 300L237 300L237 297C267.79 314.903 305.354 282.636 286.471 250C272.961 226.651 233.586 229.232 224.093 255C220.212 265.536 220.555 277.184 226.479 287C229.302 291.677 234.404 294.764 236 300M189 235L189 240L190 240L189 235z"/>
  <path style="fill:#07a789; stroke:none;" d="M302 235L302 239L303 239L302 235M330 236L330 239L331 239L330 236z"/>
  <path style="fill:#fea844; stroke:none;" d="M226 237L226 241L227 241L226 237M86 239L83 246C85.527 243.899 87.0382 242.292 86 239z"/>
  <path style="fill:#07a789; stroke:none;" d="M329 241L329 244L330 244L329 241z"/>
  <path style="fill:#fea844; stroke:none;" d="M190 242L192 257L193 257L190 242M227 242L227 247L228 247L227 242z"/>
  <path style="fill:#07a789; stroke:none;" d="M301 243L301 247L302 247L301 243z"/>
  <path style="fill:#fea844; stroke:none;" d="M329 244L330 245L329 244M82 246L83 247L82 246M81 247L81 249L83 249L81 247z"/>
  <path style="fill:#07a789; stroke:none;" d="M328 248L328 251L329 251L328 248z"/>
  <path style="fill:#fea844; stroke:none;" d="M80 249L81 250L80 249z"/>
  <path style="fill:#07a789; stroke:none;" d="M300 249L300 255L301 255L300 249z"/>
  <path style="fill:#fea844; stroke:none;" d="M79 250L77 256L78 256L79 250z"/>
  <path style="fill:#07a789; stroke:none;" d="M327 254L327 258L328 258L327 254z"/>
  <path style="fill:#fea844; stroke:none;" d="M76.3333 256.667L76.6667 257.333L76.3333 256.667z"/>
  <path style="fill:#07a789; stroke:none;" d="M299 256L299 260L300 260L299 256z"/>
  <path style="fill:#fea844; stroke:none;" d="M75.3333 258.667L75.6667 259.333L75.3333 258.667M193 259L194 268L195 268L193 259M74 260L73 265L74 265L74 260z"/>
  <path style="fill:#07a789; stroke:none;" d="M326 260L326 263L327 263L326 260z"/>
  <path style="fill:#fea844; stroke:none;" d="M298 263L299 264L298 263M326 263L327 264L326 263z"/>
  <path style="fill:#07a789; stroke:none;" d="M298.333 264.667L298.667 265.333L298.333 264.667z"/>
  <path style="fill:#fea844; stroke:none;" d="M72.3333 265.667L72.6667 266.333L72.3333 265.667z"/>
  <path style="fill:#07a789; stroke:none;" d="M325 267L325 270L326 270L325 267z"/>
  <path style="fill:#fea844; stroke:none;" d="M71 268L70 273L71 273L71 268M297 268L298 269L297 268M195 269L195 273L196 273L195 269z"/>
  <path style="fill:#07a789; stroke:none;" d="M297 269L297 273L298 273L297 269M338 271L339 272L338 271M342 271L343 272L342 271M336 272L337 273L336 272M343 272L344 273L343 272z"/>
  <path style="fill:#fea844; stroke:none;" d="M69 273L69 276L70 276L69 273z"/>
  <path style="fill:#07a789; stroke:none;" d="M324 273L324 277L325 277L324 273M344 273L345 274L344 273z"/>
  <path style="fill:#fea844; stroke:none;" d="M196 274L197 283L198 283L196 274z"/>
  <path style="fill:#07a789; stroke:none;" d="M296.333 275.667L296.667 276.333L296.333 275.667M345 275L346 276L345 275z"/>
  <path style="fill:#fea844; stroke:none;" d="M68 276L67 282L68 282L68 276M441.333 277.667L441.667 278.333L441.333 277.667z"/>
  <path style="fill:#07a789; stroke:none;" d="M323.333 279.667L323.667 280.333L323.333 279.667M441 279L441 307L442 307L441 279z"/>
  <path style="fill:#fea844; stroke:none;" d="M295 280L296 281L295 280z"/>
  <path style="fill:#07a789; stroke:none;" d="M295.333 281.667L295.667 282.333L295.333 281.667z"/>
  <path style="fill:#fea844; stroke:none;" d="M66 283L66 286L67 286L66 283z"/>
  <path style="fill:#07a789; stroke:none;" d="M320 283L321 284L320 283z"/>
  <path style="fill:#fea844; stroke:none;" d="M198.333 284.667L198.667 285.333L198.333 284.667z"/>
  <path style="fill:#07a789; stroke:none;" d="M319 284L320 285L319 284z"/>
  <path style="fill:#f76d4e; stroke:none;" d="M345 284L346 285L345 284z"/>
  <path style="fill:#07a789; stroke:none;" d="M294 285L294 288L295 288L294 285M317 285L318 286L317 285M316 286L317 287L316 286z"/>
  <path style="fill:#fea844; stroke:none;" d="M65 287L64 295L65 295L65 287z"/>
  <path style="fill:#07a789; stroke:none;" d="M344 287L345 288L344 287M313 288L314 289L313 288M311 289L312 290L311 289M343 289L344 290L343 289M293.333 290.667L293.667 291.333L293.333 290.667M310 290L311 291L310 290M308 291L309 292L308 291M306 292L307 293L306 292M305 293L306 294L305 293M341 293L342 294L341 293M292.333 294.667L292.667 295.333L292.333 294.667M301 295L302 296L301 295M340 295L341 296L340 295z"/>
  <path style="fill:#fea844; stroke:none;" d="M63 296L63 299L64 299L63 296z"/>
  <path style="fill:#07a789; stroke:none;" d="M299 296L300 297L299 296M297 297L298 298L297 297M291.333 298.667L291.667 299.333L291.333 298.667M295 298L296 299L295 298M338 298L339 299L338 298M337 299L338 300L337 299z"/>
  <path style="fill:#fea844; stroke:none;" d="M62 300L61 311L62 311L62 300z"/>
  <path style="fill:#07a789; stroke:none;" d="M335 302L336 303L335 302M334 303L335 304L334 303M333 305L333 322L334 322L333 305z"/>
  <path style="fill:#fea844; stroke:none;" d="M60 312L60 318L61 318L60 312z"/>
  <path style="fill:#07a789; stroke:none;" d="M387 316L387 317L390 317L387 316M385 317L386 318L385 317M391 317L392 318L391 317M442 317L442 333L443 333L442 317z"/>
  <path style="fill:#fea844; stroke:none;" d="M59 318L58 336L59 336L59 318z"/>
  <path style="fill:#07a789; stroke:none;" d="M384 318L385 319L384 318M392 318L393 319L392 318z"/>
  <path style="fill:#fea844; stroke:none;" d="M392 319L393 320L392 319z"/>
  <path style="fill:#07a789; stroke:none;" d="M393.333 322.667L393.667 323.333L393.333 322.667M383 324L383 329L384 329L383 324M394 326L394 330L395 330L394 326z"/>
  <path style="fill:#fea844; stroke:none;" d="M394 330L395 331L394 330M186 332L186 344L187 344L186 332z"/>
  <path style="fill:#07a789; stroke:none;" d="M382 333L382 339L383 339L382 333M395 333L395 337L396 337L395 333z"/>
  <path style="fill:#fea844; stroke:none;" d="M57 338L57 343L58 343L57 338M382 339L383 340L382 339M332.333 341.667L332.667 342.333L332.333 341.667z"/>
  <path style="fill:#07a789; stroke:none;" d="M396 341L396 345L397 345L396 341M332 343L332 366L333 366L332 343z"/>
  <path style="fill:#fea844; stroke:none;" d="M58 344L59 345L58 344M59 345L61 347L61 345L59 345z"/>
  <path style="fill:#07a789; stroke:none;" d="M381 345L381 351L382 351L381 345z"/>
  <path style="fill:#fea844; stroke:none;" d="M61 347L65 350L61 347z"/>
  <path style="fill:#07a789; stroke:none;" d="M397 347L397 354L398 354L397 347z"/>
  <path style="fill:#fea844; stroke:none;" d="M443 347L443 352L444 352L443 347M187 348L187 356L188 356L187 348M65 350L66 351L65 350M66.6667 351.333L67.3333 351.667L66.6667 351.333M381 351L382 352L381 351M68.6667 352.333L69.3333 352.667L68.6667 352.333z"/>
  <path style="fill:#07a789; stroke:none;" d="M443 352L443 363L444 363L443 352z"/>
  <path style="fill:#fea844; stroke:none;" d="M70.6667 353.333L71.3333 353.667L70.6667 353.333M72 354L73 355L72 354M74 355L75 356L74 355M75 356L75 357L79 358L79 357L75 356z"/>
  <path style="fill:#07a789; stroke:none;" d="M380 357L380 362L381 362L380 357z"/>
  <path style="fill:#fea844; stroke:none;" d="M79 358L80 363L81 363L79 358z"/>
  <path style="fill:#07a789; stroke:none;" d="M398 358L398 362L399 362L398 358z"/>
  <path style="fill:#fea844; stroke:none;" d="M188 361L188 367L189 367L188 361M398 362L399 363L398 362M79 363L79 366L80 366L79 363z"/>
  <path style="fill:#07a789; stroke:none;" d="M379 366L379 371L380 371L379 366z"/>
  <path style="fill:#fea844; stroke:none;" d="M78 367L78 371L79 371L78 367M189 369L189 374L190 374L189 369z"/>
  <path style="fill:#07a789; stroke:none;" d="M399 369L399 374L400 374L399 369z"/>
  <path style="fill:#fea844; stroke:none;" d="M111 377L112 377L115 372C111.546 371.223 111.227 374.06 111 377M379 371L380 372L379 371M77 372L77 377L78 377L77 372M115.667 372.333L116.333 372.667L115.667 372.333M118.667 373.333L119.333 373.667L118.667 373.333M121 374L121 375L124 375L121 374M125.667 375.333L126.333 375.667L125.667 375.333M444.333 375.667L444.667 376.333L444.333 375.667M128 376L128 377L131 377L128 376M131 377L131 378L133 382L134 382L134 377L131 377z"/>
  <path style="fill:#07a789; stroke:none;" d="M378 377L378 382L379 382L378 377M444 377L444 387L445 387L444 377z"/>
  <path style="fill:#fea844; stroke:none;" d="M76 378L76 382L77 382L76 378M190 378L190 381L191 381L190 378z"/>
  <path style="fill:#07a789; stroke:none;" d="M400 379L400 387L401 387L400 379z"/>
  <path style="fill:#fea844; stroke:none;" d="M110 380L109 389L110 389L110 380M378 382L379 383L378 382M331 383L331 386L332 386L331 383M132 384L132 414L133 414L132 384M165 385L165 432L166 432C166 418.735 170.11 397.177 165 385M168 385L168 386L173 386L168 385M188.667 385.333L189.333 385.667L188.667 385.333M75 386L75 412L76 412L75 386M178 386L178 387L185 387L178 386z"/>
  <path style="fill:#07a789; stroke:none;" d="M331 386L331 399L332 399L331 386z"/>
  <path style="fill:#fea844; stroke:none;" d="M400 387L400 390L401 390L400 387z"/>
  <path style="fill:#07a789; stroke:none;" d="M377 388L377 392L378 392L377 388z"/>
  <path style="fill:#fea844; stroke:none;" d="M108 390L108 394L109 394L108 390M377 392L378 393L377 392M107 396L107 399L108 399L107 396z"/>
  <path style="fill:#07a789; stroke:none;" d="M376 396L376 400L377 400L376 396M401 398L401 407L402 407L401 398z"/>
  <path style="fill:#fea844; stroke:none;" d="M376.333 400.667L376.667 401.333L376.333 400.667M106 401L106 405L107 405L106 401M105 406L105 410L106 410L105 406z"/>
  <path style="fill:#07a789; stroke:none;" d="M375 407L375 411L376 411L375 407z"/>
  <path style="fill:#fea844; stroke:none;" d="M401 407L401 411L402 411L401 407M375 411L376 412L375 411M104 412L104 415L105 415L104 412M76 416L76 420L77 420L76 416M103 416L103 419L104 419L103 416M133 417L133 422L134 422L133 417z"/>
  <path style="fill:#07a789; stroke:none;" d="M374 417L374 421L375 421L374 417z"/>
  <path style="fill:#fea844; stroke:none;" d="M581 417L582 418L581 417z"/>
  <path style="fill:#f76d4e; stroke:none;" d="M582 417L581 419L582 417z"/>
  <path style="fill:#fea844; stroke:none;" d="M330 418L330 424L331 424L330 418z"/>
  <path style="fill:#025cae; stroke:none;" d="M582 418L583 419L582 418z"/>
  <path style="fill:#fea844; stroke:none;" d="M77 421L77 426L78 426L77 421M102 421L102 424L103 424L102 421z"/>
  <path style="fill:#07a789; stroke:none;" d="M330 424L330 430L331 430L330 424M444 424L444 431L445 431L444 424z"/>
  <path style="fill:#fea844; stroke:none;" d="M134 426L134 429L135 429L134 426z"/>
  <path style="fill:#07a789; stroke:none;" d="M373.333 426.667L373.667 427.333L373.333 426.667z"/>
  <path style="fill:#fea844; stroke:none;" d="M78 427L78 430L79 430L78 427M101 427L101 430L102 430L101 427M373.333 428.667L373.667 429.333L373.333 428.667z"/>
  <path style="fill:#07a789; stroke:none;" d="M402 429L402 435L403 435L402 429z"/>
  <path style="fill:#fea844; stroke:none;" d="M100 431L100 434L101 434L100 431M444 431L444 435L445 435L444 431M79 432L80 433L79 432M135.333 432.667L135.667 433.333L135.333 432.667M80.3333 434.667L80.6667 435.333L80.3333 434.667z"/>
  <path style="fill:#07a789; stroke:none;" d="M372.333 435.667L372.667 436.333L372.333 435.667z"/>
  <path style="fill:#fea844; stroke:none;" d="M402 435L402 438L403 438L402 435M99 436L99 439L100 439L99 436M136.333 436.667L136.667 437.333L136.333 436.667M81 437L82 438L81 437M372.333 437.667L372.667 438.333L372.333 437.667M82 439L83 440L82 439M83 441L84 442L83 441M98 441L99 442L98 441M137 441L138 442L137 441z"/>
  <path style="fill:#07a789; stroke:none;" d="M443 441L443 444L444 444L443 441z"/>
  <path style="fill:#fea844; stroke:none;" d="M97.3333 443.667L97.6667 444.333L97.3333 443.667z"/>
  <path style="fill:#07a789; stroke:none;" d="M371.333 443.667L371.667 444.333L371.333 443.667z"/>
  <path style="fill:#fea844; stroke:none;" d="M85 444L86 445L85 444M138.333 444.667L138.667 445.333L138.333 444.667M164 444L164 453L165 453L164 444M443 444L444 445L443 444z"/>
  <path style="fill:#025cae; stroke:none;" d="M542 444L543 445L542 444z"/>
  <path style="fill:#fea844; stroke:none;" d="M86 445L87 446L86 445M96 445L97 446L96 445M329 445L329 450L330 450L329 445M371 445L372 446L371 445M87 446L88 447L87 446M95 446L96 447L95 446z"/>
  <path style="fill:#025cae; stroke:none;" d="M527 446L530 450L530 446L527 446M540 446L531 452L537 451L538 448L540 446z"/>
  <path style="fill:#fea844; stroke:none;" d="M89 447L90 448L89 447M94 447L95 448L94 447M139.333 447.667L139.667 448.333L139.333 447.667z"/>
  <path style="stroke: none; fill: rgb(7, 167, 137);" d="M479 447C478.02 450.317 477.889 453.531 478.039 457C478.154 459.637 478.463 462.409 479.059 464.985C483.097 482.445 508.175 457.737 500.357 451.028C496.787 447.965 484.144 448.852 479 447z"/>
  <path style="fill:#07a789; stroke:none;" d="M403 449L403 453L404 453L403 449M442.333 449.667L442.667 450.333L442.333 449.667M329 450L329 455L330 455L329 450z"/>
  <path style="fill:#fea844; stroke:none;" d="M370.333 450.667L370.667 451.333L370.333 450.667M140 451L141 452L140 451M442 451L443 452L442 451M403 453L403 457L404 457L403 453M141 454L142 455L141 454z"/>
  <path style="fill:#07a789; stroke:none;" d="M501 454L501 457L502 457L501 454M369 455L370 456L369 455M441.333 455.667L441.667 456.333L441.333 455.667z"/>
  <path style="fill:#fea844; stroke:none;" d="M142 456L143 457L142 456M369.333 456.667L369.667 457.333L369.333 456.667M477.333 456.667L477.667 457.333L477.333 456.667M441.333 457.667L441.667 458.333L441.333 457.667z"/>
  <path style="fill:#07a789; stroke:none;" d="M500.333 457.667L500.667 458.333L500.333 457.667z"/>
  <path style="fill:#fea844; stroke:none;" d="M143 459L144 460L143 459z"/>
  <path style="fill:#07a789; stroke:none;" d="M368.333 460.667L368.667 461.333L368.333 460.667M499 460L500 461L499 460z"/>
  <path style="fill:#fea844; stroke:none;" d="M144 461L145 462L144 461z"/>
  <path style="fill:#07a789; stroke:none;" d="M440 461L441 462L440 461M478 461L478 466L479 466L478 461M404.333 462.667L404.667 463.333L404.333 462.667z"/>
  <path style="fill:#fea844; stroke:none;" d="M440 462L441 463L440 462z"/>
  <path style="fill:#07a789; stroke:none;" d="M498 462L499 463L498 462z"/>
  <path style="fill:#fea844; stroke:none;" d="M145 463L146 464L145 463z"/>
  <path style="fill:#07a789; stroke:none;" d="M497 463L498 464L497 463z"/>
  <path style="fill:#fea844; stroke:none;" d="M404.333 464.667L404.667 465.333L404.333 464.667M497 464L498 465L497 464M163 465L163 468L164 468L163 465M367 465L368 466L367 465z"/>
  <path style="fill:#07a789; stroke:none;" d="M439 465L440 466L439 465M496 465L497 466L496 465z"/>
  <path style="fill:#fea844; stroke:none;" d="M147 466L148 467L147 466M439 466L440 467L439 466M478 466L479 467L478 466z"/>
  <path style="fill:#07a789; stroke:none;" d="M495 466L496 467L495 466M494 467L495 468L494 467M479 468L480 469L479 468M492 468L493 469L492 468z"/>
  <path style="fill:#fea844; stroke:none;" d="M493 468L494 469L493 468M149 469L150 470L149 469M162.333 469.667L162.667 470.333L162.333 469.667M366 469L367 470L366 469z"/>
  <path style="fill:#07a789; stroke:none;" d="M438 469L439 470L438 469M480 469L481 470L480 469M491 469L492 470L491 469z"/>
  <path style="fill:#fea844; stroke:none;" d="M150 470L151 471L150 470M328.333 470.667L328.667 471.333L328.333 470.667z"/>
  <path style="fill:#07a789; stroke:none;" d="M405 470L406 471L405 470z"/>
  <path style="fill:#fea844; stroke:none;" d="M438 470L439 471L438 470z"/>
  <path style="fill:#07a789; stroke:none;" d="M482 470L483 471L482 470M488.667 470.333L489.333 470.667L488.667 470.333z"/>
  <path style="fill:#fea844; stroke:none;" d="M151 471L152 472L151 471M405 471L406 472L405 471M152 472L153 473L152 472z"/>
  <path style="fill:#07a789; stroke:none;" d="M328 472L328 475L329 475L328 472M365 472L366 473L365 472z"/>
  <path style="fill:#f76d4e; stroke:none;" d="M437 472L438 473L437 472z"/>
  <path style="fill:#fea844; stroke:none;" d="M154 473L155 474L154 473M159 473L160 474L159 473M365 473L366 474L365 473M437 473L438 474L437 473M156 474L156 475L159 475L156 474z"/>
  <path style="fill:#07a789; stroke:none;" d="M364 475L365 476L364 475M406 475L407 476L406 475M436 475L437 476L436 475z"/>
  <path style="fill:#fea844; stroke:none;" d="M406.333 476.667L406.667 477.333L406.333 476.667z"/>
  <path style="fill:#07a789; stroke:none;" d="M435 477L436 478L435 477z"/>
  <path style="fill:#fea844; stroke:none;" d="M363 478L364 479L363 478M435 478L436 479L435 478M407 480L408 481L407 480M434 480L435 481L434 480M362 481L363 482L362 481M361 483L362 484L361 483M408 483L409 484L408 483z"/>
  <path style="fill:#07a789; stroke:none;" d="M432 483L433 484L432 483M360 485L361 486L360 485M409 485L410 486L409 485z"/>
  <path style="fill:#fea844; stroke:none;" d="M431 485L432 486L431 485z"/>
  <path style="fill:#07a789; stroke:none;" d="M430 486L431 487L430 486M359 487L360 488L359 487z"/>
  <path style="fill:#f76d4e; stroke:none;" d="M410 487L411 488L410 487z"/>
  <path style="fill:#07a789; stroke:none;" d="M429 487L430 488L429 487M328 488L329 489L328 488z"/>
  <path style="fill:#fea844; stroke:none;" d="M328.333 489.667L328.667 490.333L328.333 489.667M412 490L413 491L412 490M426 490L427 491L426 490M413 491L414 492L413 491M356 492L357 493L356 492z"/>
  <path style="fill:#07a789; stroke:none;" d="M415 492L416 493L415 492z"/>
  <path style="fill:#fea844; stroke:none;" d="M423 492L424 493L423 492M355 493L356 494L355 493M418.667 493.333L419.333 493.667L418.667 493.333M329 494L330 495L329 494z"/>
  <path style="fill:#07a789; stroke:none;" d="M354 494L355 495L354 494M353 495L354 496L353 495z"/>
  <path style="fill:#fea844; stroke:none;" d="M330 496L331 497L330 496z"/>
  <path style="fill:#07a789; stroke:none;" d="M352 496L353 497L352 496z"/>
  <path style="fill:#fea844; stroke:none;" d="M351 497L352 498L351 497z"/>
  <path style="fill:#07a789; stroke:none;" d="M333 499L334 500L333 499z"/>
  <path style="fill:#fea844; stroke:none;" d="M348 499L349 500L348 499M334 500L335 501L334 500z"/>
  <path style="fill:#07a789; stroke:none;" d="M335 500L336 501L335 500M344 500L345 501L344 500z"/>
  <path style="fill:#fea844; stroke:none;" d="M345 500L346 501L345 500z"/>
</svg>