<svg id="svg" version="1.1" xmlns="http://www.w3.org/2000/svg" xmlns:xlink="http://www.w3.org/1999/xlink" width="400" height="415.73033707865164" viewBox="0, 0, 400,415.73033707865164"><g id="svgg"><path id="path0" d="M336.223 14.649 C 335.556 15.336,334.127 15.699,328.689 16.563 C 324.998 17.149,321.578 17.780,321.089 17.965 C 320.600 18.150,318.850 18.434,317.200 18.597 C 315.550 18.760,313.713 19.143,313.117 19.448 C 312.069 19.985,307.799 20.619,301.600 21.158 C 299.950 21.301,297.970 21.713,297.200 22.072 C 296.430 22.432,294.270 22.928,292.400 23.176 C 287.113 23.876,282.715 24.659,281.400 25.134 C 280.256 25.547,279.040 25.743,269.800 27.008 C 263.433 27.880,259.671 28.661,258.663 29.322 C 258.101 29.690,256.465 30.004,254.564 30.107 C 251.152 30.293,245.717 31.259,243.792 32.022 C 241.382 32.977,239.683 33.259,234.378 33.585 C 229.599 33.879,228.785 34.034,227.515 34.896 C 226.327 35.703,225.381 35.921,222.136 36.140 C 215.919 36.560,213.461 36.866,212.600 37.326 C 212.160 37.562,210.180 37.976,208.200 38.247 C 206.220 38.518,203.790 38.925,202.800 39.152 C 201.810 39.379,200.269 39.573,199.376 39.583 C 198.484 39.592,197.404 39.864,196.976 40.187 C 196.475 40.567,195.234 40.779,193.474 40.787 C 191.974 40.794,190.354 41.018,189.874 41.285 C 189.393 41.552,187.470 41.985,185.600 42.248 C 183.730 42.511,181.120 42.912,179.800 43.140 C 174.739 44.011,171.502 44.400,169.293 44.401 C 167.765 44.402,166.594 44.651,165.781 45.146 C 165.111 45.555,163.311 46.022,161.781 46.184 C 160.252 46.346,158.784 46.655,158.521 46.871 C 158.258 47.087,154.388 47.796,149.921 48.448 C 141.226 49.717,139.040 50.501,138.631 52.501 C 137.688 57.108,137.549 73.963,137.529 186.711 C 137.509 302.029,137.481 306.435,136.780 306.811 C 135.652 307.414,135.285 307.287,134.722 306.100 C 134.411 305.445,133.450 304.642,132.346 304.114 C 131.326 303.626,129.526 302.318,128.346 301.207 C 127.166 300.096,124.760 298.455,123.000 297.561 C 121.240 296.667,119.326 295.455,118.746 294.868 C 118.081 294.194,116.678 293.520,114.946 293.043 C 113.436 292.627,110.622 291.772,108.694 291.143 C 104.083 289.640,88.908 289.393,85.025 290.757 C 82.991 291.472,79.850 292.085,75.467 292.622 C 73.760 292.831,73.472 293.010,72.993 294.154 C 72.550 295.215,71.850 295.728,69.126 296.990 C 66.424 298.242,62.165 301.173,61.200 302.446 C 61.090 302.591,60.370 303.055,59.600 303.478 C 58.830 303.901,57.952 304.798,57.649 305.473 C 57.339 306.163,56.505 306.983,55.742 307.347 C 54.388 307.993,53.874 308.785,53.409 310.944 C 53.271 311.586,52.230 312.990,51.038 314.144 C 49.363 315.765,48.811 316.623,48.431 318.200 C 48.167 319.300,47.447 321.280,46.832 322.600 C 46.217 323.920,45.395 325.990,45.006 327.200 C 44.616 328.410,44.005 329.734,43.649 330.142 C 42.804 331.107,42.426 334.920,42.151 345.234 L 41.932 353.468 43.239 356.834 C 43.958 358.685,44.858 360.656,45.239 361.214 C 45.620 361.771,46.065 362.939,46.228 363.809 C 46.896 367.372,51.364 374.763,54.944 378.231 C 56.452 379.692,57.209 380.785,57.457 381.861 C 57.762 383.188,58.093 383.537,59.861 384.400 C 60.988 384.950,62.399 385.850,62.996 386.400 C 63.593 386.950,64.413 387.705,64.818 388.078 C 65.224 388.450,66.240 388.872,67.078 389.015 C 67.915 389.158,69.088 389.618,69.684 390.037 C 70.280 390.457,70.950 390.800,71.172 390.800 C 71.394 390.800,71.986 391.517,72.488 392.393 C 73.442 394.060,73.773 394.294,75.900 394.804 C 76.713 394.999,77.200 394.965,77.200 394.712 C 77.200 394.224,78.442 394.433,82.400 395.585 C 87.395 397.039,89.113 397.239,96.400 397.209 C 104.804 397.175,108.290 396.890,109.428 396.145 C 109.896 395.839,110.621 395.636,111.039 395.694 C 112.351 395.877,115.638 394.677,115.416 394.096 C 115.282 393.749,115.516 393.598,116.107 393.648 C 117.750 393.788,118.400 393.605,118.400 393.000 C 118.400 392.670,118.670 392.400,119.001 392.400 C 119.331 392.400,120.186 391.793,120.901 391.051 C 122.463 389.428,123.600 388.800,124.974 388.800 C 125.538 388.800,126.000 388.612,126.000 388.382 C 126.000 388.153,126.225 388.001,126.500 388.046 C 127.319 388.178,128.362 387.569,128.179 387.067 C 127.859 386.192,129.664 384.800,131.116 384.800 C 132.102 384.800,134.234 382.472,134.576 381.022 C 134.733 380.359,135.804 378.932,137.027 377.757 C 138.222 376.609,139.200 375.377,139.200 375.020 C 139.200 374.662,140.016 373.522,141.013 372.485 C 142.011 371.448,143.179 370.223,143.609 369.762 C 144.776 368.512,145.609 365.769,145.782 362.610 C 145.976 359.050,146.961 356.144,148.443 354.760 C 149.881 353.417,149.699 369.767,149.753 237.000 C 149.807 105.610,149.328 119.652,153.750 119.710 C 156.337 119.744,157.688 119.349,156.820 118.812 C 155.796 118.179,160.646 117.165,164.436 117.220 C 169.801 117.297,172.368 116.875,173.415 115.746 C 174.390 114.694,181.176 113.172,184.400 113.283 C 186.473 113.354,187.826 112.982,189.094 111.992 C 189.586 111.608,191.026 111.171,192.294 111.021 C 193.563 110.871,196.400 110.384,198.600 109.938 C 201.198 109.412,204.204 109.124,207.176 109.117 C 211.627 109.106,212.800 108.806,212.800 107.680 C 212.800 107.473,213.925 107.165,215.300 106.995 C 216.675 106.826,218.160 106.600,218.600 106.493 C 219.040 106.386,220.849 106.264,222.620 106.223 C 224.391 106.182,226.641 105.944,227.620 105.693 C 228.599 105.442,230.435 105.126,231.700 104.990 C 232.965 104.854,234.229 104.514,234.508 104.234 C 235.583 103.160,236.846 102.800,239.547 102.800 C 241.970 102.800,242.379 102.695,242.594 102.020 C 242.963 100.855,252.116 99.694,252.757 100.731 C 253.004 101.130,253.710 101.050,257.500 100.189 C 257.995 100.077,258.400 99.729,258.400 99.416 C 258.400 98.234,261.036 97.743,269.381 97.371 C 273.070 97.207,273.879 97.051,274.497 96.388 C 274.901 95.955,275.552 95.600,275.945 95.600 C 276.338 95.600,278.162 95.150,280.000 94.600 C 281.838 94.050,284.097 93.600,285.020 93.600 C 285.944 93.600,287.401 93.352,288.259 93.050 C 289.116 92.747,290.984 92.371,292.409 92.215 C 293.834 92.058,295.771 91.675,296.714 91.365 C 297.657 91.054,299.582 90.800,300.993 90.800 C 302.933 90.800,303.998 90.566,305.365 89.839 C 306.903 89.021,307.606 88.900,310.098 89.023 C 312.802 89.156,313.054 89.100,313.415 88.284 C 313.800 87.414,315.101 87.241,316.789 87.836 C 317.307 88.018,317.307 88.091,316.789 88.448 C 316.320 88.770,316.363 88.813,317.000 88.660 C 317.440 88.554,318.651 88.352,319.691 88.211 C 321.579 87.954,322.693 87.237,321.324 87.159 C 320.555 87.116,321.418 86.838,325.543 85.803 C 327.876 85.217,328.167 85.217,329.068 85.807 C 329.608 86.161,330.443 86.400,330.925 86.338 C 332.031 86.195,332.800 86.663,332.800 87.480 C 332.800 87.827,333.069 88.312,333.399 88.556 C 333.869 88.905,333.916 89.300,333.620 90.400 C 333.412 91.170,333.350 92.430,333.481 93.200 C 333.612 93.970,333.851 133.120,334.011 180.200 C 334.171 227.280,334.417 266.610,334.559 267.600 C 334.905 270.028,332.711 271.764,330.851 270.532 C 330.273 270.149,328.949 269.408,327.909 268.887 C 326.870 268.365,325.598 267.438,325.084 266.827 C 324.570 266.216,323.648 265.388,323.034 264.985 C 322.420 264.583,321.502 263.595,320.993 262.790 C 320.168 261.482,319.754 261.250,317.134 260.622 C 315.328 260.190,313.810 259.554,313.186 258.967 C 312.497 258.320,311.239 257.838,309.261 257.464 C 307.661 257.162,305.867 256.557,305.275 256.121 C 302.701 254.222,285.650 253.846,281.793 255.603 C 280.706 256.099,279.189 256.400,277.784 256.400 C 276.541 256.400,275.046 256.643,274.462 256.941 C 268.407 260.024,265.069 261.600,264.596 261.600 C 264.283 261.600,263.397 262.230,262.627 263.000 C 261.857 263.770,260.986 264.400,260.692 264.400 C 260.398 264.400,259.537 265.047,258.778 265.838 C 258.020 266.629,256.590 267.825,255.600 268.496 C 253.551 269.885,251.392 272.103,250.578 273.657 C 250.273 274.238,249.322 275.270,248.463 275.950 C 247.518 276.698,246.810 277.648,246.668 278.359 C 246.539 279.004,245.767 280.574,244.953 281.847 C 244.138 283.120,243.159 284.980,242.776 285.981 C 242.394 286.981,241.607 288.970,241.028 290.400 C 240.448 291.830,239.799 294.260,239.584 295.800 C 239.369 297.340,238.987 299.108,238.736 299.728 C 237.862 301.887,238.543 321.124,239.561 323.023 C 240.022 323.884,240.400 324.719,240.400 324.880 C 240.400 325.954,244.899 334.447,245.772 335.018 C 246.337 335.389,246.800 336.009,246.800 336.396 C 246.800 337.758,248.872 340.784,251.168 342.772 C 252.444 343.878,254.099 345.672,254.844 346.760 C 255.590 347.847,256.690 349.028,257.289 349.384 C 257.988 349.800,258.530 350.597,258.802 351.609 C 259.292 353.428,260.126 354.000,262.285 354.000 C 263.712 354.000,265.244 354.692,266.200 355.767 C 266.420 356.015,267.950 356.551,269.600 356.960 C 273.124 357.832,274.400 358.530,274.400 359.586 C 274.400 360.008,274.603 360.478,274.850 360.631 C 275.940 361.305,291.924 361.568,301.600 361.071 C 304.350 360.930,306.836 360.811,307.124 360.807 C 307.412 360.803,307.556 360.653,307.445 360.473 C 307.334 360.292,309.124 359.372,311.424 358.428 C 313.724 357.483,316.011 356.392,316.505 356.003 C 316.999 355.615,318.279 354.885,319.349 354.382 C 320.419 353.879,322.157 352.605,323.212 351.550 C 324.266 350.496,325.640 349.521,326.264 349.383 C 328.235 348.949,328.396 348.847,328.903 347.711 C 329.177 347.100,330.087 345.880,330.926 345.000 C 331.766 344.120,333.139 342.680,333.977 341.800 C 334.882 340.850,335.783 339.332,336.195 338.063 C 336.576 336.888,337.376 335.358,337.971 334.663 C 338.566 333.969,339.728 331.960,340.552 330.200 C 341.376 328.440,342.459 326.550,342.958 326.000 C 345.607 323.082,345.556 325.509,345.744 194.200 C 345.826 137.000,345.913 88.670,345.937 86.800 C 346.074 76.172,345.348 14.520,345.082 14.109 C 344.484 13.186,337.212 13.630,336.223 14.649 " stroke="none" fill="#e384e3" fill-rule="evenodd"></path><path id="path1" d="M349.486 20.188 C 348.214 20.466,347.044 20.823,346.886 20.980 C 346.729 21.138,346.505 87.717,346.388 168.933 L 346.177 316.600 344.918 321.200 C 344.226 323.730,343.378 326.340,343.032 327.000 C 342.687 327.660,342.404 328.339,342.402 328.508 C 342.398 329.088,338.340 337.000,337.636 337.800 C 337.249 338.240,336.470 339.410,335.903 340.400 C 334.069 343.607,325.201 352.203,322.273 353.613 C 321.573 353.950,319.943 354.914,318.651 355.756 C 309.802 361.524,296.735 363.971,283.600 362.322 C 278.290 361.655,274.219 360.677,273.777 359.963 C 273.654 359.763,273.276 359.600,272.937 359.600 C 272.598 359.600,271.754 359.348,271.060 359.040 C 270.367 358.732,268.450 357.889,266.800 357.168 C 265.150 356.446,263.203 355.420,262.474 354.887 C 260.451 353.410,260.416 354.212,262.420 356.118 C 265.213 358.775,268.784 361.435,271.391 362.800 C 272.706 363.489,273.966 364.190,274.191 364.358 C 274.416 364.526,275.590 365.064,276.800 365.553 C 278.010 366.043,279.360 366.599,279.800 366.790 C 289.492 371.000,304.102 371.275,316.000 367.470 C 331.146 362.626,344.842 349.453,349.969 334.800 C 350.469 333.370,351.023 331.840,351.199 331.400 C 351.376 330.960,351.988 328.587,352.560 326.127 L 353.600 321.654 353.600 170.627 L 353.600 19.600 352.700 19.641 C 352.205 19.664,350.759 19.910,349.486 20.188 M328.894 86.441 C 327.296 86.594,325.697 86.830,325.343 86.967 C 324.439 87.314,319.908 88.193,313.800 89.207 C 310.940 89.682,307.430 90.317,306.000 90.618 C 304.570 90.919,302.230 91.368,300.800 91.615 C 299.370 91.862,296.310 92.498,294.000 93.028 C 291.690 93.558,288.180 94.256,286.200 94.580 C 284.220 94.903,279.990 95.694,276.800 96.338 C 273.610 96.983,269.740 97.734,268.200 98.009 C 263.089 98.919,262.227 99.091,258.494 99.951 C 256.455 100.421,253.575 100.984,252.094 101.202 C 248.978 101.663,245.890 102.228,237.000 103.967 C 227.396 105.845,224.797 106.325,222.600 106.627 C 221.500 106.777,220.419 107.044,220.198 107.218 C 219.977 107.392,218.297 107.740,216.465 107.991 C 214.633 108.242,212.744 108.610,212.267 108.809 C 211.790 109.007,209.510 109.454,207.200 109.801 C 204.890 110.149,199.850 111.080,196.000 111.872 C 192.150 112.664,188.190 113.448,187.200 113.614 C 186.210 113.780,183.870 114.213,182.000 114.576 C 180.130 114.939,177.644 115.400,176.475 115.601 C 175.307 115.802,173.777 116.151,173.075 116.377 C 172.374 116.602,169.910 117.073,167.600 117.422 C 163.612 118.025,161.968 118.335,154.000 119.981 L 150.600 120.683 150.273 126.442 C 150.094 129.609,150.034 180.790,150.141 240.178 C 150.346 353.719,150.387 350.529,148.663 356.800 C 147.445 361.233,144.732 368.343,143.652 369.929 C 143.252 370.518,142.491 371.661,141.962 372.469 C 133.146 385.933,121.883 393.784,106.400 397.258 C 98.610 399.006,83.594 398.183,78.720 395.741 C 78.126 395.444,77.292 395.200,76.866 395.200 C 76.441 395.200,74.654 394.480,72.896 393.600 C 71.138 392.720,69.512 392.000,69.283 392.000 C 69.054 392.000,68.807 391.865,68.733 391.700 C 68.533 391.249,64.400 388.789,64.400 389.121 C 64.400 390.980,73.998 397.910,80.800 400.963 C 113.046 415.433,150.896 394.737,156.811 359.400 C 157.074 357.830,157.206 317.561,157.193 242.995 C 157.176 150.776,157.271 128.857,157.686 128.291 C 158.010 127.850,159.307 127.385,161.200 127.033 C 162.850 126.726,167.170 125.918,170.800 125.237 C 177.837 123.918,177.893 123.908,183.400 122.928 C 185.380 122.576,187.888 122.043,188.973 121.744 C 190.058 121.445,191.531 121.200,192.247 121.200 C 192.962 121.200,194.055 121.004,194.674 120.764 C 195.714 120.361,198.300 119.855,207.800 118.194 C 209.780 117.848,212.660 117.311,214.200 117.001 C 215.740 116.690,218.530 116.164,220.400 115.832 C 222.270 115.499,225.060 114.943,226.600 114.596 C 228.140 114.249,230.750 113.717,232.400 113.413 C 234.050 113.109,238.820 112.207,243.000 111.408 C 251.998 109.688,258.564 108.470,261.600 107.958 C 262.810 107.754,264.880 107.341,266.200 107.041 C 270.847 105.983,277.462 104.712,286.400 103.159 C 288.930 102.719,293.160 101.898,295.800 101.334 C 298.440 100.770,301.537 100.166,302.682 99.991 C 303.827 99.817,305.357 99.498,306.082 99.283 C 306.807 99.069,309.200 98.584,311.400 98.206 C 313.600 97.828,316.570 97.278,318.000 96.983 C 319.430 96.689,322.400 96.155,324.600 95.798 C 326.800 95.441,329.050 94.994,329.600 94.807 C 330.150 94.619,331.095 94.357,331.700 94.225 C 332.799 93.985,332.800 93.982,332.800 90.441 C 332.800 86.158,332.718 86.074,328.894 86.441 " stroke="none" fill="#898189" fill-rule="evenodd"></path><path id="path2" d="M340.200 13.010 C 338.000 13.290,334.850 13.815,333.200 14.177 C 329.311 15.029,327.389 15.404,323.000 16.166 C 317.106 17.190,312.737 17.970,310.400 18.417 C 306.237 19.214,303.792 19.646,300.400 20.187 C 298.530 20.485,296.730 20.831,296.400 20.956 C 296.070 21.082,294.540 21.352,293.000 21.557 C 289.648 22.003,284.487 22.916,280.474 23.774 C 278.864 24.118,277.008 24.400,276.348 24.400 C 275.687 24.400,274.814 24.579,274.406 24.797 C 273.998 25.015,271.894 25.462,269.732 25.790 C 264.229 26.625,259.997 27.458,258.674 27.967 C 258.055 28.205,256.649 28.400,255.551 28.400 C 254.453 28.400,252.800 28.570,251.877 28.777 C 250.955 28.985,248.691 29.439,246.847 29.786 C 245.003 30.134,243.329 30.520,243.127 30.645 C 242.709 30.903,237.121 31.790,231.800 32.441 C 229.820 32.684,228.011 33.036,227.779 33.224 C 227.548 33.412,226.018 33.762,224.379 34.001 C 222.741 34.240,220.410 34.631,219.200 34.871 C 217.990 35.110,216.010 35.439,214.800 35.601 C 213.590 35.763,211.070 36.205,209.200 36.583 C 201.712 38.098,199.982 38.400,198.791 38.400 C 198.107 38.400,197.244 38.561,196.874 38.759 C 196.503 38.956,194.670 39.322,192.800 39.572 C 190.930 39.822,187.600 40.380,185.400 40.813 C 183.200 41.246,179.741 41.856,177.713 42.169 C 175.685 42.481,173.814 42.868,173.555 43.028 C 173.296 43.188,171.446 43.547,169.442 43.827 C 163.812 44.614,160.314 45.215,159.000 45.623 C 157.654 46.040,152.482 46.887,145.600 47.818 C 140.704 48.480,137.712 49.346,136.905 50.334 C 136.514 50.812,136.408 77.482,136.402 177.301 C 136.395 299.915,136.326 307.977,135.298 304.894 C 135.206 304.617,134.291 303.822,133.265 303.127 C 132.239 302.432,130.747 301.309,129.949 300.632 C 126.322 297.552,125.669 297.086,123.600 296.104 C 122.390 295.530,120.770 294.564,120.000 293.958 C 119.230 293.351,117.431 292.564,116.000 292.207 C 114.570 291.850,112.230 291.134,110.800 290.614 C 105.992 288.868,104.186 288.633,95.600 288.637 C 86.873 288.642,84.800 288.932,78.611 291.009 C 76.988 291.554,75.274 292.000,74.803 292.000 C 74.332 292.000,73.374 292.430,72.673 292.955 C 71.973 293.481,70.410 294.402,69.200 295.003 C 66.039 296.573,62.301 299.237,58.163 302.870 C 55.181 305.487,49.600 312.212,49.600 313.187 C 49.600 313.399,49.083 314.163,48.450 314.886 C 40.698 323.746,37.989 352.005,43.858 362.800 C 44.276 363.570,45.050 365.280,45.578 366.600 C 46.105 367.920,46.955 369.627,47.468 370.393 C 47.981 371.159,48.400 371.975,48.400 372.206 C 48.400 372.680,52.718 378.035,55.371 380.850 C 56.330 381.868,57.223 383.042,57.355 383.458 C 57.487 383.875,58.231 384.558,59.007 384.976 C 59.784 385.394,60.764 386.291,61.186 386.968 C 62.232 388.645,65.584 391.813,69.200 394.540 C 70.850 395.784,72.380 396.945,72.600 397.120 C 73.349 397.714,77.736 399.997,77.870 399.863 C 77.944 399.790,77.058 399.219,75.902 398.595 C 72.078 396.531,64.400 390.207,64.400 389.121 C 64.400 388.789,68.533 391.249,68.733 391.700 C 68.807 391.865,69.117 392.000,69.424 392.000 C 69.730 392.000,70.570 392.359,71.290 392.799 C 72.011 393.238,72.745 393.598,72.923 393.599 C 73.431 393.601,71.868 391.137,71.200 390.882 C 70.870 390.757,70.150 390.344,69.600 389.964 C 69.050 389.585,67.915 389.158,67.078 389.015 C 66.240 388.872,65.224 388.450,64.818 388.078 C 64.413 387.705,63.593 386.950,62.996 386.400 C 62.399 385.850,60.988 384.950,59.861 384.400 C 58.093 383.537,57.762 383.188,57.457 381.861 C 57.209 380.785,56.452 379.692,54.944 378.231 C 51.364 374.763,46.896 367.372,46.228 363.809 C 46.065 362.939,45.620 361.771,45.239 361.214 C 44.858 360.656,43.958 358.685,43.239 356.834 L 41.932 353.468 42.151 345.234 C 42.426 334.920,42.804 331.107,43.649 330.142 C 44.005 329.734,44.616 328.410,45.006 327.200 C 45.395 325.990,46.217 323.920,46.832 322.600 C 47.447 321.280,48.167 319.300,48.431 318.200 C 48.811 316.623,49.363 315.765,51.038 314.144 C 52.230 312.990,53.271 311.586,53.409 310.944 C 53.874 308.785,54.388 307.993,55.742 307.347 C 56.505 306.983,57.339 306.163,57.649 305.473 C 57.952 304.798,58.830 303.901,59.600 303.478 C 60.370 303.055,61.090 302.591,61.200 302.446 C 62.165 301.173,66.424 298.242,69.126 296.990 C 71.850 295.728,72.550 295.215,72.993 294.154 C 73.472 293.010,73.760 292.831,75.467 292.622 C 79.850 292.085,82.991 291.472,85.025 290.757 C 88.908 289.393,104.083 289.640,108.694 291.143 C 110.622 291.772,113.436 292.627,114.946 293.043 C 116.678 293.520,118.081 294.194,118.746 294.868 C 119.326 295.455,121.240 296.667,123.000 297.561 C 124.760 298.455,127.166 300.096,128.346 301.207 C 129.526 302.318,131.326 303.626,132.346 304.114 C 133.450 304.642,134.411 305.445,134.722 306.100 C 135.285 307.287,135.652 307.414,136.780 306.811 C 137.481 306.435,137.509 302.029,137.529 186.711 C 137.549 73.963,137.688 57.108,138.631 52.501 C 139.040 50.501,141.226 49.717,149.921 48.448 C 154.388 47.796,158.258 47.087,158.521 46.871 C 158.784 46.655,160.252 46.346,161.781 46.184 C 163.311 46.022,165.111 45.555,165.781 45.146 C 166.594 44.651,167.765 44.402,169.293 44.401 C 171.502 44.400,174.739 44.011,179.800 43.140 C 181.120 42.912,183.730 42.511,185.600 42.248 C 187.470 41.985,189.393 41.552,189.874 41.285 C 190.354 41.018,191.974 40.794,193.474 40.787 C 195.234 40.779,196.475 40.567,196.976 40.187 C 197.404 39.864,198.484 39.592,199.376 39.583 C 200.269 39.573,201.810 39.379,202.800 39.152 C 203.790 38.925,206.220 38.518,208.200 38.247 C 210.180 37.976,212.160 37.562,212.600 37.326 C 213.461 36.866,215.919 36.560,222.136 36.140 C 225.381 35.921,226.327 35.703,227.515 34.896 C 228.785 34.034,229.599 33.879,234.378 33.585 C 239.683 33.259,241.382 32.977,243.792 32.022 C 245.717 31.259,251.152 30.293,254.564 30.107 C 256.465 30.004,258.101 29.690,258.663 29.322 C 259.671 28.661,263.433 27.880,269.800 27.008 C 279.040 25.743,280.256 25.547,281.400 25.134 C 282.715 24.659,287.113 23.876,292.400 23.176 C 294.270 22.928,296.430 22.432,297.200 22.072 C 297.970 21.713,299.950 21.301,301.600 21.158 C 307.799 20.619,312.069 19.985,313.117 19.448 C 313.713 19.143,315.550 18.760,317.200 18.597 C 318.850 18.434,320.600 18.150,321.089 17.965 C 321.578 17.780,324.998 17.149,328.689 16.563 C 334.177 15.691,335.553 15.340,336.237 14.634 C 336.986 13.862,337.492 13.772,341.037 13.785 L 345.000 13.800 345.257 16.200 C 345.398 17.520,345.543 32.550,345.580 49.600 C 345.616 66.650,345.795 81.320,345.977 82.200 C 346.164 83.105,346.331 70.329,346.360 52.800 C 346.389 35.750,346.568 21.553,346.759 21.252 C 346.950 20.951,348.613 20.384,350.453 19.993 C 352.294 19.602,353.425 19.263,352.967 19.241 C 352.508 19.218,351.116 19.404,349.873 19.654 C 346.747 20.282,346.400 19.933,346.400 16.165 C 346.400 13.273,345.879 12.240,344.526 12.451 C 344.347 12.479,342.400 12.730,340.200 13.010 M353.798 170.600 C 353.798 253.540,353.844 287.530,353.900 246.133 C 353.956 204.735,353.956 136.875,353.900 95.333 C 353.844 53.790,353.798 87.660,353.798 170.600 M325.200 85.852 C 323.990 86.174,322.460 86.577,321.800 86.750 L 320.600 87.063 321.823 87.346 C 322.556 87.516,323.993 87.383,325.407 87.015 C 326.706 86.677,328.225 86.394,328.784 86.387 C 329.764 86.375,329.772 86.354,329.024 85.787 C 328.108 85.095,328.047 85.096,325.200 85.852 M313.658 87.702 C 313.406 87.954,313.200 88.389,313.200 88.668 C 313.200 89.047,312.434 89.138,310.186 89.027 C 307.598 88.900,306.916 89.014,305.365 89.839 C 303.998 90.566,302.933 90.800,300.993 90.800 C 299.582 90.800,297.657 91.054,296.714 91.365 C 295.771 91.675,293.834 92.058,292.409 92.215 C 290.984 92.371,289.116 92.747,288.259 93.050 C 287.401 93.352,285.944 93.600,285.020 93.600 C 284.097 93.600,281.838 94.050,280.000 94.600 C 278.162 95.150,276.376 95.603,276.030 95.606 C 275.231 95.614,274.150 96.283,274.451 96.584 C 274.576 96.709,276.461 96.444,278.639 95.995 C 280.818 95.546,284.220 94.912,286.200 94.585 C 288.180 94.259,291.690 93.557,294.000 93.025 C 296.310 92.492,299.460 91.849,301.000 91.595 C 302.540 91.341,304.340 90.974,305.000 90.780 C 305.660 90.585,308.090 90.149,310.400 89.810 C 316.911 88.854,318.570 88.073,315.358 87.475 C 314.648 87.342,313.921 87.439,313.658 87.702 M332.800 91.159 C 332.800 93.917,332.774 93.991,331.700 94.225 C 331.095 94.357,330.150 94.619,329.600 94.807 C 329.050 94.994,326.800 95.441,324.600 95.798 C 322.400 96.155,319.430 96.692,318.000 96.992 C 316.570 97.291,314.083 97.748,312.474 98.009 C 310.865 98.269,309.641 98.575,309.755 98.688 C 309.868 98.802,311.095 98.686,312.481 98.432 C 321.270 96.817,329.916 95.180,330.600 95.000 C 332.738 94.438,332.600 88.462,332.600 181.771 C 332.600 277.352,332.815 269.944,330.082 268.581 C 329.382 268.232,328.672 267.706,328.505 267.412 C 328.139 266.771,319.997 260.400,319.544 260.400 C 319.370 260.400,317.379 259.500,315.121 258.400 C 312.863 257.300,310.809 256.400,310.557 256.400 C 310.305 256.400,308.771 255.882,307.149 255.249 C 301.275 252.956,287.138 252.370,280.732 254.152 C 279.560 254.479,277.790 254.868,276.800 255.018 C 275.810 255.168,274.806 255.446,274.569 255.637 C 274.332 255.827,272.982 256.347,271.569 256.791 C 270.156 257.234,268.280 258.038,267.400 258.575 C 266.520 259.113,264.857 260.026,263.704 260.603 C 261.275 261.821,258.536 263.818,255.651 266.476 C 254.531 267.508,253.383 268.498,253.100 268.676 C 252.020 269.357,246.225 276.457,245.098 278.480 C 238.841 289.717,237.254 295.208,236.913 306.800 C 236.717 313.459,237.623 321.802,238.778 323.958 C 239.010 324.392,239.200 325.047,239.200 325.414 C 239.200 327.690,245.688 339.010,249.509 343.400 C 251.750 345.974,258.014 352.691,260.400 355.078 C 264.254 358.933,272.572 364.566,276.359 365.886 C 278.648 366.683,278.787 366.450,276.599 365.484 C 275.498 364.998,274.384 364.461,274.123 364.291 C 273.862 364.122,272.603 363.435,271.324 362.765 C 266.495 360.236,259.427 353.857,258.755 351.420 C 258.527 350.595,257.928 349.765,257.285 349.382 C 256.688 349.027,255.590 347.847,254.844 346.760 C 254.099 345.672,252.444 343.878,251.168 342.772 C 248.872 340.784,246.800 337.758,246.800 336.396 C 246.800 336.009,246.337 335.389,245.772 335.018 C 244.899 334.447,240.400 325.954,240.400 324.880 C 240.400 324.719,240.022 323.884,239.561 323.023 C 238.543 321.124,237.862 301.887,238.736 299.728 C 238.987 299.108,239.369 297.340,239.584 295.800 C 239.799 294.260,240.448 291.830,241.028 290.400 C 241.607 288.970,242.394 286.981,242.776 285.981 C 243.159 284.980,244.138 283.120,244.953 281.847 C 245.767 280.574,246.539 279.004,246.668 278.359 C 246.810 277.648,247.518 276.698,248.463 275.950 C 249.322 275.270,250.273 274.238,250.578 273.657 C 251.392 272.103,253.551 269.885,255.600 268.496 C 256.590 267.825,258.020 266.629,258.778 265.838 C 259.537 265.047,260.398 264.400,260.692 264.400 C 260.986 264.400,261.857 263.770,262.627 263.000 C 263.397 262.230,264.283 261.600,264.596 261.600 C 265.069 261.600,268.407 260.024,274.462 256.941 C 275.046 256.643,276.541 256.400,277.784 256.400 C 279.189 256.400,280.706 256.099,281.793 255.603 C 285.650 253.846,302.701 254.222,305.275 256.121 C 305.867 256.557,307.661 257.162,309.261 257.464 C 311.239 257.838,312.497 258.320,313.186 258.967 C 313.810 259.554,315.328 260.190,317.134 260.622 C 319.754 261.250,320.168 261.482,320.993 262.790 C 321.502 263.595,322.420 264.583,323.034 264.985 C 323.648 265.388,324.570 266.216,325.084 266.827 C 325.598 267.438,326.870 268.365,327.909 268.887 C 328.949 269.408,330.273 270.149,330.851 270.532 C 332.711 271.764,334.905 270.028,334.559 267.600 C 334.417 266.610,334.161 227.190,333.988 180.000 C 333.816 132.810,333.625 93.480,333.564 92.600 C 333.504 91.720,333.532 90.479,333.627 89.842 C 333.732 89.139,333.603 88.615,333.300 88.509 C 332.931 88.379,332.800 89.072,332.800 91.159 M345.895 93.800 C 345.727 96.220,345.577 143.830,345.561 199.600 C 345.531 306.133,345.509 310.887,345.015 315.448 C 344.697 318.388,345.211 319.809,345.828 317.695 C 346.124 316.682,346.552 122.513,346.308 99.600 C 346.214 90.709,346.161 89.965,345.895 93.800 M265.000 97.623 C 264.120 97.805,262.623 97.964,261.674 97.977 C 260.724 97.990,259.599 98.186,259.174 98.414 C 258.190 98.941,258.130 100.125,259.100 99.870 C 260.981 99.375,263.717 98.792,266.800 98.228 C 268.670 97.887,270.560 97.537,271.000 97.450 C 271.440 97.364,270.630 97.293,269.200 97.292 C 267.770 97.292,265.880 97.441,265.000 97.623 M305.400 99.411 C 303.270 100.113,304.470 100.112,307.000 99.409 C 308.103 99.103,308.552 98.861,308.000 98.869 C 307.450 98.877,306.280 99.121,305.400 99.411 M300.200 100.400 L 299.400 100.744 300.200 100.725 C 300.640 100.714,301.540 100.568,302.200 100.400 L 303.400 100.095 302.200 100.075 C 301.540 100.065,300.640 100.211,300.200 100.400 M246.600 100.677 C 243.620 100.874,242.880 101.119,242.600 102.001 C 242.379 102.698,241.994 102.800,239.592 102.800 C 236.939 102.800,234.800 103.364,234.800 104.064 C 234.800 104.481,234.286 104.540,239.200 103.559 C 244.946 102.411,249.075 101.643,251.100 101.343 C 255.360 100.712,252.486 100.287,246.600 100.677 M287.400 103.018 L 285.000 103.548 287.200 103.329 C 288.410 103.209,289.670 102.956,290.000 102.768 C 290.771 102.327,290.338 102.368,287.400 103.018 M278.400 104.609 C 276.090 105.105,274.496 105.531,274.857 105.555 C 275.488 105.598,283.378 104.129,284.200 103.816 C 285.367 103.370,282.070 103.821,278.400 104.609 M271.000 106.010 C 270.466 106.247,270.798 106.286,272.000 106.127 C 272.990 105.996,273.875 105.824,273.967 105.744 C 274.314 105.443,271.764 105.672,271.000 106.010 M219.466 106.267 C 219.320 106.414,218.885 106.568,218.500 106.610 C 214.018 107.101,212.800 107.359,212.800 107.818 C 212.800 108.102,212.665 108.409,212.500 108.501 C 212.335 108.593,212.413 108.619,212.674 108.557 C 212.934 108.496,214.620 108.244,216.420 107.997 C 218.220 107.751,219.986 107.394,220.346 107.205 C 220.706 107.015,221.810 106.688,222.800 106.478 L 224.600 106.096 222.167 106.048 C 220.828 106.022,219.613 106.120,219.466 106.267 M259.000 108.400 L 258.200 108.744 259.000 108.744 C 259.440 108.744,260.160 108.589,260.600 108.400 L 261.400 108.056 260.600 108.056 C 260.160 108.056,259.440 108.211,259.000 108.400 M204.200 109.079 C 203.320 109.159,200.800 109.564,198.600 109.980 C 196.400 110.396,193.610 110.858,192.400 111.006 C 191.190 111.155,189.750 111.574,189.200 111.938 C 188.650 112.302,187.750 112.824,187.200 113.097 C 185.639 113.873,187.723 113.573,197.000 111.687 C 201.400 110.793,206.080 109.926,207.400 109.760 C 211.290 109.273,208.537 108.687,204.200 109.079 M251.600 109.704 C 250.390 109.928,249.582 110.178,249.805 110.258 C 250.027 110.338,251.467 110.153,253.005 109.848 C 254.542 109.543,255.350 109.294,254.800 109.294 C 254.250 109.295,252.810 109.479,251.600 109.704 M245.000 111.008 C 243.680 111.286,243.050 111.525,243.600 111.539 C 244.150 111.553,245.680 111.321,247.000 111.024 C 248.320 110.726,248.950 110.487,248.400 110.492 C 247.850 110.498,246.320 110.730,245.000 111.008 M240.200 111.867 C 239.760 111.963,238.441 112.228,237.268 112.456 C 236.096 112.683,235.207 112.941,235.294 113.027 C 235.468 113.201,242.102 112.012,242.367 111.759 C 242.570 111.565,241.295 111.628,240.200 111.867 M178.092 114.046 C 175.589 114.544,174.095 115.060,173.492 115.637 L 172.600 116.491 173.461 116.231 C 173.935 116.088,175.285 115.805,176.461 115.603 C 182.941 114.491,185.386 113.974,185.713 113.647 C 186.325 113.035,182.058 113.258,178.092 114.046 M232.900 113.476 C 233.285 113.576,233.915 113.576,234.300 113.476 C 234.685 113.375,234.370 113.293,233.600 113.293 C 232.830 113.293,232.515 113.375,232.900 113.476 M229.400 114.000 L 228.600 114.344 229.400 114.344 C 229.840 114.344,230.560 114.189,231.000 114.000 L 231.800 113.656 231.000 113.656 C 230.560 113.656,229.840 113.811,229.400 114.000 M224.000 115.200 C 223.196 115.457,223.157 115.523,223.800 115.532 C 224.240 115.538,224.960 115.389,225.400 115.200 C 226.419 114.762,225.368 114.762,224.000 115.200 M217.400 116.400 C 216.322 116.674,216.302 116.706,217.200 116.713 C 217.750 116.717,218.650 116.576,219.200 116.400 C 220.544 115.969,219.092 115.969,217.400 116.400 M158.271 117.892 C 155.324 118.874,156.867 119.337,160.672 118.613 C 167.852 117.246,167.755 117.287,163.800 117.268 C 161.514 117.256,159.496 117.484,158.271 117.892 M211.200 117.600 C 209.833 117.888,209.828 117.895,211.000 117.919 C 211.660 117.933,212.560 117.789,213.000 117.600 C 213.962 117.187,213.164 117.187,211.200 117.600 M205.200 118.598 C 203.770 118.891,201.700 119.316,200.600 119.543 L 198.600 119.956 200.800 119.757 C 202.850 119.572,205.333 119.109,208.200 118.378 C 210.216 117.864,207.985 118.027,205.200 118.598 M151.200 120.025 C 151.200 120.472,152.677 120.472,153.800 120.026 C 154.395 119.789,154.164 119.700,152.900 119.679 C 151.965 119.663,151.200 119.819,151.200 120.025 M195.200 120.600 C 193.370 121.305,194.078 121.310,196.600 120.609 C 197.758 120.288,198.179 120.055,197.600 120.057 C 197.050 120.059,195.970 120.303,195.200 120.600 M189.000 121.789 C 186.912 122.477,187.594 122.485,190.600 121.808 C 192.098 121.470,192.549 121.266,191.800 121.264 C 191.140 121.263,189.880 121.499,189.000 121.789 M149.808 126.900 C 149.487 132.249,149.674 349.259,150.000 348.933 C 150.163 348.770,150.314 122.001,150.151 122.000 C 150.125 122.000,149.970 124.205,149.808 126.900 M182.200 123.200 C 181.111 123.477,181.093 123.507,182.000 123.525 C 182.550 123.535,183.360 123.389,183.800 123.200 C 184.786 122.776,183.866 122.776,182.200 123.200 M177.922 123.811 C 177.806 123.928,176.921 124.192,175.955 124.399 L 174.200 124.776 176.000 124.595 C 176.990 124.496,178.520 124.252,179.400 124.053 L 181.000 123.692 179.567 123.646 C 178.778 123.621,178.038 123.695,177.922 123.811 M169.800 125.408 C 168.480 125.686,167.850 125.925,168.400 125.939 C 168.950 125.953,170.480 125.721,171.800 125.424 C 173.120 125.126,173.750 124.887,173.200 124.892 C 172.650 124.898,171.120 125.130,169.800 125.408 M164.600 126.419 C 164.042 126.671,164.285 126.707,165.400 126.538 C 166.280 126.404,167.075 126.228,167.167 126.147 C 167.510 125.844,165.368 126.071,164.600 126.419 M157.613 128.375 C 157.329 128.906,157.230 163.320,157.300 237.675 L 157.401 346.200 157.501 237.631 C 157.593 137.254,157.650 129.008,158.262 128.331 C 158.635 127.919,158.729 127.600,158.476 127.600 C 158.230 127.600,157.841 127.949,157.613 128.375 M342.691 326.299 C 342.341 326.687,341.379 328.443,340.554 330.202 C 339.729 331.961,338.566 333.969,337.971 334.663 C 337.376 335.358,336.576 336.888,336.195 338.063 C 335.783 339.332,334.882 340.850,333.977 341.800 C 333.139 342.680,331.766 344.120,330.926 345.000 C 330.087 345.880,329.177 347.100,328.903 347.711 C 328.396 348.847,328.235 348.949,326.264 349.383 C 325.640 349.521,324.266 350.496,323.212 351.550 C 322.157 352.605,320.419 353.879,319.349 354.382 C 318.279 354.885,316.999 355.615,316.505 356.003 C 316.011 356.392,313.724 357.483,311.424 358.428 C 306.865 360.300,305.953 361.382,310.310 359.748 C 314.528 358.167,316.122 357.405,318.648 355.758 C 319.942 354.915,321.573 353.950,322.273 353.613 C 325.201 352.203,334.069 343.607,335.903 340.400 C 336.470 339.410,337.249 338.240,337.636 337.800 C 338.407 336.923,342.114 329.599,342.596 328.000 C 342.762 327.450,343.082 326.771,343.306 326.490 C 343.950 325.686,343.400 325.516,342.691 326.299 M352.023 328.298 C 351.744 329.564,351.325 331.005,351.091 331.499 C 350.857 331.994,350.762 332.495,350.879 332.612 C 350.996 332.730,351.274 332.325,351.497 331.713 C 352.113 330.016,352.909 326.375,352.707 326.174 C 352.609 326.076,352.301 327.032,352.023 328.298 M349.811 335.309 C 347.843 340.862,343.001 348.462,338.029 353.800 L 335.422 356.600 337.947 354.200 C 342.970 349.425,352.013 334.680,350.715 333.381 C 350.625 333.292,350.218 334.159,349.811 335.309 M262.509 354.914 C 263.120 355.401,264.740 356.285,266.109 356.878 C 267.479 357.470,269.445 358.325,270.478 358.778 C 271.511 359.230,272.600 359.600,272.898 359.600 C 273.196 359.600,273.656 359.816,273.920 360.080 C 274.293 360.453,274.400 360.366,274.400 359.689 C 274.400 358.530,273.209 357.854,269.600 356.960 C 267.950 356.551,266.420 356.015,266.200 355.767 C 265.303 354.758,263.752 354.001,262.611 354.014 L 261.400 354.029 262.509 354.914 M148.130 355.127 C 147.032 355.988,146.100 358.805,145.764 362.273 C 145.354 366.499,146.740 363.881,148.638 356.843 C 149.313 354.340,149.279 354.226,148.130 355.127 M156.887 358.100 C 156.631 360.135,156.325 362.430,156.207 363.200 C 156.067 364.117,156.192 363.910,156.569 362.600 C 157.139 360.622,157.867 354.400,157.528 354.400 C 157.432 354.400,157.143 356.065,156.887 358.100 M333.662 357.662 C 332.926 358.319,332.386 358.917,332.462 358.989 C 332.669 359.188,335.378 356.844,335.175 356.641 C 335.078 356.545,334.397 357.004,333.662 357.662 M328.319 361.531 C 326.844 362.561,323.830 364.199,321.621 365.171 C 317.805 366.850,316.130 367.926,319.439 366.572 C 323.864 364.761,330.338 361.072,331.016 359.974 C 331.356 359.425,331.247 359.487,328.319 361.531 M277.817 361.145 C 275.351 362.164,295.059 363.342,299.344 362.432 C 300.255 362.238,302.035 361.959,303.300 361.811 C 307.716 361.295,305.916 360.653,301.100 361.027 C 295.580 361.455,283.787 361.504,280.800 361.111 C 279.590 360.952,278.248 360.967,277.817 361.145 M155.246 366.039 C 155.001 366.743,154.813 367.518,154.828 367.760 C 154.844 368.002,155.114 367.496,155.430 366.635 C 155.745 365.774,155.933 365.000,155.848 364.915 C 155.762 364.829,155.492 365.335,155.246 366.039 M310.400 369.000 C 309.119 369.371,308.888 369.531,309.600 369.555 C 310.150 369.573,311.320 369.329,312.200 369.012 C 314.180 368.298,312.852 368.290,310.400 369.000 M153.276 371.676 C 152.577 373.250,152.068 374.601,152.145 374.678 C 152.222 374.755,152.859 373.533,153.562 371.962 C 154.264 370.391,154.773 369.040,154.693 368.960 C 154.613 368.880,153.976 370.102,153.276 371.676 M286.400 369.180 C 287.399 369.520,289.882 369.732,289.567 369.451 C 289.475 369.369,288.500 369.199,287.400 369.072 C 286.051 368.916,285.726 368.951,286.400 369.180 M142.616 370.768 C 142.284 371.411,141.482 372.314,140.835 372.775 C 140.187 373.236,139.452 374.235,139.202 374.994 C 138.946 375.770,138.052 376.925,137.161 377.631 C 135.631 378.843,134.400 380.635,134.400 381.650 C 134.400 382.421,136.314 380.444,138.323 377.600 C 139.332 376.170,140.582 374.481,141.098 373.847 C 142.101 372.616,143.749 369.600,143.418 369.600 C 143.310 369.600,142.949 370.126,142.616 370.768 M293.200 370.215 C 296.667 370.823,303.413 370.719,306.400 370.011 C 307.265 369.806,306.577 369.778,304.600 369.939 C 300.481 370.275,296.563 370.263,292.800 369.904 L 289.800 369.618 293.200 370.215 M149.813 378.518 C 146.153 384.655,141.604 389.858,136.300 393.974 C 134.815 395.126,133.600 396.155,133.600 396.260 C 133.600 396.862,140.532 390.942,143.013 388.220 C 146.868 383.991,152.469 375.935,151.929 375.395 C 151.841 375.308,150.889 376.713,149.813 378.518 M129.400 385.324 C 128.534 385.840,128.016 386.425,128.006 386.900 C 127.995 387.452,128.589 387.177,129.985 385.984 C 131.347 384.820,130.967 384.390,129.400 385.324 M126.000 388.400 C 126.000 388.620,125.538 388.800,124.974 388.800 C 123.600 388.800,122.463 389.428,120.901 391.051 C 120.186 391.793,119.331 392.400,119.001 392.400 C 118.670 392.400,118.400 392.580,118.400 392.800 C 118.400 393.352,118.398 393.352,121.044 391.961 C 126.305 389.193,127.919 388.000,126.400 388.000 C 126.180 388.000,126.000 388.180,126.000 388.400 M77.200 394.694 C 77.200 397.276,103.193 399.740,105.552 397.381 C 105.914 397.019,105.285 397.003,98.400 397.200 C 90.863 397.415,87.407 397.069,82.400 395.595 C 78.500 394.447,77.200 394.221,77.200 394.694 M109.600 396.000 C 109.132 396.302,109.243 396.389,110.100 396.394 C 110.705 396.397,111.200 396.220,111.200 396.000 C 111.200 395.494,110.383 395.494,109.600 396.000 M129.427 398.591 C 128.562 399.123,125.682 400.398,123.027 401.425 C 116.637 403.897,116.323 404.035,117.800 403.733 C 120.538 403.172,130.466 398.864,130.995 398.008 C 131.343 397.444,131.218 397.491,129.427 398.591 M80.139 401.046 C 81.206 401.601,82.176 401.957,82.296 401.838 C 82.503 401.631,79.027 399.980,78.467 400.019 C 78.320 400.029,79.073 400.491,80.139 401.046 M87.546 403.816 C 88.286 404.137,89.186 404.392,89.546 404.382 C 89.906 404.373,89.480 404.105,88.600 403.788 C 86.527 403.042,85.806 403.060,87.546 403.816 M91.858 404.786 C 92.330 404.983,94.040 405.237,95.658 405.352 C 98.352 405.544,98.415 405.532,96.400 405.214 C 91.867 404.498,90.960 404.413,91.858 404.786 M112.704 404.629 C 112.578 404.756,111.243 405.002,109.737 405.177 C 107.453 405.442,107.298 405.502,108.800 405.540 C 110.562 405.584,115.409 404.506,113.767 404.436 C 113.308 404.416,112.830 404.503,112.704 404.629 M101.511 405.893 C 102.451 405.978,103.891 405.977,104.711 405.891 C 105.530 405.805,104.760 405.736,103.000 405.737 C 101.240 405.739,100.570 405.809,101.511 405.893 " stroke="none" fill="#e8bce8" fill-rule="evenodd"></path><path id="path3" d="M341.200 12.234 C 339.550 12.544,336.760 13.091,335.000 13.449 C 333.240 13.807,330.900 14.241,329.800 14.413 C 328.700 14.585,326.270 15.023,324.400 15.386 C 322.530 15.749,319.380 16.299,317.400 16.608 C 315.420 16.916,312.270 17.440,310.400 17.771 C 308.530 18.102,306.010 18.539,304.800 18.741 C 303.590 18.944,301.880 19.293,301.000 19.516 C 300.120 19.740,297.870 20.129,296.000 20.379 C 294.130 20.630,291.880 21.021,291.000 21.249 C 290.120 21.476,288.186 21.817,286.701 22.006 C 285.217 22.196,283.835 22.455,283.630 22.581 C 283.426 22.708,281.333 23.082,278.981 23.412 C 276.629 23.742,274.548 24.108,274.358 24.226 C 274.020 24.435,273.220 24.587,265.800 25.855 C 263.820 26.193,261.300 26.643,260.200 26.854 C 259.100 27.065,256.580 27.492,254.600 27.803 C 252.620 28.114,249.920 28.539,248.600 28.748 C 247.280 28.956,245.750 29.298,245.200 29.507 C 244.650 29.716,242.670 30.102,240.800 30.364 C 238.930 30.626,236.230 31.103,234.800 31.425 C 233.370 31.746,230.874 32.190,229.253 32.410 C 227.633 32.630,226.147 32.909,225.952 33.030 C 225.757 33.150,224.383 33.402,222.899 33.588 C 221.414 33.775,217.320 34.495,213.800 35.188 C 210.280 35.881,206.320 36.599,205.000 36.784 C 203.680 36.968,202.093 37.317,201.474 37.560 C 200.855 37.802,199.561 38.000,198.600 38.000 C 197.639 38.000,196.358 38.188,195.753 38.418 C 195.149 38.647,193.292 38.999,191.627 39.199 C 188.613 39.562,184.188 40.310,180.000 41.166 C 178.790 41.414,176.000 41.990,173.800 42.446 C 169.540 43.330,168.163 43.571,161.694 44.567 C 159.435 44.915,156.825 45.375,155.894 45.590 C 154.962 45.805,153.446 45.985,152.524 45.990 C 151.602 45.996,150.752 46.154,150.635 46.343 C 150.519 46.531,149.563 46.808,148.512 46.957 C 144.252 47.563,142.754 47.985,145.594 47.780 C 148.120 47.598,148.916 47.473,156.000 46.151 C 157.870 45.802,160.750 45.265,162.400 44.958 C 164.050 44.650,167.131 44.155,169.247 43.856 C 171.363 43.557,173.304 43.183,173.560 43.025 C 173.816 42.867,175.685 42.481,177.713 42.169 C 179.741 41.856,183.200 41.246,185.400 40.813 C 187.600 40.380,190.930 39.822,192.800 39.572 C 194.670 39.322,196.503 38.956,196.874 38.759 C 197.244 38.561,198.096 38.400,198.766 38.400 C 199.937 38.400,203.216 37.828,209.600 36.509 C 211.250 36.169,213.590 35.759,214.800 35.598 C 216.010 35.438,217.990 35.110,219.200 34.871 C 220.410 34.631,222.741 34.240,224.379 34.001 C 226.018 33.762,227.548 33.412,227.779 33.224 C 228.011 33.036,229.820 32.684,231.800 32.441 C 237.121 31.790,242.709 30.903,243.127 30.645 C 243.329 30.520,245.003 30.134,246.847 29.786 C 248.691 29.439,250.955 28.985,251.877 28.777 C 252.800 28.570,254.453 28.400,255.551 28.400 C 256.649 28.400,258.055 28.205,258.674 27.967 C 259.997 27.458,264.229 26.625,269.732 25.790 C 271.894 25.462,273.998 25.015,274.406 24.797 C 274.814 24.579,275.687 24.400,276.348 24.400 C 277.008 24.400,278.864 24.118,280.474 23.774 C 284.487 22.916,289.648 22.003,293.000 21.557 C 294.540 21.352,296.070 21.082,296.400 20.956 C 296.730 20.831,298.530 20.485,300.400 20.187 C 303.792 19.646,306.237 19.214,310.400 18.417 C 312.737 17.970,317.106 17.190,323.000 16.166 C 327.339 15.413,329.260 15.039,333.200 14.181 C 337.858 13.167,344.891 12.420,345.700 12.853 C 346.269 13.158,346.400 13.777,346.400 16.165 C 346.400 20.024,346.656 20.241,350.421 19.569 C 352.841 19.136,353.320 19.145,353.627 19.630 C 353.840 19.966,353.990 81.820,353.994 170.286 L 354.000 320.372 353.165 324.486 C 351.945 330.501,351.793 331.070,350.416 334.800 C 347.158 343.629,338.641 355.163,332.473 359.102 C 331.883 359.479,330.382 360.528,329.139 361.433 C 326.725 363.189,321.485 365.852,318.200 366.991 C 317.100 367.372,315.840 367.832,315.400 368.012 C 312.648 369.137,307.143 370.136,300.963 370.632 C 296.507 370.990,283.505 369.129,282.220 367.949 C 282.011 367.757,281.561 367.599,281.220 367.598 C 280.879 367.596,280.150 367.365,279.600 367.085 C 279.050 366.804,277.790 366.318,276.800 366.005 C 272.916 364.778,264.473 359.152,260.400 355.078 C 258.014 352.691,251.750 345.974,249.509 343.400 C 245.688 339.010,239.200 327.690,239.200 325.414 C 239.200 325.047,239.010 324.392,238.778 323.958 C 237.623 321.802,236.717 313.459,236.913 306.800 C 237.254 295.208,238.841 289.717,245.098 278.480 C 246.225 276.457,252.020 269.357,253.100 268.676 C 253.383 268.498,254.531 267.508,255.651 266.476 C 258.536 263.818,261.275 261.821,263.704 260.603 C 264.857 260.026,266.520 259.113,267.400 258.575 C 268.280 258.038,270.156 257.234,271.569 256.791 C 272.982 256.347,274.332 255.827,274.569 255.637 C 274.806 255.446,275.810 255.168,276.800 255.018 C 277.790 254.868,279.560 254.479,280.732 254.152 C 287.138 252.370,301.275 252.956,307.149 255.249 C 308.771 255.882,310.305 256.400,310.557 256.400 C 310.809 256.400,312.863 257.300,315.121 258.400 C 317.379 259.500,319.370 260.400,319.544 260.400 C 319.997 260.400,328.139 266.771,328.505 267.412 C 328.672 267.706,329.382 268.232,330.082 268.581 C 332.815 269.944,332.600 277.352,332.600 181.771 C 332.600 88.462,332.738 94.438,330.600 95.000 C 329.526 95.282,316.162 97.776,312.400 98.396 C 310.750 98.668,308.320 99.130,307.000 99.423 C 305.680 99.716,301.810 100.496,298.400 101.157 C 294.990 101.817,291.660 102.466,291.000 102.598 C 290.340 102.731,288.000 103.178,285.800 103.593 C 283.600 104.007,279.280 104.821,276.200 105.401 C 273.120 105.981,269.880 106.547,269.000 106.660 C 268.120 106.772,266.928 107.042,266.350 107.260 C 265.773 107.477,264.333 107.804,263.150 107.986 C 261.968 108.168,257.130 109.053,252.400 109.954 C 247.670 110.854,241.370 112.049,238.400 112.609 C 233.078 113.613,228.535 114.516,225.400 115.193 C 224.520 115.383,222.180 115.834,220.200 116.194 C 218.220 116.554,215.340 117.101,213.800 117.409 C 207.326 118.703,204.001 119.318,200.670 119.836 C 198.729 120.139,196.479 120.565,195.670 120.784 C 194.862 121.003,191.770 121.658,188.800 122.239 C 185.830 122.821,182.140 123.545,180.600 123.849 C 179.060 124.153,176.720 124.580,175.400 124.798 C 174.080 125.016,171.020 125.563,168.600 126.013 C 166.180 126.463,163.030 127.022,161.600 127.256 C 160.170 127.489,158.687 127.958,158.305 128.297 C 157.649 128.880,157.604 135.363,157.487 244.757 C 157.372 352.770,157.317 360.749,156.679 362.800 C 153.778 372.119,152.074 375.974,148.486 381.325 C 136.605 399.044,113.851 409.025,94.000 405.225 C 92.570 404.951,90.680 404.583,89.800 404.407 C 86.097 403.666,74.710 398.870,72.674 397.193 C 72.413 396.978,70.850 395.784,69.200 394.540 C 65.584 391.813,62.232 388.645,61.186 386.968 C 60.764 386.291,59.784 385.394,59.007 384.976 C 58.231 384.558,57.487 383.875,57.355 383.458 C 57.223 383.042,56.330 381.868,55.371 380.850 C 52.718 378.035,48.400 372.680,48.400 372.206 C 48.400 371.975,47.981 371.159,47.468 370.393 C 46.955 369.627,46.105 367.920,45.578 366.600 C 45.050 365.280,44.272 363.570,43.848 362.800 C 43.424 362.030,42.943 360.860,42.780 360.200 L 42.482 359.000 42.441 360.108 C 42.418 360.718,42.964 362.428,43.653 363.908 C 46.950 370.987,48.946 374.774,49.711 375.400 C 49.980 375.620,51.073 376.880,52.140 378.200 C 53.914 380.394,57.361 384.076,59.097 385.629 C 60.492 386.877,62.424 389.216,62.872 390.198 C 63.123 390.749,63.615 391.201,63.964 391.201 C 64.314 391.202,64.960 391.741,65.400 392.400 C 65.840 393.059,66.425 393.598,66.700 393.599 C 66.975 393.599,67.200 393.765,67.200 393.967 C 67.200 394.169,67.875 394.747,68.700 395.250 C 69.525 395.754,70.260 396.309,70.333 396.483 C 70.407 396.657,70.702 396.800,70.991 396.800 C 71.279 396.800,71.604 397.034,71.714 397.321 C 71.824 397.607,72.879 398.352,74.057 398.977 C 79.910 402.075,81.412 402.800,81.983 402.800 C 82.324 402.800,83.844 403.250,85.360 403.800 C 86.877 404.350,88.505 404.800,88.979 404.800 C 89.452 404.800,90.020 404.980,90.240 405.200 C 91.933 406.893,112.776 406.981,114.898 405.304 C 115.174 405.086,116.132 404.815,117.026 404.702 C 119.805 404.350,130.628 399.771,131.682 398.501 C 131.911 398.226,132.264 398.000,132.466 398.000 C 132.832 398.000,133.396 397.597,134.789 396.339 C 135.192 395.976,135.868 395.569,136.292 395.434 C 137.883 394.929,147.600 384.825,147.600 383.676 C 147.600 383.451,147.742 383.207,147.917 383.133 C 148.426 382.919,150.312 380.285,151.339 378.353 C 153.232 374.792,152.982 375.323,154.956 370.686 C 155.310 369.854,155.600 368.729,155.600 368.186 C 155.600 367.644,155.772 367.200,155.982 367.200 C 156.192 367.200,156.479 366.525,156.620 365.700 C 156.761 364.875,157.025 363.660,157.207 363.000 C 158.440 358.526,158.464 356.231,158.417 243.552 C 158.391 181.351,158.476 130.035,158.607 129.515 C 158.818 128.675,159.210 128.513,162.122 128.061 C 163.925 127.782,167.200 127.202,169.400 126.774 C 171.600 126.345,174.300 125.829,175.400 125.628 C 178.170 125.119,181.299 124.490,184.600 123.777 C 187.677 123.113,189.672 122.722,193.600 122.014 C 195.030 121.756,196.560 121.388,197.000 121.195 C 197.440 121.002,199.286 120.725,201.102 120.580 C 202.918 120.435,204.504 120.155,204.626 119.958 C 204.748 119.761,205.714 119.600,206.773 119.600 C 207.833 119.600,209.465 119.330,210.400 119.000 C 211.335 118.670,212.573 118.401,213.150 118.402 C 213.728 118.403,215.010 118.147,216.000 117.833 C 217.724 117.286,221.121 116.642,225.400 116.052 C 226.500 115.900,227.625 115.636,227.901 115.464 C 228.177 115.292,229.347 114.977,230.501 114.763 C 237.045 113.552,243.656 112.446,249.000 111.667 C 250.100 111.507,251.270 111.206,251.600 110.997 C 251.930 110.789,253.190 110.487,254.400 110.326 C 259.567 109.639,261.508 109.277,262.303 108.852 C 262.767 108.603,263.778 108.400,264.548 108.400 C 265.318 108.400,266.455 108.197,267.074 107.948 C 268.261 107.472,272.718 106.632,277.384 106.005 C 278.916 105.799,281.031 105.444,282.084 105.215 C 285.494 104.476,287.759 104.056,289.759 103.792 C 290.836 103.650,292.006 103.386,292.359 103.206 C 292.961 102.898,294.918 102.515,300.600 101.593 C 301.920 101.379,303.360 101.033,303.800 100.824 C 304.240 100.616,305.320 100.363,306.200 100.262 C 307.916 100.065,319.212 98.062,324.800 96.963 C 329.995 95.942,331.644 95.826,332.043 96.456 C 332.446 97.091,332.472 263.726,332.070 266.395 C 331.729 268.660,330.991 268.842,329.157 267.115 C 325.444 263.619,321.657 260.936,317.589 258.920 C 314.103 257.191,308.463 254.804,307.860 254.801 C 307.674 254.801,306.954 254.542,306.260 254.227 C 305.567 253.912,304.190 253.566,303.200 253.458 C 302.210 253.350,300.320 253.051,299.000 252.793 C 292.982 251.619,277.050 253.314,273.811 255.474 C 273.377 255.763,272.625 256.000,272.139 256.000 C 271.258 256.000,260.864 261.137,260.000 262.000 C 259.890 262.110,258.720 263.086,257.400 264.168 C 242.954 276.016,236.000 290.679,236.000 309.292 C 236.000 312.036,236.159 314.802,236.354 315.440 C 236.548 316.078,236.925 317.860,237.191 319.400 C 237.710 322.404,239.112 327.158,239.664 327.780 C 239.849 327.989,240.000 328.552,240.000 329.031 C 240.000 329.510,240.270 330.126,240.600 330.400 C 240.930 330.674,241.200 331.149,241.200 331.455 C 241.200 332.492,244.911 338.708,247.169 341.453 C 247.736 342.143,248.595 343.230,249.078 343.869 C 250.393 345.610,261.228 356.860,263.266 358.600 C 265.561 360.560,268.382 362.527,269.800 363.157 C 270.240 363.353,271.500 364.133,272.600 364.891 C 273.700 365.648,275.680 366.586,277.000 366.975 C 278.320 367.363,280.480 368.131,281.800 368.681 C 283.120 369.230,285.280 369.778,286.600 369.898 C 287.920 370.017,289.355 370.359,289.789 370.658 C 290.946 371.453,305.169 371.421,307.854 370.618 C 308.924 370.297,310.651 369.927,311.691 369.795 C 312.731 369.662,313.686 369.384,313.814 369.177 C 313.942 368.970,314.532 368.794,315.124 368.787 C 315.716 368.780,316.549 368.510,316.976 368.187 C 317.404 367.864,318.248 367.600,318.853 367.600 C 319.458 367.600,320.055 367.434,320.181 367.231 C 320.306 367.028,320.947 366.743,321.605 366.599 C 322.262 366.455,322.800 366.171,322.800 365.968 C 322.800 365.766,323.256 365.600,323.813 365.600 C 324.369 365.600,324.929 365.330,325.055 365.000 C 325.182 364.670,325.707 364.400,326.223 364.400 C 326.738 364.400,327.304 364.170,327.480 363.889 C 327.947 363.143,331.040 360.800,331.558 360.800 C 331.801 360.800,332.000 360.620,332.000 360.400 C 332.000 360.180,332.261 360.000,332.579 360.000 C 333.897 360.000,344.400 348.694,344.400 347.276 C 344.400 347.120,344.850 346.507,345.400 345.913 C 345.950 345.320,346.400 344.706,346.400 344.549 C 346.400 344.392,346.644 343.979,346.942 343.631 C 348.141 342.234,350.681 336.741,351.580 333.600 C 351.864 332.610,352.344 331.121,352.648 330.292 C 352.952 329.462,353.200 328.359,353.200 327.841 C 353.200 327.322,353.470 326.251,353.800 325.462 C 354.688 323.337,354.716 19.459,353.829 18.571 C 353.173 17.916,352.332 17.833,351.780 18.369 C 351.323 18.813,347.738 19.072,347.355 18.688 C 347.206 18.539,347.116 17.220,347.157 15.756 C 347.273 11.526,346.717 11.198,341.200 12.234 M139.200 48.406 C 138.870 48.623,137.946 48.982,137.146 49.203 C 135.644 49.619,135.009 50.656,135.643 51.656 C 136.037 52.278,136.136 296.272,135.744 300.912 L 135.487 303.945 134.444 303.284 C 133.265 302.538,130.029 299.951,128.211 298.301 C 127.545 297.697,126.370 296.908,125.600 296.550 C 124.830 296.191,123.210 295.230,122.000 294.414 C 120.658 293.509,118.162 292.426,115.600 291.637 C 113.290 290.925,111.040 290.182,110.600 289.985 C 103.102 286.635,80.336 287.531,76.541 291.326 C 76.051 291.815,77.124 291.617,79.285 290.818 C 84.127 289.029,87.025 288.642,95.600 288.637 C 104.186 288.633,105.992 288.868,110.800 290.614 C 112.230 291.134,114.570 291.850,116.000 292.207 C 117.431 292.564,119.230 293.351,120.000 293.958 C 120.770 294.564,122.390 295.530,123.600 296.104 C 125.669 297.086,126.322 297.552,129.949 300.632 C 130.747 301.309,132.239 302.432,133.265 303.127 C 134.291 303.822,135.206 304.617,135.298 304.894 C 136.326 307.977,136.395 299.915,136.402 177.301 C 136.408 77.482,136.514 50.812,136.905 50.334 C 137.413 49.712,140.218 48.581,142.000 48.279 C 142.651 48.168,142.442 48.092,141.400 48.061 C 140.520 48.034,139.530 48.190,139.200 48.406 M73.129 292.100 C 72.838 292.375,71.700 293.037,70.600 293.571 C 66.027 295.792,59.794 300.119,57.661 302.554 C 57.297 302.969,56.480 303.779,55.845 304.354 C 54.253 305.796,49.200 312.091,49.200 312.634 C 49.200 312.877,48.820 313.419,48.355 313.838 C 47.890 314.257,46.802 316.031,45.937 317.781 C 45.072 319.530,44.205 321.154,44.010 321.388 C 43.815 321.623,43.358 323.072,42.994 324.608 C 42.630 326.143,42.170 327.760,41.972 328.200 C 41.622 328.976,41.219 331.000,40.339 336.400 C 39.835 339.494,40.115 352.965,40.699 353.698 C 40.919 353.974,41.217 355.010,41.361 356.000 C 41.505 356.990,41.814 358.070,42.046 358.400 C 42.375 358.866,42.417 358.777,42.234 358.000 C 38.702 342.991,41.630 322.680,48.450 314.886 C 49.083 314.163,49.600 313.399,49.600 313.187 C 49.600 312.212,55.181 305.487,58.163 302.870 C 62.301 299.237,66.039 296.573,69.200 295.003 C 70.410 294.402,71.953 293.496,72.630 292.989 C 73.306 292.482,74.386 291.989,75.030 291.893 L 76.200 291.720 74.929 291.660 C 74.229 291.627,73.419 291.825,73.129 292.100 " stroke="none" fill="#e7dae7" fill-rule="evenodd"></path></g></svg>