<?xml version="1.0" encoding="iso-8859-1"?>
<!-- Generator: Adobe Illustrator 19.0.0, SVG Export Plug-In . SVG Version: 6.00 Build 0)  -->
<svg version="1.1" id="Layer_1" xmlns="http://www.w3.org/2000/svg" xmlns:xlink="http://www.w3.org/1999/xlink" x="0px" y="0px"
	 viewBox="0 0 512 512" style="enable-background:new 0 0 512 512;" xml:space="preserve">
<g>
	<path style="fill:#5B5D6E;" d="M353.104,291.31c0-4.879-3.953-8.828-8.828-8.828h-26.483c-4.875,0-8.828,3.948-8.828,8.828
		c0,4.879,3.953,8.828,8.828,8.828h26.483C349.151,300.138,353.104,296.19,353.104,291.31z"/>
	<path style="fill:#5B5D6E;" d="M441.379,79.448c0,4.879,3.953,8.828,8.828,8.828h26.483c4.875,0,8.828-3.948,8.828-8.828
		c0-4.879-3.953-8.828-8.828-8.828h-26.483C445.332,70.621,441.379,74.569,441.379,79.448z"/>
	<path style="fill:#5B5D6E;" d="M485.517,141.241h-26.483c-4.875,0-8.828,3.948-8.828,8.828c0,4.879,3.953,8.828,8.828,8.828h26.483
		c4.875,0,8.828-3.948,8.828-8.828C494.345,145.19,490.392,141.241,485.517,141.241z"/>
	<path style="fill:#5B5D6E;" d="M467.862,211.862h-26.483c-4.875,0-8.828,3.948-8.828,8.828s3.953,8.828,8.828,8.828h26.483
		c4.875,0,8.828-3.948,8.828-8.828S472.737,211.862,467.862,211.862z"/>
	<path style="fill:#5B5D6E;" d="M459.035,105.931c-4.875,0-8.828,3.948-8.828,8.828c0,4.879,3.953,8.828,8.828,8.828h26.483
		c4.875,0,8.828-3.948,8.828-8.828c0-4.879-3.953-8.828-8.828-8.828H459.035z"/>
	<path style="fill:#5B5D6E;" d="M476.69,176.552h-26.483c-4.875,0-8.828,3.948-8.828,8.828c0,4.879,3.953,8.828,8.828,8.828h26.483
		c4.875,0,8.828-3.948,8.828-8.828C485.517,180.5,481.565,176.552,476.69,176.552z"/>
	<path style="fill:#5B5D6E;" d="M459.035,247.172h-26.483c-4.875,0-8.828,3.948-8.828,8.828c0,4.879,3.953,8.828,8.828,8.828h26.483
		c4.875,0,8.828-3.948,8.828-8.828C467.862,251.121,463.91,247.172,459.035,247.172z"/>
	<path style="fill:#5B5D6E;" d="M441.379,282.483h-26.483c-4.875,0-8.828,3.948-8.828,8.828c0,4.879,3.953,8.828,8.828,8.828h26.483
		c4.875,0,8.828-3.948,8.828-8.828C450.207,286.431,446.254,282.483,441.379,282.483z"/>
	<path style="fill:#5B5D6E;" d="M361.931,432.552c4.875,0,8.828-3.948,8.828-8.828c0-4.879-3.953-8.828-8.828-8.828h-44.138
		c-4.875,0-8.828,3.948-8.828,8.828c0,4.879,3.953,8.828,8.828,8.828H361.931z"/>
	<path style="fill:#5B5D6E;" d="M441.379,414.897h-44.138c-4.875,0-8.828,3.948-8.828,8.828c0,4.879,3.953,8.828,8.828,8.828h44.138
		c4.875,0,8.828-3.948,8.828-8.828C450.207,418.845,446.254,414.897,441.379,414.897z"/>
	<path style="fill:#5B5D6E;" d="M335.448,379.586h-17.655c-4.875,0-8.828,3.948-8.828,8.828s3.953,8.828,8.828,8.828h17.655
		c4.875,0,8.828-3.948,8.828-8.828S340.323,379.586,335.448,379.586z"/>
	<path style="fill:#5B5D6E;" d="M441.379,379.586h-17.655c-4.875,0-8.828,3.948-8.828,8.828s3.953,8.828,8.828,8.828h17.655
		c4.875,0,8.828-3.948,8.828-8.828S446.254,379.586,441.379,379.586z"/>
</g>
<g>
	<path style="fill:#707487;" d="M423.724,88.276c4.875,0,8.828-3.948,8.828-8.828c0-4.879-3.953-8.828-8.828-8.828h-17.655
		c0-4.879-3.953-8.828-8.828-8.828h-35.31c-4.875,0-8.828,3.948-8.828,8.828h-17.655c-4.875,0-8.828,3.948-8.828,8.828
		c0,4.879,3.953,8.828,8.828,8.828H423.724z"/>
	<path style="fill:#707487;" d="M423.724,220.69c0-4.879-3.953-8.828-8.828-8.828h-8.828c0-4.879-3.953-8.828-8.828-8.828h-35.31
		c-4.875,0-8.828,3.948-8.828,8.828h-8.828c-4.875,0-8.828,3.948-8.828,8.828s3.953,8.828,8.828,8.828h70.621
		C419.772,229.517,423.724,225.569,423.724,220.69z"/>
	<path style="fill:#707487;" d="M414.897,256c0-4.879-3.953-8.828-8.828-8.828h-8.828c0-4.879-3.953-8.828-8.828-8.828h-17.655
		c-4.875,0-8.828,3.948-8.828,8.828h-8.828c-4.875,0-8.828,3.948-8.828,8.828c0,4.879,3.953,8.828,8.828,8.828h52.966
		C410.944,264.828,414.897,260.879,414.897,256z"/>
	<path style="fill:#707487;" d="M388.414,300.138c4.875,0,8.828-3.948,8.828-8.828c0-4.879-3.953-8.828-8.828-8.828h-17.655
		c-4.875,0-8.828,3.948-8.828,8.828c0,4.879,3.953,8.828,8.828,8.828H388.414z"/>
	<path style="fill:#707487;" d="M432.552,105.931h-17.655c0-4.879-3.953-8.828-8.828-8.828h-52.966
		c-4.875,0-8.828,3.948-8.828,8.828h-17.655c-4.875,0-8.828,3.948-8.828,8.828c0,4.879,3.953,8.828,8.828,8.828h105.931
		c4.875,0,8.828-3.948,8.828-8.828C441.379,109.879,437.427,105.931,432.552,105.931z"/>
	<path style="fill:#707487;" d="M441.379,150.069c0-4.879-3.953-8.828-8.828-8.828h-8.828c0-4.879-3.953-8.828-8.828-8.828h-70.621
		c-4.875,0-8.828,3.948-8.828,8.828h-8.828c-4.875,0-8.828,3.948-8.828,8.828c0,4.879,3.953,8.828,8.828,8.828h105.931
		C437.427,158.897,441.379,154.948,441.379,150.069z"/>
	<path style="fill:#707487;" d="M432.552,185.379c0-4.879-3.953-8.828-8.828-8.828h-8.828c0-4.879-3.953-8.828-8.828-8.828h-52.966
		c-4.875,0-8.828,3.948-8.828,8.828h-8.828c-4.875,0-8.828,3.948-8.828,8.828c0,4.879,3.953,8.828,8.828,8.828h88.276
		C428.599,194.207,432.552,190.259,432.552,185.379z"/>
	<path style="fill:#707487;" d="M397.242,379.586h-35.31c-4.875,0-8.828,3.948-8.828,8.828s3.953,8.828,8.828,8.828
		c0,4.879,3.953,8.828,8.828,8.828h17.655c4.875,0,8.828-3.948,8.828-8.828c4.875,0,8.828-3.948,8.828-8.828
		S402.117,379.586,397.242,379.586z"/>
	<path style="fill:#707487;" d="M397.242,344.276h-35.31c-4.875,0-8.828,3.948-8.828,8.828c0,4.879,3.953,8.828,8.828,8.828
		c0,4.879,3.953,8.828,8.828,8.828h17.655c4.875,0,8.828-3.948,8.828-8.828c4.875,0,8.828-3.948,8.828-8.828
		C406.069,348.224,402.117,344.276,397.242,344.276z"/>
</g>
<g>
	<path style="fill:#5B5D6E;" d="M335.448,344.276h-17.655c-4.875,0-8.828,3.948-8.828,8.828c0,4.879,3.953,8.828,8.828,8.828h17.655
		c4.875,0,8.828-3.948,8.828-8.828C344.276,348.224,340.323,344.276,335.448,344.276z"/>
	<path style="fill:#5B5D6E;" d="M441.379,344.276h-17.655c-4.875,0-8.828,3.948-8.828,8.828c0,4.879,3.953,8.828,8.828,8.828h17.655
		c4.875,0,8.828-3.948,8.828-8.828C450.207,348.224,446.254,344.276,441.379,344.276z"/>
	<path style="fill:#5B5D6E;" d="M438.682,450.207h-118.19c-2.788,0-5.409,1.319-7.078,3.552c-1.664,2.232-2.177,5.121-1.384,7.794
		C321.022,491.724,348.168,512,379.586,512s58.564-20.276,67.556-50.449c0.793-2.673,0.28-5.56-1.384-7.794
		C444.091,451.526,441.47,450.207,438.682,450.207z"/>
	<path style="fill:#5B5D6E;" d="M307.797,52.966h143.577c3.453,0,6.591-2.017,8.025-5.155c1.44-3.138,0.914-6.828-1.345-9.44
		C436.685,13.63,408.819,0,379.586,0c-29.233,0-57.099,13.63-78.47,38.37c-2.259,2.612-2.784,6.302-1.345,9.44
		C301.207,50.948,304.346,52.966,307.797,52.966z"/>
	
		<rect x="159.601" y="255.689" transform="matrix(-0.7071 -0.7071 0.7071 -0.7071 92.3191 610.9356)" style="fill:#5B5D6E;" width="26.176" height="61.318"/>
</g>
<path style="fill:#E4EAF6;" d="M272.894,74.882c-61.346,0-111.258,49.911-111.258,111.258s49.911,111.258,111.258,111.258
	s111.258-49.911,111.258-111.258S334.24,74.882,272.894,74.882z"/>
<path style="fill:#C7CFE2;" d="M374.155,140.308c2.174,8.391,3.452,17.139,3.452,26.199c0,57.738-46.975,104.714-104.713,104.714
	S168.18,224.246,168.18,166.507c0-9.06,1.278-17.809,3.452-26.199c-6.361,13.997-9.996,29.483-9.996,45.833
	c0,61.346,49.911,111.258,111.258,111.258s111.258-49.911,111.258-111.258C384.151,169.791,380.518,154.304,374.155,140.308z"/>
<g>
	<path style="fill:#959CB3;" d="M242.911,175.03c6.724,0,12.175-5.446,12.175-12.175c0-6.73-5.452-12.175-12.175-12.175h-36.527
		c-6.724,0-12.175,5.446-12.175,12.175c0,6.73,5.452,12.175,12.175,12.175H242.911z"/>
	<path style="fill:#959CB3;" d="M267.263,272.438c6.724,0,12.175-5.446,12.175-12.175c0-6.73-5.452-12.175-12.175-12.175h-36.527
		c-6.724,0-12.175,5.446-12.175,12.175c0,6.73,5.452,12.175,12.175,12.175H267.263z"/>
	<path style="fill:#959CB3;" d="M206.382,126.326h36.527c6.724,0,12.175-5.446,12.175-12.175c0-6.73-5.452-12.175-12.175-12.175
		h-36.527c-6.724,0-12.175,5.446-12.175,12.175C194.207,120.879,199.659,126.326,206.382,126.326z"/>
	<path style="fill:#959CB3;" d="M255.086,223.734c6.724,0,12.175-5.446,12.175-12.175s-5.452-12.175-12.175-12.175h-36.527
		c-6.724,0-12.175,5.446-12.175,12.175s5.452,12.175,12.175,12.175H255.086z"/>
	<path style="fill:#959CB3;" d="M372.256,235.91h-44.114c-6.724,0-12.177,5.447-12.177,12.177H303.79
		c-6.724,0-12.177,5.446-12.177,12.175c0,6.73,5.452,12.177,12.177,12.177h39.194C355.166,262.526,365.138,250.061,372.256,235.91z"
		/>
	<path style="fill:#959CB3;" d="M384.097,187.206h-68.131c-6.724,0-12.175,5.446-12.175,12.175h-12.177
		c-6.724,0-12.177,5.447-12.177,12.177c0,6.73,5.452,12.175,12.177,12.175h85.859C381.602,212.29,383.976,200.025,384.097,187.206z"
		/>
	<path style="fill:#959CB3;" d="M383.589,175.03c-1.293-12.977-4.926-25.242-10.304-36.529h-69.493
		c-6.724,0-12.177,5.447-12.177,12.177h-12.177c-6.724,0-12.175,5.446-12.175,12.175s5.451,12.177,12.175,12.177H383.589z"/>
	<path style="fill:#959CB3;" d="M366.551,126.325c-9.635-15.033-22.76-27.581-38.255-36.527h-12.329
		c-6.724,0-12.175,5.446-12.175,12.175H279.44c-6.724,0-12.175,5.447-12.175,12.177c0,6.73,5.451,12.175,12.175,12.175
		C279.44,126.325,366.551,126.325,366.551,126.325z"/>
</g>
<path style="fill:#707487;" d="M272.894,310.487c-68.565,0-124.348-55.783-124.348-124.348S204.329,61.793,272.894,61.793
	s124.348,55.783,124.348,124.348S341.459,310.487,272.894,310.487z M272.894,81.427c-57.738,0-104.714,46.975-104.714,104.714
	s46.975,104.714,104.714,104.714s104.713-46.975,104.713-104.714S330.632,81.427,272.894,81.427z"/>
<path style="fill:#959CB3;" d="M164.79,303.137l-8.897-8.89c-3.816-3.816-9.149-5.771-14.489-5.746
	c-5.394,0.172-10.536,2.582-14.109,6.627L19.294,417.412c-2.289,2.595-2.166,6.519,0.278,8.96l13.089,13.089
	c1.272,1.272,2.95,1.918,4.627,1.918c1.544,0,3.09-0.543,4.333-1.643l122.28-107.999c4.045-3.573,6.462-8.712,6.627-14.105
	C170.698,312.238,168.606,306.953,164.79,303.137z"/>
<polygon style="fill:#707487;" points="28.77,406.682 52.35,430.262 153.131,341.25 117.782,305.901 "/>
<g>
</g>
<g>
</g>
<g>
</g>
<g>
</g>
<g>
</g>
<g>
</g>
<g>
</g>
<g>
</g>
<g>
</g>
<g>
</g>
<g>
</g>
<g>
</g>
<g>
</g>
<g>
</g>
<g>
</g>
</svg>
