<svg id="svg" version="1.1" xmlns="http://www.w3.org/2000/svg" xmlns:xlink="http://www.w3.org/1999/xlink" width="400" height="280.4123711340206" viewBox="0, 0, 400,280.4123711340206"><g id="svgg"><path id="path0" d="M144.320 56.567 C 138.350 57.982,137.658 65.987,143.291 68.469 C 144.282 68.905,145.175 69.004,148.130 69.004 L 151.754 69.004 151.684 144.390 L 151.613 219.776 147.686 219.916 C 143.083 220.080,142.077 220.450,140.584 222.528 C 138.355 225.629,139.427 229.930,142.891 231.784 C 144.029 232.393,144.168 232.398,158.065 232.398 L 172.090 232.398 173.395 231.749 C 177.074 229.919,178.019 224.521,175.128 221.846 C 173.321 220.173,172.957 220.066,168.597 219.916 L 164.516 219.776 164.445 144.390 L 164.375 69.004 167.952 69.000 C 170.056 68.997,171.938 68.853,172.523 68.649 C 177.775 66.819,178.369 59.750,173.492 57.126 C 172.418 56.547,146.497 56.051,144.320 56.567 M56.325 81.724 C 54.427 82.190,52.673 83.537,51.944 85.089 L 51.332 86.389 51.339 144.387 C 51.345 209.006,51.178 203.444,53.180 205.426 C 55.071 207.297,51.556 207.153,95.231 207.153 C 131.723 207.153,134.849 207.116,135.641 206.682 C 140.141 204.216,140.380 198.101,136.075 195.571 L 134.783 194.811 99.540 194.736 C 70.485 194.675,64.243 194.596,63.985 194.286 C 63.758 194.012,63.692 180.365,63.744 144.150 L 63.815 94.390 99.018 94.233 C 136.583 94.067,135.152 94.127,136.880 92.647 C 141.205 88.945,139.257 82.563,133.520 81.643 C 130.837 81.213,58.097 81.289,56.325 81.724 M182.237 81.668 C 177.143 82.644,175.265 88.624,178.912 92.257 C 181.071 94.409,174.450 94.250,261.733 94.250 L 340.254 94.250 340.183 144.390 L 340.112 194.530 260.870 194.670 C 188.806 194.798,181.538 194.852,180.645 195.262 C 175.918 197.437,175.826 204.127,180.488 206.682 C 181.579 207.280,346.139 207.581,348.305 206.989 C 349.855 206.565,351.538 205.095,352.280 203.517 L 352.875 202.250 352.872 144.393 L 352.870 86.536 352.199 85.096 C 351.310 83.186,349.654 82.034,347.232 81.641 C 344.918 81.266,184.202 81.292,182.237 81.668 M97.475 118.654 C 86.860 118.805,87.094 118.771,85.325 120.440 C 82.286 123.309,82.920 128.186,86.615 130.358 L 87.938 131.136 94.853 131.227 L 101.769 131.319 101.932 133.472 C 102.021 134.655,102.075 143.903,102.052 154.021 L 102.009 172.418 102.639 173.720 C 104.486 177.535,109.168 178.489,112.452 175.720 C 114.523 173.975,114.432 175.036,114.444 152.314 C 114.450 141.129,114.548 131.830,114.663 131.650 C 114.811 131.418,116.894 131.294,121.742 131.229 C 129.382 131.125,130.011 130.985,131.672 129.011 C 134.563 125.575,133.004 120.051,128.838 118.967 C 127.538 118.629,110.861 118.462,97.475 118.654 " stroke="none" fill="#424042" fill-rule="evenodd"></path></g></svg>