<?xml version="1.0" encoding="iso-8859-1"?>
<!-- Generator: Adobe Illustrator 19.0.0, SVG Export Plug-In . SVG Version: 6.00 Build 0)  -->
<svg version="1.1" id="Layer_1" xmlns="http://www.w3.org/2000/svg" xmlns:xlink="http://www.w3.org/1999/xlink" x="0px" y="0px"
	 viewBox="0 0 512.002 512.002" style="enable-background:new 0 0 512.002 512.002;" xml:space="preserve">
<g transform="translate(1)">
	<path style="fill:#D9D0B7;" d="M476.62,503.469H33.39c-14.276,0-25.856-11.571-25.856-25.847V179.202
		c0-14.276,11.58-25.6,25.856-25.6h443.23c14.276,0,25.847,11.324,25.847,25.6v298.419
		C502.468,491.898,490.897,503.469,476.62,503.469"/>
	<path style="fill:#7F6E5D;" d="M476.62,512.002H33.39c-18.961,0-34.389-15.42-34.389-34.372V179.202
		c0-18.825,15.428-34.133,34.389-34.133h443.23c18.953,0,34.381,15.317,34.381,34.133v298.419
		C511.001,496.582,495.573,512.002,476.62,512.002z M33.39,162.135c-9.711,0-17.323,7.501-17.323,17.067v298.419
		c0,9.549,7.774,17.314,17.323,17.314h443.23c9.549,0,17.314-7.765,17.314-17.306V179.202c0-9.574-7.612-17.067-17.314-17.067H33.39
		z"/>
	<g>
		<path style="fill:#667D8C;" d="M255.01,110.935c-2.475,0-4.924-1.067-6.613-3.132l-76.8-93.867
			c-2.987-3.644-2.449-9.02,1.203-12.006c3.635-2.987,9.011-2.449,12.006,1.203l76.8,93.867c2.987,3.644,2.449,9.02-1.203,12.006
			C258.815,110.304,256.913,110.935,255.01,110.935"/>
		<path style="fill:#667D8C;" d="M254.993,110.935c-1.903,0-3.806-0.631-5.393-1.929c-3.652-2.987-4.19-8.363-1.203-12.006
			l76.8-93.867c2.987-3.652,8.363-4.19,12.006-1.203c3.652,2.987,4.19,8.363,1.203,12.006l-76.8,93.867
			C259.916,109.869,257.467,110.935,254.993,110.935"/>
	</g>
	<polygon style="fill:#D9D0B7;" points="365.934,153.602 144.068,153.602 178.201,102.402 331.801,102.402 	"/>
	<path style="fill:#7F6E5D;" d="M381.875,162.135H128.127l45.508-68.267h162.731L381.875,162.135z M160.017,145.069h189.978
		l-22.758-34.133H182.775L160.017,145.069z"/>
	<path style="fill:#667D8C;" d="M459.801,230.402c0,18.85-15.283,34.133-34.133,34.133s-34.133-15.283-34.133-34.133
		s15.283-34.133,34.133-34.133S459.801,211.552,459.801,230.402"/>
	<path style="fill:#ECF1F1;" d="M425.668,238.935c-2.185,0-4.369-0.836-6.033-2.5c-3.337-3.328-3.337-8.73,0-12.066l24.107-24.115
		c3.337-3.328,8.738-3.328,12.066,0c3.337,3.328,3.337,8.738,0,12.066l-24.107,24.115
		C430.037,238.099,427.852,238.935,425.668,238.935"/>
	<path style="fill:#667D8C;" d="M459.801,341.335c0,18.85-15.283,34.133-34.133,34.133s-34.133-15.283-34.133-34.133
		c0-18.85,15.283-34.133,34.133-34.133S459.801,322.485,459.801,341.335"/>
	<path style="fill:#ECF1F1;" d="M425.668,384.002c-4.719,0-8.533-3.823-8.533-8.533v-34.133c0-4.71,3.814-8.533,8.533-8.533
		c4.719,0,8.533,3.823,8.533,8.533v34.133C434.201,380.179,430.387,384.002,425.668,384.002"/>
	<path style="fill:#667D8C;" d="M454.348,460.802h-57.353c-3.012,0-5.461-2.441-5.461-5.453v-31.761
		c0-3.012,2.449-5.453,5.461-5.453h57.353c3.012,0,5.453,2.441,5.453,5.453v31.761C459.801,458.362,457.361,460.802,454.348,460.802
		"/>
	<polygon style="fill:#E64C3C;" points="255.001,341.335 306.201,341.335 306.201,196.269 255.001,196.269 	"/>
	<polygon style="fill:#8697CB;" points="306.201,460.802 357.401,460.802 357.401,281.602 306.201,281.602 	"/>
	<polygon style="fill:#4FBA6F;" points="306.201,281.602 357.401,281.602 357.401,196.269 306.201,196.269 	"/>
	<g>
		<polygon style="fill:#F0C419;" points="255.001,460.802 306.201,460.802 306.201,341.335 255.001,341.335 		"/>
		<polygon style="fill:#F0C419;" points="152.601,375.469 203.801,375.469 203.801,196.269 152.601,196.269 		"/>
	</g>
	<polygon style="fill:#4FBA6F;" points="203.801,460.802 255.001,460.802 255.001,247.469 203.801,247.469 	"/>
	<polygon style="fill:#8697CB;" points="203.801,247.469 255.001,247.469 255.001,196.269 203.801,196.269 	"/>
	<g>
		<polygon style="fill:#E64C3C;" points="152.601,460.802 203.801,460.802 203.801,375.469 152.601,375.469 		"/>
		<polygon style="fill:#E64C3C;" points="50.201,401.069 101.401,401.069 101.401,196.269 50.201,196.269 		"/>
	</g>
	<polygon style="fill:#8697CB;" points="101.401,460.802 152.601,460.802 152.601,264.535 101.401,264.535 	"/>
	<polygon style="fill:#4FBA6F;" points="101.401,264.535 152.601,264.535 152.601,196.269 101.401,196.269 	"/>
	<polygon style="fill:#F0C419;" points="50.201,460.802 101.401,460.802 101.401,401.069 50.201,401.069 	"/>
</g>
<g>
</g>
<g>
</g>
<g>
</g>
<g>
</g>
<g>
</g>
<g>
</g>
<g>
</g>
<g>
</g>
<g>
</g>
<g>
</g>
<g>
</g>
<g>
</g>
<g>
</g>
<g>
</g>
<g>
</g>
</svg>
