<?xml version="1.0" encoding="utf-8"?>
<svg width="972" height="549" xmlns="http://www.w3.org/2000/svg">
  <path style="fill:#a3d0b6; stroke:none;" d="M411.667 85.3333L412.333 85.6667L411.667 85.3333z"/>
  <path style="fill:#66b287; stroke:none;" d="M413 85L414 86L413 85z"/>
  <path style="fill:#2b6141; stroke:none;" d="M401 100L537 100C535.506 85.4895 522.716 85 511 85L428 85C416.007 85 402.539 84.9783 401 100z"/>
  <path style="fill:#66b287; stroke:none;" d="M524 85L525 86L524 85z"/>
  <path style="fill:#a3d0b6; stroke:none;" d="M525.667 85.3333L526.333 85.6667L525.667 85.3333z"/>
  <path style="fill:#66b287; stroke:none;" d="M409 86L410 87L409 86z"/>
  <path style="fill:#a3d0b6; stroke:none;" d="M528 86L529 87L528 86M407 87L408 88L407 87M530 87L531 88L530 87z"/>
  <path style="fill:#66b287; stroke:none;" d="M406 88L407 89L406 88M531 88L532 89L531 88M533 90L534 91L533 90M403 91L404 92L403 91z"/>
  <path style="fill:#a3d0b6; stroke:none;" d="M534 91L535 92L534 91z"/>
  <path style="fill:#66b287; stroke:none;" d="M402 93L403 94L402 93M535 93L536 94L535 93z"/>
  <path style="fill:#a3d0b6; stroke:none;" d="M401 95L402 96L401 95M536 95L537 96L536 95M400 99L401 100L400 99M375.667 100.333L376.333 100.667L375.667 100.333z"/>
  <path style="fill:#66b287; stroke:none;" d="M377 100L377 101L380 101L377 100z"/>
  <path style="fill:#33a965; stroke:none;" d="M380 100.424C364.947 102.425 351.596 107.38 341.174 119.001C315.932 147.143 325.549 193.046 360 208.688C381.277 218.348 409.211 214 432 214L536 214C554.865 214 575.461 216.292 594 212.331C647.528 200.894 653.765 126.171 604 104.873C582.084 95.493 553.331 100 530 100L431 100C414.333 100 396.523 98.2283 380 100.424z"/>
  <path style="fill:#66b287; stroke:none;" d="M586.667 100.333L587.333 100.667L586.667 100.333z"/>
  <path style="fill:#a3d0b6; stroke:none;" d="M588.667 100.333L589.333 100.667L588.667 100.333M370 101L371 102L370 101z"/>
  <path style="fill:#66b287; stroke:none;" d="M371 101L372 102L371 101M593 101L594 102L593 101z"/>
  <path style="fill:#a3d0b6; stroke:none;" d="M594 101L595 102L594 101M367 102L368 103L367 102z"/>
  <path style="fill:#66b287; stroke:none;" d="M597 102L598 103L597 102z"/>
  <path style="fill:#a3d0b6; stroke:none;" d="M598 102L599 103L598 102z"/>
  <path style="fill:#66b287; stroke:none;" d="M364 103L365 104L364 103M600 103L601 104L600 103z"/>
  <path style="fill:#a3d0b6; stroke:none;" d="M361 104L362 105L361 104M603 104L604 105L603 104M359 105L360 106L359 105z"/>
  <path style="fill:#66b287; stroke:none;" d="M605 105L606 106L605 105z"/>
  <path style="fill:#a3d0b6; stroke:none;" d="M357 106L358 107L357 106z"/>
  <path style="fill:#66b287; stroke:none;" d="M607 106L608 107L607 106z"/>
  <path style="fill:#a3d0b6; stroke:none;" d="M355 107L356 108L355 107z"/>
  <path style="fill:#66b287; stroke:none;" d="M609 107L610 108L609 107z"/>
  <path style="fill:#a3d0b6; stroke:none;" d="M611 108L612 109L611 108z"/>
  <path style="fill:#66b287; stroke:none;" d="M352 109L353 110L352 109z"/>
  <path style="fill:#a3d0b6; stroke:none;" d="M614 110L615 111L614 110M349 111L350 112L349 111z"/>
  <path style="fill:#66b287; stroke:none;" d="M615 111L616 112L615 111z"/>
  <path style="fill:#a3d0b6; stroke:none;" d="M618 113L619 114L618 113M345 114L346 115L345 114M619 114L620 115L619 114M344 115L345 116L344 115z"/>
  <path style="fill:#66b287; stroke:none;" d="M620 115L621 116L620 115z"/>
  <path style="fill:#a3d0b6; stroke:none;" d="M343 116L344 117L343 116z"/>
  <path style="fill:#66b287; stroke:none;" d="M621 116L622 117L621 116z"/>
  <path style="fill:#a3d0b6; stroke:none;" d="M342 117L343 118L342 117z"/>
  <path style="fill:#66b287; stroke:none;" d="M622 117L623 118L622 117z"/>
  <path style="fill:#a3d0b6; stroke:none;" d="M341 118L342 119L341 118z"/>
  <path style="fill:#66b287; stroke:none;" d="M623 118L624 119L623 118z"/>
  <path style="fill:#a3d0b6; stroke:none;" d="M340 119L341 120L340 119M624 119L625 120L624 119M625 120L626 121L625 120z"/>
  <path style="fill:#66b287; stroke:none;" d="M338 122L339 123L338 122z"/>
  <path style="fill:#a3d0b6; stroke:none;" d="M337 123L338 124L337 123M628 124L629 125L628 124z"/>
  <path style="fill:#66b287; stroke:none;" d="M335 126L336 127L335 126z"/>
  <path style="fill:#a3d0b6; stroke:none;" d="M630 127L631 128L630 127M333 129L334 130L333 129z"/>
  <path style="fill:#66b287; stroke:none;" d="M631 129L632 130L631 129z"/>
  <path style="fill:#a3d0b6; stroke:none;" d="M332 131L333 132L332 131z"/>
  <path style="fill:#66b287; stroke:none;" d="M632 131L633 132L632 131z"/>
  <path style="fill:#a3d0b6; stroke:none;" d="M331 133L332 134L331 133z"/>
  <path style="fill:#66b287; stroke:none;" d="M633 133L634 134L633 133z"/>
  <path style="fill:#a3d0b6; stroke:none;" d="M330 135L331 136L330 135z"/>
  <path style="fill:#66b287; stroke:none;" d="M634 135L635 136L634 135M330 136L331 137L330 136z"/>
  <path style="fill:#a3d0b6; stroke:none;" d="M635 137L636 138L635 137M857 137L858 138L857 137z"/>
  <path style="fill:#66b287; stroke:none;" d="M858 137L858 138L891 138L858 137z"/>
  <path style="fill:#a3d0b6; stroke:none;" d="M891 137L892 138L891 137M329 138L330 139L329 138z"/>
  <path style="fill:#66b287; stroke:none;" d="M635 138L636 139L635 138z"/>
  <path style="fill:#a3d0b6; stroke:none;" d="M854 138L855 139L854 138z"/>
  <path style="fill:#33a965; stroke:none;" d="M855.004 138.742C844.289 142.893 843.923 165.533 851.225 172.772C858.444 179.93 885.14 179.393 893.996 175.347C904.519 170.54 905.517 147.475 896.891 140.434C890.479 135.199 862.668 135.773 855.004 138.742z"/>
  <path style="fill:#a3d0b6; stroke:none;" d="M894 138L895 139L894 138M636 140L637 141L636 140M897 140L898 141L897 140M328 141L329 142L328 141z"/>
  <path style="fill:#66b287; stroke:none;" d="M636 141L637 142L636 141z"/>
  <path style="fill:#a3d0b6; stroke:none;" d="M898 141L899 142L898 141z"/>
  <path style="fill:#66b287; stroke:none;" d="M328 142L329 143L328 142z"/>
  <path style="fill:#2b6141; stroke:none;" d="M637 143C639.472 153.036 638.896 161.938 637 172L850 172C846.166 162.044 846.656 153.252 849 143L637 143z"/>
  <path style="fill:#a3d0b6; stroke:none;" d="M900 144L901 145L900 144M327 145L328 146L327 145z"/>
  <path style="fill:#66b287; stroke:none;" d="M327 146L328 147L327 146z"/>
  <path style="fill:#a3d0b6; stroke:none;" d="M901 147L902 148L901 147z"/>
  <path style="fill:#66b287; stroke:none;" d="M901 148L902 149L901 148z"/>
  <path style="fill:#a3d0b6; stroke:none;" d="M326 151L326 154L327 154L326 151z"/>
  <path style="fill:#66b287; stroke:none;" d="M326 154L326 160L327 160L326 154z"/>
  <path style="fill:#a3d0b6; stroke:none;" d="M326 160L326 163L327 163L326 160z"/>
  <path style="fill:#66b287; stroke:none;" d="M901 165L902 166L901 165z"/>
  <path style="fill:#a3d0b6; stroke:none;" d="M901 166L902 167L901 166z"/>
  <path style="fill:#66b287; stroke:none;" d="M327 167L328 168L327 167z"/>
  <path style="fill:#a3d0b6; stroke:none;" d="M327 168L328 169L327 168M900 169L901 170L900 169z"/>
  <path style="fill:#66b287; stroke:none;" d="M328 171L329 172L328 171z"/>
  <path style="fill:#a3d0b6; stroke:none;" d="M899 171L900 172L899 171M328 172L329 173L328 172z"/>
  <path style="fill:#66b287; stroke:none;" d="M636 172L637 173L636 172z"/>
  <path style="fill:#a3d0b6; stroke:none;" d="M637 172L637 173L851 173L831 172L788 172L637 172M898 172L899 173L898 172M636 173L637 174L636 173M851 173L852 174L851 173M897 173L898 174L897 173M896 174L897 175L896 174M329 175L330 176L329 175z"/>
  <path style="fill:#66b287; stroke:none;" d="M635 175L636 176L635 175z"/>
  <path style="fill:#a3d0b6; stroke:none;" d="M854 175L855 176L854 175z"/>
  <path style="fill:#66b287; stroke:none;" d="M894 175L895 176L894 175z"/>
  <path style="fill:#a3d0b6; stroke:none;" d="M635 176L636 177L635 176M856 176L857 177L856 176z"/>
  <path style="fill:#66b287; stroke:none;" d="M857.667 176.333L858.333 176.667L857.667 176.333M890.667 176.333L891.333 176.667L890.667 176.333z"/>
  <path style="fill:#a3d0b6; stroke:none;" d="M892 176L893 177L892 176z"/>
  <path style="fill:#66b287; stroke:none;" d="M330 177L331 178L330 177z"/>
  <path style="fill:#a3d0b6; stroke:none;" d="M330 178L331 179L330 178z"/>
  <path style="fill:#66b287; stroke:none;" d="M634 178L635 179L634 178z"/>
  <path style="fill:#a3d0b6; stroke:none;" d="M331 180L332 181L331 180z"/>
  <path style="fill:#66b287; stroke:none;" d="M633 180L634 181L633 180z"/>
  <path style="fill:#a3d0b6; stroke:none;" d="M633 181L634 182L633 181M332 182L333 183L332 182M333 184L334 185L333 184z"/>
  <path style="fill:#66b287; stroke:none;" d="M631 184L632 185L631 184z"/>
  <path style="fill:#a3d0b6; stroke:none;" d="M334 186L335 187L334 186z"/>
  <path style="fill:#66b287; stroke:none;" d="M630 186L631 187L630 186M335 187L336 188L335 187z"/>
  <path style="fill:#a3d0b6; stroke:none;" d="M336 189L337 190L336 189z"/>
  <path style="fill:#66b287; stroke:none;" d="M628 189L629 190L628 189M337 190L338 191L337 190z"/>
  <path style="fill:#a3d0b6; stroke:none;" d="M626 192L627 193L626 192M625 193L626 194L625 193M340 194L341 195L340 194z"/>
  <path style="fill:#66b287; stroke:none;" d="M624 194L625 195L624 194z"/>
  <path style="fill:#a3d0b6; stroke:none;" d="M341 195L342 196L341 195z"/>
  <path style="fill:#66b287; stroke:none;" d="M623 195L624 196L623 195z"/>
  <path style="fill:#a3d0b6; stroke:none;" d="M342 196L343 197L342 196z"/>
  <path style="fill:#66b287; stroke:none;" d="M622 196L623 197L622 196z"/>
  <path style="fill:#a3d0b6; stroke:none;" d="M343 197L344 198L343 197z"/>
  <path style="fill:#66b287; stroke:none;" d="M621 197L622 198L621 197z"/>
  <path style="fill:#a3d0b6; stroke:none;" d="M344 198L345 199L344 198z"/>
  <path style="fill:#66b287; stroke:none;" d="M620 198L621 199L620 198z"/>
  <path style="fill:#a3d0b6; stroke:none;" d="M345 199L346 200L345 199z"/>
  <path style="fill:#66b287; stroke:none;" d="M619 199L620 200L619 199z"/>
  <path style="fill:#a3d0b6; stroke:none;" d="M618 200L619 201L618 200M617 201L618 202L617 201z"/>
  <path style="fill:#66b287; stroke:none;" d="M349 202L350 203L349 202z"/>
  <path style="fill:#a3d0b6; stroke:none;" d="M350 203L351 204L350 203M614 203L615 204L614 203z"/>
  <path style="fill:#66b287; stroke:none;" d="M352 204L353 205L352 204z"/>
  <path style="fill:#a3d0b6; stroke:none;" d="M353 205L354 206L353 205M611 205L612 206L611 205M355 206L356 207L355 206z"/>
  <path style="fill:#66b287; stroke:none;" d="M609 206L610 207L609 206M357 207L358 208L357 207M607 207L608 208L607 207M359 208L360 209L359 208M605 208L606 209L605 208z"/>
  <path style="fill:#a3d0b6; stroke:none;" d="M361 209L362 210L361 209z"/>
  <path style="fill:#66b287; stroke:none;" d="M603 209L604 210L603 209M364 210L365 211L364 210M600 210L601 211L600 210z"/>
  <path style="fill:#a3d0b6; stroke:none;" d="M601 210L602 211L601 210M366 211L367 212L366 211z"/>
  <path style="fill:#66b287; stroke:none;" d="M367 211L368 212L367 211M597 211L598 212L597 211z"/>
  <path style="fill:#a3d0b6; stroke:none;" d="M598 211L599 212L598 211M370 212L371 213L370 212z"/>
  <path style="fill:#66b287; stroke:none;" d="M371 212L372 213L371 212M593 212L594 213L593 212z"/>
  <path style="fill:#a3d0b6; stroke:none;" d="M594 212L595 213L594 212M375 213L376 214L375 213z"/>
  <path style="fill:#66b287; stroke:none;" d="M376 213L376 214L379 214L376 213M585 215L589 214L585 215z"/>
  <path style="fill:#a3d0b6; stroke:none;" d="M589.667 213.333L590.333 213.667L589.667 213.333z"/>
  <path style="fill:#2b6141; stroke:none;" d="M381 214L381 234C351.209 234 319.602 230.955 290 234.174C281.363 235.113 276.035 243.242 268 243.941C242.675 246.145 217.071 241.115 192 246.887C153.458 255.762 121.001 285.514 108.515 323C102.768 340.256 102.002 358.957 102 377L137 377C137 328.456 159.992 284.05 209 268.344C229.835 261.667 252.386 263 274 263L370 263L590 263C626.839 263 669.07 257.434 705 266.375C755.314 278.896 788.027 325.982 784 377C790.636 377 808.136 380.139 813.397 375.972C815.931 373.965 814.849 369.208 814.849 366.424C814.849 357.09 814.947 348.23 813.196 339C805.954 300.822 779.234 267.131 743 252.453C707.662 238.138 672.135 249.611 636.015 243.852C629.499 242.813 624.093 233.826 619 229.888C609.084 222.22 597.402 216.655 585 214.464C563.575 210.678 538.766 214 517 214L381 214z"/>
  <path style="fill:#a3d0b6; stroke:none;" d="M586 214L587 215L586 214z"/>
  <path style="fill:#66b287; stroke:none;" d="M589 215L590 216L589 215z"/>
  <path style="fill:#a3d0b6; stroke:none;" d="M590.667 215.333L591.333 215.667L590.667 215.333z"/>
  <path style="fill:#66b287; stroke:none;" d="M593 216L594 217L593 216z"/>
  <path style="fill:#a3d0b6; stroke:none;" d="M594 216L595 217L594 216z"/>
  <path style="fill:#66b287; stroke:none;" d="M596 217L597 218L596 217z"/>
  <path style="fill:#a3d0b6; stroke:none;" d="M597 217L598 218L597 217M599 218L600 219L599 218z"/>
  <path style="fill:#66b287; stroke:none;" d="M601 219L602 220L601 219z"/>
  <path style="fill:#a3d0b6; stroke:none;" d="M602 219L603 220L602 219z"/>
  <path style="fill:#66b287; stroke:none;" d="M603 220L604 221L603 220z"/>
  <path style="fill:#a3d0b6; stroke:none;" d="M604 220L605 221L604 220M606 221L607 222L606 221z"/>
  <path style="fill:#66b287; stroke:none;" d="M607 222L608 223L607 222M609 223L610 224L609 223z"/>
  <path style="fill:#a3d0b6; stroke:none;" d="M611 224L612 225L611 224M614 226L615 227L614 226z"/>
  <path style="fill:#66b287; stroke:none;" d="M615 227L616 228L615 227z"/>
  <path style="fill:#a3d0b6; stroke:none;" d="M617 228L618 229L617 228M618 229L619 230L618 229z"/>
  <path style="fill:#66b287; stroke:none;" d="M619 230L620 231L619 230z"/>
  <path style="fill:#a3d0b6; stroke:none;" d="M380 233L381 234L380 233M623 233L624 234L623 233M286 234L287 235L286 234z"/>
  <path style="fill:#66b287; stroke:none;" d="M287 234L288 235L287 234z"/>
  <path style="fill:#a3d0b6; stroke:none;" d="M624 234L625 235L624 234M283 235L284 236L283 235M625 235L626 236L625 235z"/>
  <path style="fill:#66b287; stroke:none;" d="M281 236L282 237L281 236z"/>
  <path style="fill:#a3d0b6; stroke:none;" d="M626 236L627 237L626 236M279 237L280 238L279 237M627 237L628 238L627 237M628 238L629 239L628 238M276 239L277 240L276 239M275 240L276 241L275 240M274 241L275 242L274 241z"/>
  <path style="fill:#66b287; stroke:none;" d="M631 242L632 243L631 242z"/>
  <path style="fill:#a3d0b6; stroke:none;" d="M213 243L213 244L273 244L254 243L213 243M632 243L632 244L705 244L682 243L632 243M202 244L202 245L205 245L202 244z"/>
  <path style="fill:#66b287; stroke:none;" d="M205.667 244.333L206.333 244.667L205.667 244.333M711.667 244.333L712.333 244.667L711.667 244.333z"/>
  <path style="fill:#a3d0b6; stroke:none;" d="M713.667 244.333L714.333 244.667L713.667 244.333M197 245L198 246L197 245z"/>
  <path style="fill:#66b287; stroke:none;" d="M198.667 245.333L199.333 245.667L198.667 245.333M718 245L719 246L718 245z"/>
  <path style="fill:#a3d0b6; stroke:none;" d="M719.667 245.333L720.333 245.667L719.667 245.333M192 246L193 247L192 246z"/>
  <path style="fill:#66b287; stroke:none;" d="M193 246L194 247L193 246M723 246L724 247L723 246z"/>
  <path style="fill:#a3d0b6; stroke:none;" d="M724.667 246.333L725.333 246.667L724.667 246.333M188 247L189 248L188 247z"/>
  <path style="fill:#66b287; stroke:none;" d="M189 247L190 248L189 247z"/>
  <path style="fill:#a3d0b6; stroke:none;" d="M728.667 247.333L729.333 247.667L728.667 247.333M185 248L186 249L185 248z"/>
  <path style="fill:#66b287; stroke:none;" d="M731 248L732 249L731 248z"/>
  <path style="fill:#a3d0b6; stroke:none;" d="M732 248L733 249L732 248z"/>
  <path style="fill:#66b287; stroke:none;" d="M182 249L183 250L182 249M734 249L735 250L734 249z"/>
  <path style="fill:#a3d0b6; stroke:none;" d="M735 249L736 250L735 249M179 250L180 251L179 250z"/>
  <path style="fill:#66b287; stroke:none;" d="M737 250L738 251L737 250z"/>
  <path style="fill:#a3d0b6; stroke:none;" d="M738 250L739 251L738 250M176 251L177 252L176 251z"/>
  <path style="fill:#66b287; stroke:none;" d="M177 251L178 252L177 251M740 251L741 252L740 251z"/>
  <path style="fill:#a3d0b6; stroke:none;" d="M741 251L742 252L741 251z"/>
  <path style="fill:#66b287; stroke:none;" d="M174 252L175 253L174 252z"/>
  <path style="fill:#a3d0b6; stroke:none;" d="M743 252L744 253L743 252M171 253L172 254L171 253z"/>
  <path style="fill:#66b287; stroke:none;" d="M172 253L173 254L172 253M745 253L746 254L745 253z"/>
  <path style="fill:#a3d0b6; stroke:none;" d="M169 254L170 255L169 254z"/>
  <path style="fill:#66b287; stroke:none;" d="M747 254L748 255L747 254z"/>
  <path style="fill:#a3d0b6; stroke:none;" d="M167 255L168 256L167 255z"/>
  <path style="fill:#66b287; stroke:none;" d="M749 255L750 256L749 255z"/>
  <path style="fill:#a3d0b6; stroke:none;" d="M750 255L751 256L750 255M165 256L166 257L165 256z"/>
  <path style="fill:#66b287; stroke:none;" d="M751 256L752 257L751 256z"/>
  <path style="fill:#a3d0b6; stroke:none;" d="M752 256L753 257L752 256M163 257L164 258L163 257z"/>
  <path style="fill:#66b287; stroke:none;" d="M753 257L754 258L753 257z"/>
  <path style="fill:#a3d0b6; stroke:none;" d="M161 258L162 259L161 258z"/>
  <path style="fill:#66b287; stroke:none;" d="M755 258L756 259L755 258M160 259L161 260L160 259z"/>
  <path style="fill:#a3d0b6; stroke:none;" d="M757 259L758 260L757 259M158 260L159 261L158 260M759 260L760 261L759 260M156 261L157 262L156 261z"/>
  <path style="fill:#66b287; stroke:none;" d="M760 261L761 262L760 261M155 262L156 263L155 262z"/>
  <path style="fill:#a3d0b6; stroke:none;" d="M762 262L763 263L762 262M153 263L154 264L153 263z"/>
  <path style="fill:#33a965; stroke:none;" d="M239 263.424C210.337 267.188 184.652 273.354 164.171 296.001C117.577 347.521 133.938 434.786 200 461.547C222.602 470.703 246.104 470 270 470L353 470L585 470C625.777 470 671.346 475.719 711 465.115C721.628 462.273 731.967 456.855 741 450.653C808.2 404.509 793.416 296.889 717 269.692C695.122 261.906 671.88 263 649 263L555 263L344 263C309.833 263 272.856 258.979 239 263.424M762 263L763 264L762 263z"/>
  <path style="fill:#66b287; stroke:none;" d="M763 263L764 264L763 263M152 264L153 265L152 264z"/>
  <path style="fill:#a3d0b6; stroke:none;" d="M765 264L766 265L765 264z"/>
  <path style="fill:#33a965; stroke:none;" d="M765 265L766 266L765 265z"/>
  <path style="fill:#66b287; stroke:none;" d="M766 265L767 266L766 265z"/>
  <path style="fill:#a3d0b6; stroke:none;" d="M149 266L150 267L149 266z"/>
  <path style="fill:#66b287; stroke:none;" d="M148 267L149 268L148 267z"/>
  <path style="fill:#33a965; stroke:none;" d="M149 267L150 268L149 267z"/>
  <path style="fill:#a3d0b6; stroke:none;" d="M769 267L770 268L769 267z"/>
  <path style="fill:#33a965; stroke:none;" d="M769 268L770 269L769 268z"/>
  <path style="fill:#66b287; stroke:none;" d="M770 268L771 269L770 268z"/>
  <path style="fill:#a3d0b6; stroke:none;" d="M145 269L144 271L145 269z"/>
  <path style="fill:#33a965; stroke:none;" d="M145 270L146 271L145 270z"/>
  <path style="fill:#a3d0b6; stroke:none;" d="M773 270L774 271L773 270z"/>
  <path style="fill:#66b287; stroke:none;" d="M143 271L144 272L143 271z"/>
  <path style="fill:#33a965; stroke:none;" d="M144 271L145 272L144 271z"/>
  <path style="fill:#a3d0b6; stroke:none;" d="M774 271L776 273L774 271z"/>
  <path style="fill:#66b287; stroke:none;" d="M142 272L143 273L142 272z"/>
  <path style="fill:#33a965; stroke:none;" d="M774 272L775 273L774 272M775 273L777 275L775 273z"/>
  <path style="fill:#66b287; stroke:none;" d="M776 273L777 274L776 273M777 274L778 275L777 274M778 275L779 276L778 275z"/>
  <path style="fill:#a3d0b6; stroke:none;" d="M137 276L138 277L137 276M136 277L137 278L136 277M135 278L136 279L135 278z"/>
  <path style="fill:#66b287; stroke:none;" d="M783 280L784 281L783 280M784 281L786 283L784 281z"/>
  <path style="fill:#33a965; stroke:none;" d="M784 282L785 283L784 282M785 283L787 285L785 283z"/>
  <path style="fill:#a3d0b6; stroke:none;" d="M786 283L787 284L786 283z"/>
  <path style="fill:#66b287; stroke:none;" d="M130 284L129 286L130 284z"/>
  <path style="fill:#a3d0b6; stroke:none;" d="M787 284L788 285L787 284z"/>
  <path style="fill:#33a965; stroke:none;" d="M130 285L131 286L130 285z"/>
  <path style="fill:#a3d0b6; stroke:none;" d="M788 285L789 286L788 285M128 286L129 287L128 286z"/>
  <path style="fill:#33a965; stroke:none;" d="M129 286L130 287L129 286z"/>
  <path style="fill:#66b287; stroke:none;" d="M790 288L791 289L790 288M126 289L127 290L126 289z"/>
  <path style="fill:#2b6141; stroke:none;" d="M228 289.439C217.403 291.094 207.163 294.882 198 300.464C142.369 334.35 154.878 419.089 214 440.564C230.524 446.566 248.75 445 266 445L351 445L592 445L660 445C676.199 445 692.484 445.843 708 440.302C779.223 414.866 773.842 308.123 700 290.654C680.84 286.122 658.623 289 639 289L522 289L325 289C293.75 289 258.853 284.62 228 289.439z"/>
  <path style="fill:#33a965; stroke:none;" d="M790 289L791 290L790 289z"/>
  <path style="fill:#a3d0b6; stroke:none;" d="M791 289L792 290L791 289M125 290L126 291L125 290z"/>
  <path style="fill:#33a965; stroke:none;" d="M126 290L127 291L126 290z"/>
  <path style="fill:#a3d0b6; stroke:none;" d="M124 291L125 292L124 291z"/>
  <path style="fill:#66b287; stroke:none;" d="M793 292L794 293L793 292M123 293L124 294L123 293z"/>
  <path style="fill:#33a965; stroke:none;" d="M793 293L794 294L793 293z"/>
  <path style="fill:#a3d0b6; stroke:none;" d="M794 293L795 294L794 293M122 294L123 295L122 294z"/>
  <path style="fill:#33a965; stroke:none;" d="M123 294L124 295L123 294z"/>
  <path style="fill:#66b287; stroke:none;" d="M795 295L796 296L795 295M121 296L122 297L121 296z"/>
  <path style="fill:#33a965; stroke:none;" d="M795 296L796 297L795 296z"/>
  <path style="fill:#a3d0b6; stroke:none;" d="M796 296L797 297L796 296M120 297L121 298L120 297z"/>
  <path style="fill:#33a965; stroke:none;" d="M121 297L122 298L121 297z"/>
  <path style="fill:#66b287; stroke:none;" d="M797 298L798 299L797 298M119 299L120 300L119 299z"/>
  <path style="fill:#33a965; stroke:none;" d="M797 299L798 300L797 299z"/>
  <path style="fill:#a3d0b6; stroke:none;" d="M798 299L799 300L798 299M118 300L119 301L118 300M799 301L800 302L799 301M117 302L118 303L117 302z"/>
  <path style="fill:#66b287; stroke:none;" d="M800 303L801 304L800 303z"/>
  <path style="fill:#a3d0b6; stroke:none;" d="M116 304L117 305L116 304z"/>
  <path style="fill:#66b287; stroke:none;" d="M801 305L802 306L801 305M115 306L116 307L115 306z"/>
  <path style="fill:#a3d0b6; stroke:none;" d="M802 306L803 307L802 306z"/>
  <path style="fill:#66b287; stroke:none;" d="M802 307L803 308L802 307M114 308L115 309L114 308z"/>
  <path style="fill:#33a965; stroke:none;" d="M802 308L803 309L802 308z"/>
  <path style="fill:#a3d0b6; stroke:none;" d="M803 308L804 309L803 308z"/>
  <path style="fill:#66b287; stroke:none;" d="M803 309L804 310L803 309M113 310L114 311L113 310z"/>
  <path style="fill:#a3d0b6; stroke:none;" d="M804 310L805 311L804 310z"/>
  <path style="fill:#66b287; stroke:none;" d="M804 311L805 312L804 311z"/>
  <path style="fill:#a3d0b6; stroke:none;" d="M112 312L113 313L112 312z"/>
  <path style="fill:#66b287; stroke:none;" d="M805 313L806 314L805 313z"/>
  <path style="fill:#a3d0b6; stroke:none;" d="M111 314L112 315L111 314z"/>
  <path style="fill:#33a965; stroke:none;" d="M257 314.594C201.457 316.605 184.359 394.906 237 417.124C244.858 420.441 253.55 421.334 262 420.961C317.956 418.489 327.049 340.639 279 318.792C272.315 315.753 264.341 314.328 257 314.594M391 314.594C335.401 316.607 318.284 394.875 371 417.124C378.858 420.441 387.55 421.334 396 420.961C451.903 418.491 461.023 340.627 413 318.792C406.315 315.753 398.341 314.328 391 314.594M525 314.594C469.301 316.611 452.182 394.831 505 417.124C512.974 420.49 521.431 421.339 530 420.961C585.881 418.492 594.964 340.659 547 318.792C540.321 315.747 532.336 314.329 525 314.594M659 314.594C603.243 316.613 586.089 394.792 639 417.124C646.974 420.49 655.431 421.339 664 420.961C719.859 418.493 728.934 340.645 681 318.792C674.321 315.747 666.336 314.329 659 314.594z"/>
  <path style="fill:#a3d0b6; stroke:none;" d="M806 315L807 316L806 315z"/>
  <path style="fill:#66b287; stroke:none;" d="M110 317L111 318L110 317z"/>
  <path style="fill:#a3d0b6; stroke:none;" d="M807 317L808 318L807 317z"/>
  <path style="fill:#66b287; stroke:none;" d="M807 318L808 319L807 318z"/>
  <path style="fill:#a3d0b6; stroke:none;" d="M109 319L110 320L109 319z"/>
  <path style="fill:#66b287; stroke:none;" d="M109 320L110 321L109 320z"/>
  <path style="fill:#a3d0b6; stroke:none;" d="M808 320L809 321L808 320M108 322L109 323L108 322M809 323L810 324L809 323M107 325L108 326L107 325z"/>
  <path style="fill:#66b287; stroke:none;" d="M107 326L108 327L107 326z"/>
  <path style="fill:#a3d0b6; stroke:none;" d="M810 326L811 327L810 326z"/>
  <path style="fill:#66b287; stroke:none;" d="M810 327L811 328L810 327z"/>
  <path style="fill:#a3d0b6; stroke:none;" d="M106 328L107 329L106 328z"/>
  <path style="fill:#66b287; stroke:none;" d="M106 329L107 330L106 329z"/>
  <path style="fill:#a3d0b6; stroke:none;" d="M811 329L812 330L811 329z"/>
  <path style="fill:#66b287; stroke:none;" d="M811 330L812 331L811 330z"/>
  <path style="fill:#a3d0b6; stroke:none;" d="M105 332L106 333L105 332z"/>
  <path style="fill:#66b287; stroke:none;" d="M105 333L106 334L105 333z"/>
  <path style="fill:#a3d0b6; stroke:none;" d="M812.333 333.667L812.667 334.333L812.333 333.667z"/>
  <path style="fill:#2b6141; stroke:none;" d="M254 334.44C209.666 341.207 219.697 407.243 264 400.699C305.433 394.579 295.323 328.132 254 334.44M388 334.44C343.608 341.216 353.667 407.247 398 400.699C439.445 394.578 429.264 328.141 388 334.44M522 334.44C477.568 341.222 487.613 407.255 532 400.699C573.437 394.579 563.186 328.153 522 334.44M656 334.44C611.479 341.236 621.605 407.256 666 400.699C707.437 394.579 697.131 328.161 656 334.44z"/>
  <path style="fill:#66b287; stroke:none;" d="M812 335L813 336L812 335z"/>
  <path style="fill:#a3d0b6; stroke:none;" d="M104.333 336.667L104.667 337.333L104.333 336.667z"/>
  <path style="fill:#66b287; stroke:none;" d="M104 338L105 339L104 338z"/>
  <path style="fill:#a3d0b6; stroke:none;" d="M813 338L814 339L813 338z"/>
  <path style="fill:#66b287; stroke:none;" d="M813.333 339.667L813.667 340.333L813.333 339.667z"/>
  <path style="fill:#a3d0b6; stroke:none;" d="M103.333 341.667L103.667 342.333L103.333 341.667z"/>
  <path style="fill:#66b287; stroke:none;" d="M103.333 343.667L103.667 344.333L103.333 343.667z"/>
  <path style="fill:#a3d0b6; stroke:none;" d="M814.333 344.667L814.667 345.333L814.333 344.667z"/>
  <path style="fill:#66b287; stroke:none;" d="M814.333 346.667L814.667 347.333L814.333 346.667z"/>
  <path style="fill:#a3d0b6; stroke:none;" d="M102 349L102 354L103 354L102 349M815 353L815 369L816 369L815 353z"/>
  <path style="fill:#66b287; stroke:none;" d="M102 354L102 367L103 367L102 354z"/>
  <path style="fill:#33a965; stroke:none;" d="M814 366L815 367L814 366z"/>
  <path style="fill:#66b287; stroke:none;" d="M815 369L815 377L784 377L784 378C791.665 378 820.719 382.663 815 369z"/>
  <path style="fill:#33a965; stroke:none;" d="M814 376L815 377L814 376z"/>
  <path style="fill:#66b287; stroke:none;" d="M102 377L102 378L137 378L102 377z"/>
  <path style="fill:#a3d0b6; stroke:none;" d="M815 377L816 378L815 377M137 378L138 379L137 378z"/>
  <path style="fill:#66b287; stroke:none;" d="M783.333 378.667L783.667 379.333L783.333 378.667z"/>
  <path style="fill:#a3d0b6; stroke:none;" d="M783.333 380.667L783.667 381.333L783.333 380.667z"/>
  <path style="fill:#66b287; stroke:none;" d="M138 383L139 384L138 383z"/>
  <path style="fill:#a3d0b6; stroke:none;" d="M138.333 384.667L138.667 385.333L138.333 384.667z"/>
  <path style="fill:#66b287; stroke:none;" d="M782 385L783 386L782 385z"/>
  <path style="fill:#a3d0b6; stroke:none;" d="M782.333 386.667L782.667 387.333L782.333 386.667z"/>
  <path style="fill:#66b287; stroke:none;" d="M139 388L140 389L139 388z"/>
  <path style="fill:#a3d0b6; stroke:none;" d="M139.333 389.667L139.667 390.333L139.333 389.667z"/>
  <path style="fill:#66b287; stroke:none;" d="M781 390L782 391L781 390z"/>
  <path style="fill:#a3d0b6; stroke:none;" d="M781 391L782 392L781 391M140 393L141 394L140 393z"/>
  <path style="fill:#66b287; stroke:none;" d="M780 394L781 395L780 394z"/>
  <path style="fill:#a3d0b6; stroke:none;" d="M780 395L781 396L780 395z"/>
  <path style="fill:#66b287; stroke:none;" d="M141 396L142 397L141 396z"/>
  <path style="fill:#a3d0b6; stroke:none;" d="M141 397L142 398L141 397z"/>
  <path style="fill:#66b287; stroke:none;" d="M779 397L780 398L779 397z"/>
  <path style="fill:#a3d0b6; stroke:none;" d="M779 398L780 399L779 398z"/>
  <path style="fill:#66b287; stroke:none;" d="M142 399L143 400L142 399z"/>
  <path style="fill:#a3d0b6; stroke:none;" d="M142 400L143 401L142 400z"/>
  <path style="fill:#66b287; stroke:none;" d="M778 400L779 401L778 400z"/>
  <path style="fill:#a3d0b6; stroke:none;" d="M778 401L779 402L778 401z"/>
  <path style="fill:#66b287; stroke:none;" d="M143 402L144 403L143 402M777 403L778 404L777 403z"/>
  <path style="fill:#a3d0b6; stroke:none;" d="M144 405L145 406L144 405M776 406L777 407L776 406z"/>
  <path style="fill:#66b287; stroke:none;" d="M145 407L146 408L145 407M775 408L776 409L775 408M146 409L147 410L146 409M774 410L775 411L774 410z"/>
  <path style="fill:#a3d0b6; stroke:none;" d="M147 412L148 413L147 412z"/>
  <path style="fill:#66b287; stroke:none;" d="M773 412L774 413L773 412z"/>
  <path style="fill:#a3d0b6; stroke:none;" d="M148 414L149 415L148 414z"/>
  <path style="fill:#66b287; stroke:none;" d="M772 414L773 415L772 414M149 415L150 416L149 415M771 416L772 417L771 416M150 417L151 418L150 417z"/>
  <path style="fill:#a3d0b6; stroke:none;" d="M770 418L771 419L770 418M151 419L152 420L151 419z"/>
  <path style="fill:#66b287; stroke:none;" d="M768 421L769 422L768 421M153 422L154 423L153 422z"/>
  <path style="fill:#a3d0b6; stroke:none;" d="M767 423L768 424L767 423M154 424L155 425L154 424z"/>
  <path style="fill:#66b287; stroke:none;" d="M766 424L767 425L766 424M155 425L156 426L155 425z"/>
  <path style="fill:#a3d0b6; stroke:none;" d="M764 427L765 428L764 427M157 428L158 429L157 428z"/>
  <path style="fill:#66b287; stroke:none;" d="M763 428L764 429L763 428M158 429L159 430L158 429z"/>
  <path style="fill:#a3d0b6; stroke:none;" d="M761 431L762 432L761 431z"/>
  <path style="fill:#66b287; stroke:none;" d="M760 432L761 433L760 432z"/>
  <path style="fill:#a3d0b6; stroke:none;" d="M161 433L162 434L161 433z"/>
  <path style="fill:#66b287; stroke:none;" d="M759 433L760 434L759 433z"/>
  <path style="fill:#a3d0b6; stroke:none;" d="M162 434L163 435L162 434z"/>
  <path style="fill:#66b287; stroke:none;" d="M163 435L164 436L163 435M164 436L165 437L164 436M169 441L170 442L169 441M170 442L171 443L170 442M171 443L172 444L171 443z"/>
  <path style="fill:#a3d0b6; stroke:none;" d="M172 444L173 445L172 444M173 445L174 446L173 445z"/>
  <path style="fill:#66b287; stroke:none;" d="M747 445L748 446L747 445z"/>
  <path style="fill:#a3d0b6; stroke:none;" d="M746 446L747 447L746 446M745 447L746 448L745 447z"/>
  <path style="fill:#66b287; stroke:none;" d="M177 448L178 449L177 448z"/>
  <path style="fill:#a3d0b6; stroke:none;" d="M178 449L179 450L178 449z"/>
  <path style="fill:#66b287; stroke:none;" d="M742 449L743 450L742 449M180 450L181 451L180 450z"/>
  <path style="fill:#a3d0b6; stroke:none;" d="M741 450L742 451L741 450M181 451L182 452L181 451z"/>
  <path style="fill:#66b287; stroke:none;" d="M739 451L740 452L739 451z"/>
  <path style="fill:#a3d0b6; stroke:none;" d="M738 452L739 453L738 452M184 453L185 454L184 453z"/>
  <path style="fill:#66b287; stroke:none;" d="M736 453L737 454L736 453M186 454L187 455L186 454z"/>
  <path style="fill:#a3d0b6; stroke:none;" d="M735 454L736 455L735 454M187 455L188 456L187 455M733 455L734 456L733 455M189 456L190 457L189 456z"/>
  <path style="fill:#66b287; stroke:none;" d="M731 456L732 457L731 456M191 457L192 458L191 457M729 457L730 458L729 457M193 458L194 459L193 458M727 458L728 459L727 458M195 459L196 460L195 459M725 459L726 460L725 459z"/>
  <path style="fill:#a3d0b6; stroke:none;" d="M197 460L198 461L197 460z"/>
  <path style="fill:#66b287; stroke:none;" d="M723 460L724 461L723 460z"/>
  <path style="fill:#a3d0b6; stroke:none;" d="M199 461L200 462L199 461M721 461L722 462L721 461z"/>
  <path style="fill:#66b287; stroke:none;" d="M202 462L203 463L202 462M718 462L719 463L718 462z"/>
  <path style="fill:#a3d0b6; stroke:none;" d="M719 462L720 463L719 462M204 463L205 464L204 463z"/>
  <path style="fill:#66b287; stroke:none;" d="M205 463L206 464L205 463z"/>
  <path style="fill:#a3d0b6; stroke:none;" d="M716 463L717 464L716 463M207 464L208 465L207 464z"/>
  <path style="fill:#66b287; stroke:none;" d="M208 464L209 465L208 464z"/>
  <path style="fill:#a3d0b6; stroke:none;" d="M713 464L714 465L713 464M210 465L211 466L210 465z"/>
  <path style="fill:#66b287; stroke:none;" d="M211 465L212 466L211 465M709 465L710 466L709 465z"/>
  <path style="fill:#a3d0b6; stroke:none;" d="M710 465L711 466L710 465M214 466L215 467L214 466z"/>
  <path style="fill:#66b287; stroke:none;" d="M215 466L216 467L215 466M705 466L706 467L705 466z"/>
  <path style="fill:#a3d0b6; stroke:none;" d="M706.667 466.333L707.333 466.667L706.667 466.333M218 467L219 468L218 467z"/>
  <path style="fill:#66b287; stroke:none;" d="M219 467L220 468L219 467M701 467L702 468L701 467z"/>
  <path style="fill:#a3d0b6; stroke:none;" d="M702 467L703 468L702 467M223.667 468.333L224.333 468.667L223.667 468.333z"/>
  <path style="fill:#66b287; stroke:none;" d="M225.667 468.333L226.333 468.667L225.667 468.333M695 468L696 469L695 468z"/>
  <path style="fill:#a3d0b6; stroke:none;" d="M696.667 468.333L697.333 468.667L696.667 468.333M231.667 469.333L232.333 469.667L231.667 469.333z"/>
  <path style="fill:#66b287; stroke:none;" d="M233 469L234 470L233 469M687 469L688 470L687 469z"/>
  <path style="fill:#a3d0b6; stroke:none;" d="M688.667 469.333L689.333 469.667L688.667 469.333z"/>
</svg>